G04 (created by PCBNEW (2013-may-18)-stable) date  7.03.2015 (сб) 20,10,59 EET*
%MOIN*%
G04 Gerber Fmt 3.4, Leading zero omitted, Abs format*
%FSLAX34Y34*%
G01*
G70*
G90*
G04 APERTURE LIST*
%ADD10C,0.00590551*%
%ADD11R,0.06X0.08*%
%ADD12R,0.08X0.06*%
%ADD13R,0.055X0.055*%
%ADD14C,0.055*%
%ADD15R,0.06X0.06*%
%ADD16C,0.06*%
%ADD17C,0.056*%
%ADD18R,0.062X0.09*%
%ADD19O,0.062X0.09*%
%ADD20R,0.07X0.07*%
%ADD21C,0.07*%
%ADD22C,0.0905512*%
%ADD23R,0.0905512X0.0905512*%
%ADD24C,0.0984252*%
%ADD25R,0.09X0.062*%
%ADD26O,0.09X0.062*%
%ADD27C,0.0629921*%
%ADD28R,0.122047X0.203937*%
%ADD29C,0.11811*%
%ADD30C,0.0787402*%
G04 APERTURE END LIST*
G54D10*
G54D11*
X90040Y-47360D03*
X91340Y-47360D03*
X108450Y-39800D03*
X109750Y-39800D03*
G54D12*
X107050Y-39100D03*
X107050Y-40400D03*
X90375Y-35450D03*
X90375Y-36750D03*
X88300Y-35375D03*
X88300Y-36675D03*
G54D11*
X101090Y-38390D03*
X99790Y-38390D03*
X99450Y-39500D03*
X100750Y-39500D03*
X89170Y-47320D03*
X87870Y-47320D03*
X102400Y-35650D03*
X103700Y-35650D03*
X98750Y-47310D03*
X97450Y-47310D03*
X86930Y-47300D03*
X85630Y-47300D03*
X101330Y-47160D03*
X100030Y-47160D03*
X94570Y-47280D03*
X93270Y-47280D03*
X103950Y-47240D03*
X105250Y-47240D03*
G54D13*
X101400Y-41690D03*
G54D14*
X101400Y-40690D03*
G54D13*
X106390Y-47850D03*
G54D14*
X106390Y-48850D03*
G54D13*
X107570Y-47850D03*
G54D14*
X107570Y-48850D03*
G54D13*
X102550Y-41700D03*
G54D14*
X102550Y-40700D03*
G54D13*
X108730Y-47850D03*
G54D14*
X108730Y-48850D03*
X111650Y-44650D03*
X114650Y-44650D03*
X114550Y-46250D03*
X111550Y-46250D03*
X111750Y-43200D03*
X114750Y-43200D03*
G54D15*
X87940Y-42490D03*
G54D16*
X88940Y-42490D03*
X89940Y-42490D03*
X90940Y-42490D03*
X91940Y-42490D03*
X92940Y-42490D03*
G54D17*
X91380Y-36560D03*
X89380Y-36560D03*
G54D18*
X92270Y-48430D03*
G54D19*
X93270Y-48430D03*
X94270Y-48430D03*
X95270Y-48430D03*
X95270Y-45430D03*
X94270Y-45430D03*
X93270Y-45430D03*
X92270Y-45430D03*
G54D18*
X99794Y-48432D03*
G54D19*
X100794Y-48432D03*
X101794Y-48432D03*
X102794Y-48432D03*
X102794Y-45432D03*
X101794Y-45432D03*
X100794Y-45432D03*
X99794Y-45432D03*
G54D18*
X100370Y-33190D03*
G54D19*
X99370Y-33190D03*
X98370Y-33190D03*
X97370Y-33190D03*
X96370Y-33190D03*
X95370Y-33190D03*
X94370Y-33190D03*
X93370Y-33190D03*
X93370Y-36190D03*
X94370Y-36190D03*
X95370Y-36190D03*
X96370Y-36190D03*
X97370Y-36190D03*
X98370Y-36190D03*
X99370Y-36190D03*
X100370Y-36190D03*
G54D13*
X115050Y-35250D03*
G54D14*
X115050Y-38250D03*
G54D13*
X105325Y-38200D03*
G54D14*
X105325Y-35200D03*
G54D20*
X112050Y-40300D03*
G54D21*
X114050Y-40300D03*
G54D20*
X112250Y-36750D03*
G54D21*
X112250Y-34750D03*
G54D20*
X102400Y-36800D03*
G54D21*
X102400Y-38800D03*
G54D14*
X109400Y-38150D03*
X109400Y-36150D03*
G54D15*
X102550Y-34400D03*
G54D16*
X103550Y-34400D03*
G54D13*
X97480Y-31460D03*
G54D14*
X96480Y-31460D03*
G54D13*
X100630Y-31590D03*
G54D14*
X101630Y-31590D03*
G54D13*
X99540Y-31550D03*
G54D14*
X98540Y-31550D03*
G54D13*
X95410Y-31570D03*
G54D14*
X94410Y-31570D03*
G54D22*
X108100Y-35200D03*
G54D23*
X108100Y-38000D03*
G54D22*
X108100Y-36600D03*
X106500Y-35950D03*
X106500Y-37250D03*
G54D24*
X116200Y-42865D03*
X116200Y-44834D03*
X116200Y-40897D03*
X116200Y-46802D03*
X116200Y-36215D03*
X116200Y-38184D03*
G54D25*
X88680Y-31370D03*
G54D26*
X88680Y-32370D03*
X88680Y-33370D03*
X88680Y-34370D03*
X91680Y-34370D03*
X91680Y-33370D03*
X91680Y-32370D03*
X91680Y-31370D03*
G54D18*
X97490Y-48430D03*
G54D19*
X98490Y-48430D03*
X98490Y-45430D03*
X97490Y-45430D03*
G54D18*
X87840Y-48450D03*
G54D19*
X88840Y-48450D03*
X88840Y-45450D03*
X87840Y-45450D03*
G54D18*
X85630Y-48430D03*
G54D19*
X86630Y-48430D03*
X86630Y-45430D03*
X85630Y-45430D03*
G54D18*
X105230Y-45450D03*
G54D19*
X104230Y-45450D03*
X104230Y-48450D03*
X105230Y-48450D03*
G54D18*
X91060Y-45460D03*
G54D19*
X90060Y-45460D03*
X90060Y-48460D03*
X91060Y-48460D03*
X97870Y-38230D03*
X96870Y-38230D03*
X95870Y-38230D03*
X94870Y-38230D03*
X93870Y-38230D03*
X92870Y-38230D03*
X91870Y-38230D03*
X90870Y-38230D03*
X89870Y-38230D03*
X88870Y-38230D03*
X87870Y-38230D03*
X86870Y-38230D03*
X85870Y-38230D03*
G54D18*
X98870Y-38230D03*
G54D19*
X85870Y-41230D03*
X86870Y-41230D03*
X87870Y-41230D03*
X88870Y-41230D03*
X89870Y-41230D03*
X90870Y-41230D03*
X91870Y-41230D03*
X92870Y-41230D03*
X93870Y-41230D03*
X94870Y-41230D03*
X95870Y-41230D03*
X96870Y-41230D03*
X97870Y-41230D03*
X98870Y-41230D03*
G54D27*
X109100Y-41650D03*
X108100Y-40650D03*
X110100Y-40650D03*
G54D28*
X109200Y-44000D03*
G54D11*
X113700Y-46350D03*
X112400Y-46350D03*
G54D12*
X90560Y-32170D03*
X90560Y-33470D03*
G54D29*
X116500Y-28500D03*
X85500Y-54000D03*
X85500Y-28500D03*
X116500Y-54000D03*
G54D30*
X83200Y-42855D03*
X83200Y-44233D03*
X83200Y-45611D03*
X83200Y-46988D03*
X83200Y-48366D03*
X83200Y-49744D03*
X83200Y-51122D03*
X83200Y-52500D03*
X83200Y-31115D03*
X83200Y-32493D03*
X83200Y-33871D03*
X83200Y-35248D03*
X83200Y-36626D03*
X83200Y-38004D03*
X83200Y-39382D03*
X83200Y-40760D03*
M02*
