M48
;DRILL file {Pcbnew (2013-may-18)-stable} date  7.03.2015 (сб) 20,11,00 EET
;FORMAT={-:-/ absolute / inch / decimal}
FMAT,2
INCH,TZ
T1C0.031
T2C0.035
T3C0.039
T4C0.051
T5C0.059
T6C0.118
%
G90
G05
M72
T1
X8.634Y-4.208
X8.656Y-3.508
X8.661Y-3.353
X8.938Y-3.656
X9.138Y-3.656
X9.31Y-3.983
X10.018Y-4.212
X10.094Y-4.27
X10.164Y-4.312
X10.39Y-4.28
X10.41Y-4.214
X10.54Y-4.122
X10.714Y-4.61
T2
X8.563Y-4.543
X8.563Y-4.843
X8.587Y-3.823
X8.587Y-4.123
X8.663Y-4.543
X8.663Y-4.843
X8.687Y-3.823
X8.687Y-4.123
X8.784Y-4.545
X8.784Y-4.845
X8.787Y-3.823
X8.787Y-4.123
X8.868Y-3.137
X8.868Y-3.237
X8.868Y-3.337
X8.868Y-3.437
X8.884Y-4.545
X8.884Y-4.845
X8.887Y-3.823
X8.887Y-4.123
X8.987Y-3.823
X8.987Y-4.123
X9.006Y-4.546
X9.006Y-4.846
X9.087Y-3.823
X9.087Y-4.123
X9.106Y-4.546
X9.106Y-4.846
X9.168Y-3.137
X9.168Y-3.237
X9.168Y-3.337
X9.168Y-3.437
X9.187Y-3.823
X9.187Y-4.123
X9.227Y-4.543
X9.227Y-4.843
X9.287Y-3.823
X9.287Y-4.123
X9.327Y-4.543
X9.327Y-4.843
X9.337Y-3.319
X9.337Y-3.619
X9.387Y-3.823
X9.387Y-4.123
X9.427Y-4.543
X9.427Y-4.843
X9.437Y-3.319
X9.437Y-3.619
X9.441Y-3.157
X9.487Y-3.823
X9.487Y-4.123
X9.527Y-4.543
X9.527Y-4.843
X9.537Y-3.319
X9.537Y-3.619
X9.541Y-3.157
X9.587Y-3.823
X9.587Y-4.123
X9.637Y-3.319
X9.637Y-3.619
X9.648Y-3.146
X9.687Y-3.823
X9.687Y-4.123
X9.737Y-3.319
X9.737Y-3.619
X9.748Y-3.146
X9.749Y-4.543
X9.749Y-4.843
X9.787Y-3.823
X9.787Y-4.123
X9.837Y-3.319
X9.837Y-3.619
X9.849Y-4.543
X9.849Y-4.843
X9.854Y-3.155
X9.887Y-3.823
X9.887Y-4.123
X9.937Y-3.319
X9.937Y-3.619
X9.954Y-3.155
X9.9794Y-4.5432
X9.9794Y-4.8432
X10.037Y-3.319
X10.037Y-3.619
X10.063Y-3.159
X10.0794Y-4.5432
X10.0794Y-4.8432
X10.14Y-4.069
X10.14Y-4.169
X10.163Y-3.159
X10.1794Y-4.5432
X10.1794Y-4.8432
X10.255Y-3.44
X10.255Y-4.07
X10.255Y-4.17
X10.2794Y-4.5432
X10.2794Y-4.8432
X10.355Y-3.44
X10.423Y-4.545
X10.423Y-4.845
X10.523Y-4.545
X10.523Y-4.845
X10.5325Y-3.52
X10.5325Y-3.82
X10.639Y-4.785
X10.639Y-4.885
X10.757Y-4.785
X10.757Y-4.885
X10.81Y-4.065
X10.873Y-4.785
X10.873Y-4.885
X10.91Y-4.165
X10.94Y-3.615
X10.94Y-3.815
X11.01Y-4.065
X11.155Y-4.625
X11.165Y-4.465
X11.175Y-4.32
X11.455Y-4.625
X11.465Y-4.465
X11.475Y-4.32
X11.505Y-3.525
X11.505Y-3.825
T3
X8.32Y-3.1115
X8.32Y-3.2493
X8.32Y-3.3871
X8.32Y-3.5249
X8.32Y-3.6627
X8.32Y-3.8005
X8.32Y-3.9383
X8.32Y-4.0761
X8.32Y-4.2855
X8.32Y-4.4233
X8.32Y-4.5611
X8.32Y-4.6989
X8.32Y-4.8367
X8.32Y-4.9745
X8.32Y-5.1123
X8.32Y-5.2501
X8.794Y-4.249
X8.894Y-4.249
X8.994Y-4.249
X9.094Y-4.249
X9.194Y-4.249
X9.294Y-4.249
X10.24Y-3.68
X10.24Y-3.88
X11.205Y-4.03
X11.225Y-3.475
X11.225Y-3.675
X11.405Y-4.03
T4
X10.65Y-3.595
X10.65Y-3.725
X10.81Y-3.52
X10.81Y-3.66
X10.81Y-3.8
T5
X10.92Y-4.4
X11.62Y-3.6216
X11.62Y-3.8184
X11.62Y-4.0897
X11.62Y-4.2866
X11.62Y-4.4834
X11.62Y-4.6803
T6
X8.55Y-2.85
X8.55Y-5.4
X11.65Y-2.85
X11.65Y-5.4
T0
M30
