G04 (created by PCBNEW (2013-may-18)-stable) date  7.03.2015 (сб) 20,10,59 EET*
%MOIN*%
G04 Gerber Fmt 3.4, Leading zero omitted, Abs format*
%FSLAX34Y34*%
G01*
G70*
G90*
G04 APERTURE LIST*
%ADD10C,0.00590551*%
%ADD11C,0.005*%
G04 APERTURE END LIST*
G54D10*
G54D11*
X89690Y-47810D02*
X89690Y-46910D01*
X89690Y-46910D02*
X90340Y-46910D01*
X91040Y-47810D02*
X91690Y-47810D01*
X91690Y-47810D02*
X91690Y-46910D01*
X91690Y-46910D02*
X91040Y-46910D01*
X90340Y-47810D02*
X89690Y-47810D01*
X108100Y-40250D02*
X108100Y-39350D01*
X108100Y-39350D02*
X108750Y-39350D01*
X109450Y-40250D02*
X110100Y-40250D01*
X110100Y-40250D02*
X110100Y-39350D01*
X110100Y-39350D02*
X109450Y-39350D01*
X108750Y-40250D02*
X108100Y-40250D01*
X106600Y-38750D02*
X107500Y-38750D01*
X107500Y-38750D02*
X107500Y-39400D01*
X106600Y-40100D02*
X106600Y-40750D01*
X106600Y-40750D02*
X107500Y-40750D01*
X107500Y-40750D02*
X107500Y-40100D01*
X106600Y-39400D02*
X106600Y-38750D01*
X89925Y-35100D02*
X90825Y-35100D01*
X90825Y-35100D02*
X90825Y-35750D01*
X89925Y-36450D02*
X89925Y-37100D01*
X89925Y-37100D02*
X90825Y-37100D01*
X90825Y-37100D02*
X90825Y-36450D01*
X89925Y-35750D02*
X89925Y-35100D01*
X87850Y-35025D02*
X88750Y-35025D01*
X88750Y-35025D02*
X88750Y-35675D01*
X87850Y-36375D02*
X87850Y-37025D01*
X87850Y-37025D02*
X88750Y-37025D01*
X88750Y-37025D02*
X88750Y-36375D01*
X87850Y-35675D02*
X87850Y-35025D01*
X101440Y-37940D02*
X101440Y-38840D01*
X101440Y-38840D02*
X100790Y-38840D01*
X100090Y-37940D02*
X99440Y-37940D01*
X99440Y-37940D02*
X99440Y-38840D01*
X99440Y-38840D02*
X100090Y-38840D01*
X100790Y-37940D02*
X101440Y-37940D01*
X99100Y-39950D02*
X99100Y-39050D01*
X99100Y-39050D02*
X99750Y-39050D01*
X100450Y-39950D02*
X101100Y-39950D01*
X101100Y-39950D02*
X101100Y-39050D01*
X101100Y-39050D02*
X100450Y-39050D01*
X99750Y-39950D02*
X99100Y-39950D01*
X89520Y-46870D02*
X89520Y-47770D01*
X89520Y-47770D02*
X88870Y-47770D01*
X88170Y-46870D02*
X87520Y-46870D01*
X87520Y-46870D02*
X87520Y-47770D01*
X87520Y-47770D02*
X88170Y-47770D01*
X88870Y-46870D02*
X89520Y-46870D01*
X102050Y-36100D02*
X102050Y-35200D01*
X102050Y-35200D02*
X102700Y-35200D01*
X103400Y-36100D02*
X104050Y-36100D01*
X104050Y-36100D02*
X104050Y-35200D01*
X104050Y-35200D02*
X103400Y-35200D01*
X102700Y-36100D02*
X102050Y-36100D01*
X99100Y-46860D02*
X99100Y-47760D01*
X99100Y-47760D02*
X98450Y-47760D01*
X97750Y-46860D02*
X97100Y-46860D01*
X97100Y-46860D02*
X97100Y-47760D01*
X97100Y-47760D02*
X97750Y-47760D01*
X98450Y-46860D02*
X99100Y-46860D01*
X87280Y-46850D02*
X87280Y-47750D01*
X87280Y-47750D02*
X86630Y-47750D01*
X85930Y-46850D02*
X85280Y-46850D01*
X85280Y-46850D02*
X85280Y-47750D01*
X85280Y-47750D02*
X85930Y-47750D01*
X86630Y-46850D02*
X87280Y-46850D01*
X101680Y-46710D02*
X101680Y-47610D01*
X101680Y-47610D02*
X101030Y-47610D01*
X100330Y-46710D02*
X99680Y-46710D01*
X99680Y-46710D02*
X99680Y-47610D01*
X99680Y-47610D02*
X100330Y-47610D01*
X101030Y-46710D02*
X101680Y-46710D01*
X94920Y-46830D02*
X94920Y-47730D01*
X94920Y-47730D02*
X94270Y-47730D01*
X93570Y-46830D02*
X92920Y-46830D01*
X92920Y-46830D02*
X92920Y-47730D01*
X92920Y-47730D02*
X93570Y-47730D01*
X94270Y-46830D02*
X94920Y-46830D01*
X103600Y-47690D02*
X103600Y-46790D01*
X103600Y-46790D02*
X104250Y-46790D01*
X104950Y-47690D02*
X105600Y-47690D01*
X105600Y-47690D02*
X105600Y-46790D01*
X105600Y-46790D02*
X104950Y-46790D01*
X104250Y-47690D02*
X103600Y-47690D01*
X114050Y-45900D02*
X114050Y-46800D01*
X114050Y-46800D02*
X113400Y-46800D01*
X112700Y-45900D02*
X112050Y-45900D01*
X112050Y-45900D02*
X112050Y-46800D01*
X112050Y-46800D02*
X112700Y-46800D01*
X113400Y-45900D02*
X114050Y-45900D01*
X90110Y-31820D02*
X91010Y-31820D01*
X91010Y-31820D02*
X91010Y-32470D01*
X90110Y-33170D02*
X90110Y-33820D01*
X90110Y-33820D02*
X91010Y-33820D01*
X91010Y-33820D02*
X91010Y-33170D01*
X90110Y-32470D02*
X90110Y-31820D01*
X90212Y-46741D02*
X90312Y-46598D01*
X90384Y-46741D02*
X90384Y-46441D01*
X90270Y-46441D01*
X90241Y-46455D01*
X90227Y-46470D01*
X90212Y-46498D01*
X90212Y-46541D01*
X90227Y-46570D01*
X90241Y-46584D01*
X90270Y-46598D01*
X90384Y-46598D01*
X89927Y-46741D02*
X90098Y-46741D01*
X90012Y-46741D02*
X90012Y-46441D01*
X90041Y-46484D01*
X90070Y-46512D01*
X90098Y-46527D01*
X89641Y-46741D02*
X89812Y-46741D01*
X89727Y-46741D02*
X89727Y-46441D01*
X89755Y-46484D01*
X89784Y-46512D01*
X89812Y-46527D01*
X110592Y-39950D02*
X110607Y-39935D01*
X110621Y-39892D01*
X110621Y-39864D01*
X110607Y-39821D01*
X110578Y-39792D01*
X110550Y-39778D01*
X110492Y-39764D01*
X110450Y-39764D01*
X110392Y-39778D01*
X110364Y-39792D01*
X110335Y-39821D01*
X110321Y-39864D01*
X110321Y-39892D01*
X110335Y-39935D01*
X110350Y-39950D01*
X110621Y-40092D02*
X110621Y-40150D01*
X110607Y-40178D01*
X110592Y-40192D01*
X110550Y-40221D01*
X110492Y-40235D01*
X110378Y-40235D01*
X110350Y-40221D01*
X110335Y-40207D01*
X110321Y-40178D01*
X110321Y-40121D01*
X110335Y-40092D01*
X110350Y-40078D01*
X110378Y-40064D01*
X110450Y-40064D01*
X110478Y-40078D01*
X110492Y-40092D01*
X110507Y-40121D01*
X110507Y-40178D01*
X110492Y-40207D01*
X110478Y-40221D01*
X110450Y-40235D01*
X107921Y-39507D02*
X107778Y-39407D01*
X107921Y-39335D02*
X107621Y-39335D01*
X107621Y-39450D01*
X107635Y-39478D01*
X107650Y-39492D01*
X107678Y-39507D01*
X107721Y-39507D01*
X107750Y-39492D01*
X107764Y-39478D01*
X107778Y-39450D01*
X107778Y-39335D01*
X107921Y-39792D02*
X107921Y-39621D01*
X107921Y-39707D02*
X107621Y-39707D01*
X107664Y-39678D01*
X107692Y-39650D01*
X107707Y-39621D01*
X107650Y-39907D02*
X107635Y-39921D01*
X107621Y-39950D01*
X107621Y-40021D01*
X107635Y-40050D01*
X107650Y-40064D01*
X107678Y-40078D01*
X107707Y-40078D01*
X107750Y-40064D01*
X107921Y-39892D01*
X107921Y-40078D01*
X91292Y-35430D02*
X91307Y-35415D01*
X91321Y-35372D01*
X91321Y-35344D01*
X91307Y-35301D01*
X91278Y-35272D01*
X91250Y-35258D01*
X91192Y-35244D01*
X91150Y-35244D01*
X91092Y-35258D01*
X91064Y-35272D01*
X91035Y-35301D01*
X91021Y-35344D01*
X91021Y-35372D01*
X91035Y-35415D01*
X91050Y-35430D01*
X91321Y-35715D02*
X91321Y-35544D01*
X91321Y-35630D02*
X91021Y-35630D01*
X91064Y-35601D01*
X91092Y-35572D01*
X91107Y-35544D01*
X87632Y-35070D02*
X87647Y-35055D01*
X87661Y-35012D01*
X87661Y-34984D01*
X87647Y-34941D01*
X87618Y-34912D01*
X87590Y-34898D01*
X87532Y-34884D01*
X87490Y-34884D01*
X87432Y-34898D01*
X87404Y-34912D01*
X87375Y-34941D01*
X87361Y-34984D01*
X87361Y-35012D01*
X87375Y-35055D01*
X87390Y-35070D01*
X87390Y-35184D02*
X87375Y-35198D01*
X87361Y-35227D01*
X87361Y-35298D01*
X87375Y-35327D01*
X87390Y-35341D01*
X87418Y-35355D01*
X87447Y-35355D01*
X87490Y-35341D01*
X87661Y-35170D01*
X87661Y-35355D01*
X99870Y-37801D02*
X99970Y-37658D01*
X100041Y-37801D02*
X100041Y-37501D01*
X99927Y-37501D01*
X99898Y-37515D01*
X99884Y-37530D01*
X99870Y-37558D01*
X99870Y-37601D01*
X99884Y-37630D01*
X99898Y-37644D01*
X99927Y-37658D01*
X100041Y-37658D01*
X99584Y-37801D02*
X99755Y-37801D01*
X99670Y-37801D02*
X99670Y-37501D01*
X99698Y-37544D01*
X99727Y-37572D01*
X99755Y-37587D01*
X98932Y-39470D02*
X98947Y-39455D01*
X98961Y-39412D01*
X98961Y-39384D01*
X98947Y-39341D01*
X98918Y-39312D01*
X98890Y-39298D01*
X98832Y-39284D01*
X98790Y-39284D01*
X98732Y-39298D01*
X98704Y-39312D01*
X98675Y-39341D01*
X98661Y-39384D01*
X98661Y-39412D01*
X98675Y-39455D01*
X98690Y-39470D01*
X98661Y-39741D02*
X98661Y-39598D01*
X98804Y-39584D01*
X98790Y-39598D01*
X98775Y-39627D01*
X98775Y-39698D01*
X98790Y-39727D01*
X98804Y-39741D01*
X98832Y-39755D01*
X98904Y-39755D01*
X98932Y-39741D01*
X98947Y-39727D01*
X98961Y-39698D01*
X98961Y-39627D01*
X98947Y-39598D01*
X98932Y-39584D01*
X87870Y-46721D02*
X87970Y-46578D01*
X88041Y-46721D02*
X88041Y-46421D01*
X87927Y-46421D01*
X87898Y-46435D01*
X87884Y-46450D01*
X87870Y-46478D01*
X87870Y-46521D01*
X87884Y-46550D01*
X87898Y-46564D01*
X87927Y-46578D01*
X88041Y-46578D01*
X87727Y-46721D02*
X87670Y-46721D01*
X87641Y-46707D01*
X87627Y-46692D01*
X87598Y-46650D01*
X87584Y-46592D01*
X87584Y-46478D01*
X87598Y-46450D01*
X87612Y-46435D01*
X87641Y-46421D01*
X87698Y-46421D01*
X87727Y-46435D01*
X87741Y-46450D01*
X87755Y-46478D01*
X87755Y-46550D01*
X87741Y-46578D01*
X87727Y-46592D01*
X87698Y-46607D01*
X87641Y-46607D01*
X87612Y-46592D01*
X87598Y-46578D01*
X87584Y-46550D01*
X104392Y-35032D02*
X104407Y-35047D01*
X104450Y-35061D01*
X104478Y-35061D01*
X104521Y-35047D01*
X104550Y-35018D01*
X104564Y-34990D01*
X104578Y-34932D01*
X104578Y-34890D01*
X104564Y-34832D01*
X104550Y-34804D01*
X104521Y-34775D01*
X104478Y-34761D01*
X104450Y-34761D01*
X104407Y-34775D01*
X104392Y-34790D01*
X104107Y-35061D02*
X104278Y-35061D01*
X104192Y-35061D02*
X104192Y-34761D01*
X104221Y-34804D01*
X104250Y-34832D01*
X104278Y-34847D01*
X103821Y-35061D02*
X103992Y-35061D01*
X103907Y-35061D02*
X103907Y-34761D01*
X103935Y-34804D01*
X103964Y-34832D01*
X103992Y-34847D01*
X97450Y-46741D02*
X97550Y-46598D01*
X97621Y-46741D02*
X97621Y-46441D01*
X97507Y-46441D01*
X97478Y-46455D01*
X97464Y-46470D01*
X97450Y-46498D01*
X97450Y-46541D01*
X97464Y-46570D01*
X97478Y-46584D01*
X97507Y-46598D01*
X97621Y-46598D01*
X97278Y-46570D02*
X97307Y-46555D01*
X97321Y-46541D01*
X97335Y-46512D01*
X97335Y-46498D01*
X97321Y-46470D01*
X97307Y-46455D01*
X97278Y-46441D01*
X97221Y-46441D01*
X97192Y-46455D01*
X97178Y-46470D01*
X97164Y-46498D01*
X97164Y-46512D01*
X97178Y-46541D01*
X97192Y-46555D01*
X97221Y-46570D01*
X97278Y-46570D01*
X97307Y-46584D01*
X97321Y-46598D01*
X97335Y-46627D01*
X97335Y-46684D01*
X97321Y-46712D01*
X97307Y-46727D01*
X97278Y-46741D01*
X97221Y-46741D01*
X97192Y-46727D01*
X97178Y-46712D01*
X97164Y-46684D01*
X97164Y-46627D01*
X97178Y-46598D01*
X97192Y-46584D01*
X97221Y-46570D01*
X85750Y-46761D02*
X85850Y-46618D01*
X85921Y-46761D02*
X85921Y-46461D01*
X85807Y-46461D01*
X85778Y-46475D01*
X85764Y-46490D01*
X85750Y-46518D01*
X85750Y-46561D01*
X85764Y-46590D01*
X85778Y-46604D01*
X85807Y-46618D01*
X85921Y-46618D01*
X85650Y-46461D02*
X85450Y-46461D01*
X85578Y-46761D01*
X100130Y-46581D02*
X100230Y-46438D01*
X100301Y-46581D02*
X100301Y-46281D01*
X100187Y-46281D01*
X100158Y-46295D01*
X100144Y-46310D01*
X100130Y-46338D01*
X100130Y-46381D01*
X100144Y-46410D01*
X100158Y-46424D01*
X100187Y-46438D01*
X100301Y-46438D01*
X99858Y-46281D02*
X100001Y-46281D01*
X100015Y-46424D01*
X100001Y-46410D01*
X99972Y-46395D01*
X99901Y-46395D01*
X99872Y-46410D01*
X99858Y-46424D01*
X99844Y-46452D01*
X99844Y-46524D01*
X99858Y-46552D01*
X99872Y-46567D01*
X99901Y-46581D01*
X99972Y-46581D01*
X100001Y-46567D01*
X100015Y-46552D01*
X93370Y-46701D02*
X93470Y-46558D01*
X93541Y-46701D02*
X93541Y-46401D01*
X93427Y-46401D01*
X93398Y-46415D01*
X93384Y-46430D01*
X93370Y-46458D01*
X93370Y-46501D01*
X93384Y-46530D01*
X93398Y-46544D01*
X93427Y-46558D01*
X93541Y-46558D01*
X93112Y-46401D02*
X93170Y-46401D01*
X93198Y-46415D01*
X93212Y-46430D01*
X93241Y-46472D01*
X93255Y-46530D01*
X93255Y-46644D01*
X93241Y-46672D01*
X93227Y-46687D01*
X93198Y-46701D01*
X93141Y-46701D01*
X93112Y-46687D01*
X93098Y-46672D01*
X93084Y-46644D01*
X93084Y-46572D01*
X93098Y-46544D01*
X93112Y-46530D01*
X93141Y-46515D01*
X93198Y-46515D01*
X93227Y-46530D01*
X93241Y-46544D01*
X93255Y-46572D01*
X105452Y-46641D02*
X105552Y-46498D01*
X105624Y-46641D02*
X105624Y-46341D01*
X105510Y-46341D01*
X105481Y-46355D01*
X105467Y-46370D01*
X105452Y-46398D01*
X105452Y-46441D01*
X105467Y-46470D01*
X105481Y-46484D01*
X105510Y-46498D01*
X105624Y-46498D01*
X105167Y-46641D02*
X105338Y-46641D01*
X105252Y-46641D02*
X105252Y-46341D01*
X105281Y-46384D01*
X105310Y-46412D01*
X105338Y-46427D01*
X104981Y-46341D02*
X104952Y-46341D01*
X104924Y-46355D01*
X104910Y-46370D01*
X104895Y-46398D01*
X104881Y-46455D01*
X104881Y-46527D01*
X104895Y-46584D01*
X104910Y-46612D01*
X104924Y-46627D01*
X104952Y-46641D01*
X104981Y-46641D01*
X105010Y-46627D01*
X105024Y-46612D01*
X105038Y-46584D01*
X105052Y-46527D01*
X105052Y-46455D01*
X105038Y-46398D01*
X105024Y-46370D01*
X105010Y-46355D01*
X104981Y-46341D01*
X112592Y-45732D02*
X112607Y-45747D01*
X112650Y-45761D01*
X112678Y-45761D01*
X112721Y-45747D01*
X112750Y-45718D01*
X112764Y-45690D01*
X112778Y-45632D01*
X112778Y-45590D01*
X112764Y-45532D01*
X112750Y-45504D01*
X112721Y-45475D01*
X112678Y-45461D01*
X112650Y-45461D01*
X112607Y-45475D01*
X112592Y-45490D01*
X112307Y-45761D02*
X112478Y-45761D01*
X112392Y-45761D02*
X112392Y-45461D01*
X112421Y-45504D01*
X112450Y-45532D01*
X112478Y-45547D01*
X112050Y-45461D02*
X112107Y-45461D01*
X112135Y-45475D01*
X112150Y-45490D01*
X112178Y-45532D01*
X112192Y-45590D01*
X112192Y-45704D01*
X112178Y-45732D01*
X112164Y-45747D01*
X112135Y-45761D01*
X112078Y-45761D01*
X112050Y-45747D01*
X112035Y-45732D01*
X112021Y-45704D01*
X112021Y-45632D01*
X112035Y-45604D01*
X112050Y-45590D01*
X112078Y-45575D01*
X112135Y-45575D01*
X112164Y-45590D01*
X112178Y-45604D01*
X112192Y-45632D01*
X90290Y-31661D02*
X90390Y-31518D01*
X90461Y-31661D02*
X90461Y-31361D01*
X90347Y-31361D01*
X90318Y-31375D01*
X90304Y-31390D01*
X90290Y-31418D01*
X90290Y-31461D01*
X90304Y-31490D01*
X90318Y-31504D01*
X90347Y-31518D01*
X90461Y-31518D01*
X90175Y-31390D02*
X90161Y-31375D01*
X90132Y-31361D01*
X90061Y-31361D01*
X90032Y-31375D01*
X90018Y-31390D01*
X90004Y-31418D01*
X90004Y-31447D01*
X90018Y-31490D01*
X90190Y-31661D01*
X90004Y-31661D01*
M02*
