G04 (created by PCBNEW (2013-may-18)-stable) date  7.03.2015 (сб) 20,10,59 EET*
%MOIN*%
G04 Gerber Fmt 3.4, Leading zero omitted, Abs format*
%FSLAX34Y34*%
G01*
G70*
G90*
G04 APERTURE LIST*
%ADD10C,0.00590551*%
%ADD11C,0.00984252*%
%ADD12R,0.08X0.06*%
%ADD13R,0.06X0.08*%
%ADD14R,0.055X0.055*%
%ADD15C,0.055*%
%ADD16R,0.06X0.06*%
%ADD17C,0.06*%
%ADD18C,0.056*%
%ADD19R,0.062X0.09*%
%ADD20O,0.062X0.09*%
%ADD21R,0.07X0.07*%
%ADD22C,0.07*%
%ADD23C,0.0905512*%
%ADD24R,0.0905512X0.0905512*%
%ADD25C,0.0984252*%
%ADD26R,0.09X0.062*%
%ADD27O,0.09X0.062*%
%ADD28C,0.0629921*%
%ADD29R,0.0610236X0.00984252*%
%ADD30R,0.122047X0.203937*%
%ADD31C,0.11811*%
%ADD32C,0.0787402*%
%ADD33C,0.0511811*%
%ADD34C,0.011811*%
%ADD35C,0.019685*%
%ADD36C,0.01*%
G04 APERTURE END LIST*
G54D10*
G54D11*
X104338Y-32481D02*
X104450Y-32518D01*
X104638Y-32518D01*
X104713Y-32481D01*
X104750Y-32443D01*
X104788Y-32368D01*
X104788Y-32293D01*
X104750Y-32218D01*
X104713Y-32181D01*
X104638Y-32143D01*
X104488Y-32106D01*
X104413Y-32068D01*
X104375Y-32031D01*
X104338Y-31956D01*
X104338Y-31881D01*
X104375Y-31806D01*
X104413Y-31768D01*
X104488Y-31731D01*
X104675Y-31731D01*
X104788Y-31768D01*
X105013Y-31731D02*
X105463Y-31731D01*
X105238Y-32518D02*
X105238Y-31731D01*
X105725Y-32106D02*
X105988Y-32106D01*
X106100Y-32518D02*
X105725Y-32518D01*
X105725Y-31731D01*
X106100Y-31731D01*
X106438Y-32518D02*
X106438Y-31731D01*
X106737Y-31731D01*
X106812Y-31768D01*
X106850Y-31806D01*
X106887Y-31881D01*
X106887Y-31993D01*
X106850Y-32068D01*
X106812Y-32106D01*
X106737Y-32143D01*
X106438Y-32143D01*
X107225Y-32518D02*
X107225Y-31731D01*
X107525Y-31731D01*
X107600Y-31768D01*
X107637Y-31806D01*
X107675Y-31881D01*
X107675Y-31993D01*
X107637Y-32068D01*
X107600Y-32106D01*
X107525Y-32143D01*
X107225Y-32143D01*
X108012Y-32106D02*
X108275Y-32106D01*
X108387Y-32518D02*
X108012Y-32518D01*
X108012Y-31731D01*
X108387Y-31731D01*
X109175Y-32518D02*
X108912Y-32143D01*
X108725Y-32518D02*
X108725Y-31731D01*
X109025Y-31731D01*
X109100Y-31768D01*
X109137Y-31806D01*
X109175Y-31881D01*
X109175Y-31993D01*
X109137Y-32068D01*
X109100Y-32106D01*
X109025Y-32143D01*
X108725Y-32143D01*
X110112Y-32518D02*
X110112Y-31731D01*
X110375Y-32293D01*
X110637Y-31731D01*
X110637Y-32518D01*
X111162Y-31731D02*
X111312Y-31731D01*
X111387Y-31768D01*
X111462Y-31843D01*
X111499Y-31993D01*
X111499Y-32256D01*
X111462Y-32406D01*
X111387Y-32481D01*
X111312Y-32518D01*
X111162Y-32518D01*
X111087Y-32481D01*
X111012Y-32406D01*
X110974Y-32256D01*
X110974Y-31993D01*
X111012Y-31843D01*
X111087Y-31768D01*
X111162Y-31731D01*
X111724Y-31731D02*
X112174Y-31731D01*
X111949Y-32518D02*
X111949Y-31731D01*
X112587Y-31731D02*
X112737Y-31731D01*
X112812Y-31768D01*
X112887Y-31843D01*
X112924Y-31993D01*
X112924Y-32256D01*
X112887Y-32406D01*
X112812Y-32481D01*
X112737Y-32518D01*
X112587Y-32518D01*
X112512Y-32481D01*
X112437Y-32406D01*
X112399Y-32256D01*
X112399Y-31993D01*
X112437Y-31843D01*
X112512Y-31768D01*
X112587Y-31731D01*
X113712Y-32518D02*
X113449Y-32143D01*
X113262Y-32518D02*
X113262Y-31731D01*
X113562Y-31731D01*
X113637Y-31768D01*
X113674Y-31806D01*
X113712Y-31881D01*
X113712Y-31993D01*
X113674Y-32068D01*
X113637Y-32106D01*
X113562Y-32143D01*
X113262Y-32143D01*
X114537Y-31731D02*
X114799Y-32518D01*
X115061Y-31731D01*
X115474Y-31731D02*
X115549Y-31731D01*
X115624Y-31768D01*
X115661Y-31806D01*
X115699Y-31881D01*
X115736Y-32031D01*
X115736Y-32218D01*
X115699Y-32368D01*
X115661Y-32443D01*
X115624Y-32481D01*
X115549Y-32518D01*
X115474Y-32518D01*
X115399Y-32481D01*
X115361Y-32443D01*
X115324Y-32368D01*
X115286Y-32218D01*
X115286Y-32031D01*
X115324Y-31881D01*
X115361Y-31806D01*
X115399Y-31768D01*
X115474Y-31731D01*
X116074Y-32443D02*
X116111Y-32481D01*
X116074Y-32518D01*
X116036Y-32481D01*
X116074Y-32443D01*
X116074Y-32518D01*
X116861Y-32518D02*
X116411Y-32518D01*
X116636Y-32518D02*
X116636Y-31731D01*
X116561Y-31843D01*
X116486Y-31918D01*
X116411Y-31956D01*
G54D12*
X96430Y-46770D03*
X96430Y-45470D03*
G54D13*
X109190Y-46380D03*
X107890Y-46380D03*
X108450Y-39300D03*
X109750Y-39300D03*
G54D12*
X104800Y-39200D03*
X104800Y-40500D03*
X107000Y-40500D03*
X107000Y-41800D03*
X110580Y-46330D03*
X110580Y-47630D03*
X105900Y-39200D03*
X105900Y-40500D03*
G54D14*
X101400Y-41690D03*
G54D15*
X101400Y-40690D03*
G54D14*
X106390Y-47850D03*
G54D15*
X106390Y-48850D03*
G54D14*
X107570Y-47850D03*
G54D15*
X107570Y-48850D03*
G54D14*
X102550Y-41700D03*
G54D15*
X102550Y-40700D03*
G54D14*
X108730Y-47850D03*
G54D15*
X108730Y-48850D03*
X111650Y-44650D03*
X114650Y-44650D03*
X114550Y-46250D03*
X111550Y-46250D03*
X111750Y-43200D03*
X114750Y-43200D03*
G54D16*
X87940Y-42490D03*
G54D17*
X88940Y-42490D03*
X89940Y-42490D03*
X90940Y-42490D03*
X91940Y-42490D03*
X92940Y-42490D03*
G54D18*
X91380Y-36560D03*
X89380Y-36560D03*
G54D19*
X92270Y-48430D03*
G54D20*
X93270Y-48430D03*
X94270Y-48430D03*
X95270Y-48430D03*
X95270Y-45430D03*
X94270Y-45430D03*
X93270Y-45430D03*
X92270Y-45430D03*
G54D19*
X99794Y-48432D03*
G54D20*
X100794Y-48432D03*
X101794Y-48432D03*
X102794Y-48432D03*
X102794Y-45432D03*
X101794Y-45432D03*
X100794Y-45432D03*
X99794Y-45432D03*
G54D19*
X100370Y-33190D03*
G54D20*
X99370Y-33190D03*
X98370Y-33190D03*
X97370Y-33190D03*
X96370Y-33190D03*
X95370Y-33190D03*
X94370Y-33190D03*
X93370Y-33190D03*
X93370Y-36190D03*
X94370Y-36190D03*
X95370Y-36190D03*
X96370Y-36190D03*
X97370Y-36190D03*
X98370Y-36190D03*
X99370Y-36190D03*
X100370Y-36190D03*
G54D14*
X115050Y-35250D03*
G54D15*
X115050Y-38250D03*
G54D14*
X105325Y-38200D03*
G54D15*
X105325Y-35200D03*
G54D21*
X112050Y-40300D03*
G54D22*
X114050Y-40300D03*
G54D21*
X112250Y-36750D03*
G54D22*
X112250Y-34750D03*
G54D21*
X102400Y-36800D03*
G54D22*
X102400Y-38800D03*
G54D15*
X109400Y-38150D03*
X109400Y-36150D03*
G54D16*
X102550Y-34400D03*
G54D17*
X103550Y-34400D03*
G54D14*
X97480Y-31460D03*
G54D15*
X96480Y-31460D03*
G54D14*
X100630Y-31590D03*
G54D15*
X101630Y-31590D03*
G54D14*
X99540Y-31550D03*
G54D15*
X98540Y-31550D03*
G54D14*
X95410Y-31570D03*
G54D15*
X94410Y-31570D03*
G54D23*
X108100Y-35200D03*
G54D24*
X108100Y-38000D03*
G54D23*
X108100Y-36600D03*
X106500Y-35950D03*
X106500Y-37250D03*
G54D25*
X116200Y-42865D03*
X116200Y-44834D03*
X116200Y-40897D03*
X116200Y-46802D03*
X116200Y-36215D03*
X116200Y-38184D03*
G54D26*
X88680Y-31370D03*
G54D27*
X88680Y-32370D03*
X88680Y-33370D03*
X88680Y-34370D03*
X91680Y-34370D03*
X91680Y-33370D03*
X91680Y-32370D03*
X91680Y-31370D03*
G54D19*
X97490Y-48430D03*
G54D20*
X98490Y-48430D03*
X98490Y-45430D03*
X97490Y-45430D03*
G54D19*
X87840Y-48450D03*
G54D20*
X88840Y-48450D03*
X88840Y-45450D03*
X87840Y-45450D03*
G54D19*
X85630Y-48430D03*
G54D20*
X86630Y-48430D03*
X86630Y-45430D03*
X85630Y-45430D03*
G54D19*
X105230Y-45450D03*
G54D20*
X104230Y-45450D03*
X104230Y-48450D03*
X105230Y-48450D03*
G54D19*
X91060Y-45460D03*
G54D20*
X90060Y-45460D03*
X90060Y-48460D03*
X91060Y-48460D03*
X97870Y-38230D03*
X96870Y-38230D03*
X95870Y-38230D03*
X94870Y-38230D03*
X93870Y-38230D03*
X92870Y-38230D03*
X91870Y-38230D03*
X90870Y-38230D03*
X89870Y-38230D03*
X88870Y-38230D03*
X87870Y-38230D03*
X86870Y-38230D03*
X85870Y-38230D03*
G54D19*
X98870Y-38230D03*
G54D20*
X85870Y-41230D03*
X86870Y-41230D03*
X87870Y-41230D03*
X88870Y-41230D03*
X89870Y-41230D03*
X90870Y-41230D03*
X91870Y-41230D03*
X92870Y-41230D03*
X93870Y-41230D03*
X94870Y-41230D03*
X95870Y-41230D03*
X96870Y-41230D03*
X97870Y-41230D03*
X98870Y-41230D03*
G54D28*
X109100Y-41650D03*
X108100Y-40650D03*
X110100Y-40650D03*
G54D29*
X108097Y-45151D03*
X108097Y-42592D03*
X108097Y-42848D03*
X108097Y-43104D03*
X108097Y-43360D03*
X108097Y-43616D03*
X108097Y-43872D03*
X108097Y-44127D03*
X108097Y-44383D03*
X108097Y-44639D03*
X108097Y-44895D03*
X110302Y-42336D03*
X110302Y-42592D03*
X108097Y-45663D03*
X108097Y-45407D03*
X110302Y-42848D03*
X110302Y-43104D03*
X110302Y-43360D03*
X110302Y-43616D03*
X110302Y-43872D03*
X110302Y-44127D03*
X110302Y-44383D03*
X108097Y-42336D03*
X110302Y-44639D03*
X110302Y-44895D03*
X110302Y-45663D03*
X110302Y-45407D03*
X110302Y-45151D03*
G54D30*
X109200Y-44000D03*
G54D13*
X113700Y-47600D03*
X115000Y-47600D03*
G54D12*
X87550Y-33490D03*
X87550Y-32190D03*
X92880Y-32200D03*
X92880Y-30900D03*
G54D31*
X116500Y-28500D03*
X85500Y-54000D03*
X85500Y-28500D03*
X116500Y-54000D03*
G54D32*
X83200Y-42855D03*
X83200Y-44233D03*
X83200Y-45611D03*
X83200Y-46988D03*
X83200Y-48366D03*
X83200Y-49744D03*
X83200Y-51122D03*
X83200Y-52500D03*
X83200Y-31115D03*
X83200Y-32493D03*
X83200Y-33871D03*
X83200Y-35248D03*
X83200Y-36626D03*
X83200Y-38004D03*
X83200Y-39382D03*
X83200Y-40760D03*
G54D33*
X86340Y-42080D03*
X103900Y-42800D03*
X101640Y-43120D03*
X107140Y-46100D03*
X86560Y-35080D03*
X105400Y-41220D03*
X100180Y-42120D03*
X104100Y-42140D03*
X100940Y-42700D03*
X86610Y-33530D03*
X93100Y-39830D03*
G54D34*
X108450Y-39300D02*
X108950Y-39800D01*
X108950Y-40950D02*
X107981Y-41918D01*
X108950Y-39800D02*
X108950Y-40950D01*
X107000Y-41800D02*
X107863Y-41800D01*
X108100Y-42336D02*
X108097Y-42336D01*
X108100Y-42036D02*
X108100Y-42336D01*
X107863Y-41800D02*
X107930Y-41866D01*
X107930Y-41866D02*
X107981Y-41918D01*
X107981Y-41918D02*
X108100Y-42036D01*
G54D35*
X113700Y-47600D02*
X113700Y-45700D01*
G54D34*
X114550Y-46250D02*
X114000Y-45700D01*
X110302Y-44900D02*
X110302Y-44895D01*
X110800Y-44900D02*
X110302Y-44900D01*
X111600Y-45700D02*
X110800Y-44900D01*
X114000Y-45700D02*
X113700Y-45700D01*
X113700Y-45700D02*
X111600Y-45700D01*
X115050Y-38250D02*
X116200Y-38250D01*
X116200Y-38250D02*
X116200Y-38184D01*
X110302Y-43104D02*
X110690Y-43104D01*
X110690Y-43104D02*
X112054Y-41740D01*
X112054Y-41740D02*
X112054Y-40300D01*
X112054Y-40300D02*
X112050Y-40300D01*
G54D35*
X102550Y-40700D02*
X104030Y-39220D01*
X104800Y-39220D02*
X104800Y-39200D01*
X104030Y-39220D02*
X104800Y-39220D01*
X83200Y-35248D02*
X82231Y-34280D01*
X92320Y-30300D02*
X92320Y-30940D01*
X82851Y-30300D02*
X92320Y-30300D01*
X82231Y-30920D02*
X82851Y-30300D01*
X82231Y-34280D02*
X82231Y-30920D01*
X85533Y-40460D02*
X90870Y-40460D01*
X85140Y-40853D02*
X85533Y-40460D01*
X85140Y-41600D02*
X85140Y-40853D01*
X85620Y-42080D02*
X85140Y-41600D01*
X86340Y-42080D02*
X85620Y-42080D01*
X90870Y-40460D02*
X90880Y-40460D01*
X90880Y-40460D02*
X90870Y-40460D01*
X99794Y-46240D02*
X105120Y-46240D01*
X106390Y-48740D02*
X106390Y-48850D01*
X105780Y-48740D02*
X106390Y-48740D01*
X105780Y-48000D02*
X105780Y-48740D01*
X105620Y-47840D02*
X105780Y-48000D01*
X105620Y-46740D02*
X105620Y-47840D01*
X105120Y-46240D02*
X105620Y-46740D01*
X109190Y-46380D02*
X109190Y-47220D01*
X109210Y-48850D02*
X108730Y-48850D01*
X109660Y-48400D02*
X109210Y-48850D01*
X109660Y-47690D02*
X109660Y-48400D01*
X109190Y-47220D02*
X109660Y-47690D01*
X107570Y-48850D02*
X106390Y-48850D01*
X108730Y-48850D02*
X107570Y-48850D01*
X92270Y-45430D02*
X93270Y-45430D01*
X99794Y-45432D02*
X99794Y-46240D01*
X99794Y-46240D02*
X99794Y-46260D01*
X99086Y-46260D02*
X99794Y-46260D01*
X96130Y-46260D02*
X99086Y-46260D01*
X90870Y-41230D02*
X90870Y-40460D01*
X90870Y-40460D02*
X90870Y-39330D01*
X92470Y-39330D02*
X90870Y-39330D01*
X92870Y-38930D02*
X92470Y-39330D01*
X92870Y-38230D02*
X92870Y-38930D01*
X91680Y-31370D02*
X92110Y-30940D01*
X92880Y-30940D02*
X92880Y-30900D01*
X92110Y-30940D02*
X92320Y-30940D01*
X92320Y-30940D02*
X92880Y-30940D01*
X101640Y-39140D02*
X101640Y-37330D01*
X102550Y-40700D02*
X102550Y-39970D01*
X101640Y-39140D02*
X101640Y-39576D01*
X101640Y-39576D02*
X102033Y-39970D01*
X102033Y-39970D02*
X102550Y-39970D01*
X102170Y-36800D02*
X102400Y-36800D01*
X101640Y-37330D02*
X102170Y-36800D01*
X90870Y-41230D02*
X91560Y-41920D01*
G54D34*
X92940Y-42210D02*
X92940Y-42490D01*
G54D35*
X92650Y-41920D02*
X92940Y-42210D01*
X91560Y-41920D02*
X92650Y-41920D01*
X99794Y-45432D02*
X100794Y-45432D01*
X93270Y-45430D02*
X94100Y-46260D01*
X94100Y-46260D02*
X96130Y-46260D01*
X96250Y-46770D02*
X96430Y-46770D01*
X96250Y-46260D02*
X96250Y-46770D01*
X96130Y-46260D02*
X96250Y-46260D01*
X104800Y-39200D02*
X105900Y-39200D01*
X106500Y-35950D02*
X104700Y-35950D01*
X104700Y-35950D02*
X103850Y-36800D01*
X103850Y-36800D02*
X102400Y-36800D01*
G54D34*
X94870Y-41230D02*
X95710Y-40390D01*
X101360Y-41690D02*
X101400Y-41690D01*
X100060Y-40390D02*
X101360Y-41690D01*
X95710Y-40390D02*
X100060Y-40390D01*
X101400Y-41690D02*
X102550Y-41690D01*
X102550Y-41690D02*
X102550Y-41700D01*
X102550Y-41700D02*
X102550Y-43113D01*
X108097Y-43350D02*
X108097Y-43360D01*
X102786Y-43350D02*
X108097Y-43350D01*
X102550Y-43113D02*
X102786Y-43350D01*
X108097Y-43616D02*
X95360Y-43616D01*
X94270Y-44706D02*
X94270Y-45430D01*
X95360Y-43616D02*
X94270Y-44706D01*
X108097Y-43872D02*
X98600Y-43872D01*
X97490Y-44982D02*
X97490Y-45430D01*
X98600Y-43872D02*
X97490Y-44982D01*
X97490Y-45430D02*
X96430Y-45430D01*
X96430Y-45430D02*
X96430Y-45470D01*
X91060Y-45460D02*
X91980Y-44540D01*
X108097Y-43100D02*
X108097Y-43104D01*
X104680Y-43100D02*
X108097Y-43100D01*
X104380Y-42800D02*
X104680Y-43100D01*
X103900Y-42800D02*
X104380Y-42800D01*
X101640Y-43220D02*
X101640Y-43120D01*
X95180Y-43220D02*
X101640Y-43220D01*
X93860Y-44540D02*
X95180Y-43220D01*
X91980Y-44540D02*
X93860Y-44540D01*
X108097Y-45407D02*
X107540Y-45407D01*
X107140Y-45807D02*
X107140Y-46100D01*
X107540Y-45407D02*
X107140Y-45807D01*
X107420Y-46380D02*
X107890Y-46380D01*
X107140Y-46100D02*
X107420Y-46380D01*
X108097Y-44639D02*
X107080Y-44639D01*
X106390Y-47790D02*
X106390Y-47850D01*
X105920Y-47320D02*
X106390Y-47790D01*
X105920Y-45799D02*
X105920Y-47320D01*
X107080Y-44639D02*
X105920Y-45799D01*
X106380Y-47850D02*
X106390Y-47850D01*
X108097Y-44895D02*
X107280Y-44895D01*
X107545Y-47850D02*
X107570Y-47850D01*
X106160Y-46464D02*
X107545Y-47850D01*
X106160Y-46015D02*
X106160Y-46464D01*
X107280Y-44895D02*
X106160Y-46015D01*
X108097Y-45151D02*
X107436Y-45151D01*
X108720Y-47850D02*
X108730Y-47850D01*
X108720Y-47380D02*
X108720Y-47850D01*
X108400Y-47060D02*
X108720Y-47380D01*
X107480Y-47060D02*
X108400Y-47060D01*
X106560Y-46140D02*
X107480Y-47060D01*
X106560Y-46027D02*
X106560Y-46140D01*
X107436Y-45151D02*
X106560Y-46027D01*
X88870Y-41230D02*
X88870Y-42490D01*
X88870Y-42490D02*
X88940Y-42490D01*
X87870Y-41230D02*
X87870Y-42490D01*
X87870Y-42490D02*
X87940Y-42490D01*
X85870Y-38230D02*
X85870Y-33046D01*
X88680Y-32810D02*
X88680Y-32800D01*
X86106Y-32810D02*
X88680Y-32810D01*
X85870Y-33046D02*
X86106Y-32810D01*
X88680Y-32370D02*
X88680Y-32800D01*
X88680Y-32800D02*
X88680Y-33370D01*
X110302Y-42592D02*
X110302Y-42848D01*
X110302Y-42592D02*
X109500Y-42592D01*
X109100Y-42192D02*
X109100Y-41650D01*
X109500Y-42592D02*
X109100Y-42192D01*
X91680Y-33370D02*
X91190Y-33860D01*
X87080Y-35080D02*
X86560Y-35080D01*
X88300Y-33860D02*
X87080Y-35080D01*
X91190Y-33860D02*
X88300Y-33860D01*
X92880Y-32200D02*
X93370Y-32690D01*
X93370Y-32690D02*
X93370Y-33190D01*
X91680Y-33370D02*
X93370Y-33370D01*
X93370Y-33370D02*
X93370Y-33190D01*
X85630Y-45430D02*
X87140Y-43920D01*
X105900Y-41220D02*
X105900Y-41200D01*
X105400Y-41220D02*
X105900Y-41220D01*
X100180Y-42140D02*
X100180Y-42120D01*
X95200Y-42140D02*
X100180Y-42140D01*
X93420Y-43920D02*
X95200Y-42140D01*
X87140Y-43920D02*
X93420Y-43920D01*
X105900Y-40500D02*
X105900Y-41200D01*
X105900Y-41200D02*
X105900Y-41330D01*
X105900Y-41330D02*
X105900Y-41480D01*
X105900Y-41480D02*
X105900Y-41910D01*
X105900Y-41910D02*
X105900Y-42363D01*
X108097Y-42600D02*
X108097Y-42592D01*
X106136Y-42600D02*
X108097Y-42600D01*
X105900Y-42363D02*
X106136Y-42600D01*
X83200Y-32493D02*
X87550Y-32493D01*
X87550Y-32493D02*
X87550Y-32190D01*
X87550Y-32190D02*
X87865Y-31875D01*
X90995Y-32370D02*
X91680Y-32370D01*
X90500Y-31875D02*
X90995Y-32370D01*
X87865Y-31875D02*
X90500Y-31875D01*
X97870Y-38230D02*
X96320Y-36680D01*
X96320Y-36190D02*
X96370Y-36190D01*
X96320Y-36680D02*
X96320Y-36190D01*
X89870Y-41230D02*
X89870Y-42490D01*
X89870Y-42490D02*
X89940Y-42490D01*
X87840Y-45450D02*
X89000Y-44290D01*
X104800Y-42140D02*
X104800Y-42200D01*
X104100Y-42140D02*
X104800Y-42140D01*
X100940Y-42640D02*
X100940Y-42700D01*
X95290Y-42640D02*
X100940Y-42640D01*
X95110Y-42820D02*
X95290Y-42640D01*
X93640Y-44290D02*
X95110Y-42820D01*
X89000Y-44290D02*
X93640Y-44290D01*
X104800Y-40500D02*
X104800Y-41980D01*
X104800Y-42270D02*
X104800Y-42400D01*
X104800Y-41980D02*
X104800Y-42200D01*
X104800Y-42200D02*
X104800Y-42270D01*
X104800Y-42400D02*
X104800Y-42613D01*
X104800Y-42613D02*
X105036Y-42850D01*
X105036Y-42850D02*
X108097Y-42850D01*
X108097Y-42850D02*
X108097Y-42848D01*
X108097Y-44127D02*
X102740Y-44127D01*
X101794Y-45073D02*
X101794Y-45432D01*
X102740Y-44127D02*
X101794Y-45073D01*
X88680Y-34370D02*
X90340Y-34370D01*
X95330Y-36190D02*
X95370Y-36190D01*
X95330Y-35506D02*
X95330Y-36190D01*
X94953Y-35130D02*
X95330Y-35506D01*
X91100Y-35130D02*
X94953Y-35130D01*
X90340Y-34370D02*
X91100Y-35130D01*
X96870Y-38230D02*
X95370Y-36730D01*
X95370Y-36730D02*
X95370Y-36190D01*
G54D35*
X83200Y-36626D02*
X85956Y-39383D01*
X100500Y-35010D02*
X99360Y-35010D01*
X99160Y-35210D02*
X99160Y-35190D01*
X99170Y-35200D02*
X99160Y-35210D01*
X99360Y-35010D02*
X99170Y-35200D01*
X103550Y-34400D02*
X102940Y-35010D01*
X102940Y-35010D02*
X100500Y-35010D01*
X86630Y-45430D02*
X85780Y-46280D01*
X85780Y-46280D02*
X85133Y-46280D01*
X85133Y-46280D02*
X84740Y-45886D01*
X84740Y-45886D02*
X84740Y-40600D01*
X84740Y-40600D02*
X85780Y-39560D01*
X85780Y-39560D02*
X85956Y-39383D01*
X85956Y-39383D02*
X86200Y-39140D01*
X86200Y-39140D02*
X86400Y-38940D01*
X86400Y-38940D02*
X91580Y-38940D01*
X91580Y-38940D02*
X91870Y-38650D01*
X91870Y-38650D02*
X91870Y-38230D01*
X93100Y-39830D02*
X99326Y-39830D01*
X99326Y-39830D02*
X99720Y-39436D01*
X99720Y-39436D02*
X99720Y-36900D01*
X99720Y-36900D02*
X99370Y-36550D01*
X99370Y-36550D02*
X99370Y-36190D01*
G54D34*
X114050Y-40300D02*
X114050Y-39300D01*
X114400Y-39300D02*
X114050Y-39300D01*
X114050Y-39300D02*
X109750Y-39300D01*
X114400Y-39300D02*
X117100Y-39300D01*
X108097Y-45663D02*
X108610Y-45663D01*
X109200Y-45073D02*
X109200Y-44000D01*
X108610Y-45663D02*
X109200Y-45073D01*
G54D35*
X86610Y-33490D02*
X86610Y-33530D01*
X87550Y-33490D02*
X86610Y-33490D01*
X102794Y-45432D02*
X104230Y-45432D01*
X104230Y-45432D02*
X104230Y-45450D01*
X108100Y-35200D02*
X108100Y-36600D01*
X105325Y-35200D02*
X108100Y-35200D01*
X91680Y-34370D02*
X98340Y-34370D01*
X98340Y-34370D02*
X99160Y-35190D01*
X99340Y-36190D02*
X99370Y-36190D01*
X99160Y-35190D02*
X99340Y-35370D01*
X99340Y-35370D02*
X99340Y-36190D01*
X92860Y-41230D02*
X92870Y-41230D01*
X92860Y-40070D02*
X92860Y-41230D01*
X93100Y-39830D02*
X92860Y-40070D01*
X114750Y-43200D02*
X115990Y-41960D01*
X115990Y-41960D02*
X117100Y-41960D01*
X114650Y-44650D02*
X115810Y-45810D01*
X115810Y-45810D02*
X117100Y-45810D01*
X116200Y-36215D02*
X117100Y-37115D01*
X117100Y-37115D02*
X117100Y-39300D01*
X117100Y-39300D02*
X117100Y-39370D01*
X115000Y-47690D02*
X115000Y-47600D01*
X115610Y-47690D02*
X115000Y-47690D01*
X116706Y-47690D02*
X115610Y-47690D01*
X117100Y-47296D02*
X116706Y-47690D01*
X117100Y-39370D02*
X117100Y-41960D01*
X117100Y-41960D02*
X117100Y-45810D01*
X117100Y-45810D02*
X117100Y-47296D01*
X112250Y-34750D02*
X112620Y-34380D01*
X112620Y-34380D02*
X115816Y-34380D01*
X115816Y-34380D02*
X116210Y-34773D01*
X116210Y-34773D02*
X116210Y-36215D01*
X116210Y-36215D02*
X116200Y-36215D01*
X109400Y-36150D02*
X110800Y-34750D01*
X110800Y-34750D02*
X112250Y-34750D01*
X108100Y-36600D02*
X109400Y-36600D01*
X109400Y-36600D02*
X109400Y-36150D01*
G54D34*
X110302Y-42336D02*
X110302Y-41500D01*
X110302Y-41500D02*
X110302Y-41100D01*
X110302Y-41100D02*
X110100Y-40897D01*
X110100Y-40897D02*
X110100Y-40650D01*
G54D35*
X83200Y-48366D02*
X85020Y-50186D01*
X94270Y-49416D02*
X94270Y-48430D01*
X93500Y-50186D02*
X94270Y-49416D01*
X85020Y-50186D02*
X93500Y-50186D01*
X88840Y-48450D02*
X90060Y-48450D01*
X90060Y-48450D02*
X90060Y-48460D01*
X101794Y-48432D02*
X101794Y-47320D01*
X98490Y-48430D02*
X98490Y-47320D01*
X94270Y-48430D02*
X94270Y-47320D01*
X90060Y-48460D02*
X90060Y-47320D01*
X88840Y-48450D02*
X88840Y-47320D01*
X104230Y-48450D02*
X103100Y-47320D01*
X103100Y-47320D02*
X101794Y-47320D01*
X101794Y-47320D02*
X98490Y-47320D01*
X86630Y-47790D02*
X86630Y-48430D01*
X87100Y-47320D02*
X86630Y-47790D01*
X98490Y-47320D02*
X94270Y-47320D01*
X94270Y-47320D02*
X90060Y-47320D01*
X90060Y-47320D02*
X88840Y-47320D01*
X88840Y-47320D02*
X87100Y-47320D01*
G54D34*
X83200Y-45611D02*
X84820Y-47231D01*
X91060Y-48760D02*
X91060Y-48460D01*
X90400Y-49420D02*
X91060Y-48760D01*
X85280Y-49420D02*
X90400Y-49420D01*
X84820Y-48960D02*
X85280Y-49420D01*
X84820Y-47231D02*
X84820Y-48960D01*
X95410Y-31570D02*
X95410Y-33190D01*
X95410Y-33190D02*
X95370Y-33190D01*
X99370Y-33190D02*
X99370Y-31550D01*
X99370Y-31550D02*
X99540Y-31550D01*
X89870Y-38230D02*
X89380Y-37740D01*
X89380Y-37740D02*
X89380Y-36560D01*
X90870Y-38230D02*
X91400Y-37700D01*
X91400Y-36560D02*
X91380Y-36560D01*
X91400Y-37700D02*
X91400Y-36560D01*
X101630Y-31590D02*
X101220Y-32000D01*
X98370Y-33893D02*
X98370Y-33190D01*
X98606Y-34130D02*
X98370Y-33893D01*
X100983Y-34130D02*
X98606Y-34130D01*
X101220Y-33893D02*
X100983Y-34130D01*
X101220Y-32000D02*
X101220Y-33893D01*
X110302Y-44127D02*
X114900Y-44127D01*
X115606Y-44834D02*
X116200Y-44834D01*
X114900Y-44127D02*
X115606Y-44834D01*
X110302Y-45407D02*
X109860Y-45407D01*
X110170Y-47630D02*
X110580Y-47630D01*
X109720Y-47180D02*
X110170Y-47630D01*
X109720Y-45547D02*
X109720Y-47180D01*
X109860Y-45407D02*
X109720Y-45547D01*
X110580Y-46330D02*
X110302Y-46052D01*
X110302Y-46052D02*
X110302Y-45663D01*
X110302Y-43360D02*
X110800Y-43360D01*
X115952Y-40897D02*
X116200Y-40897D01*
X114300Y-42550D02*
X115952Y-40897D01*
X111610Y-42550D02*
X114300Y-42550D01*
X110800Y-43360D02*
X111610Y-42550D01*
X110302Y-43872D02*
X114900Y-43872D01*
X115906Y-42865D02*
X116200Y-42865D01*
X114900Y-43872D02*
X115906Y-42865D01*
X110302Y-45151D02*
X110700Y-45151D01*
X111550Y-46001D02*
X111550Y-46250D01*
X111300Y-45751D02*
X111550Y-46001D01*
X110700Y-45151D02*
X111300Y-45751D01*
X110302Y-44639D02*
X110900Y-44639D01*
X116200Y-46800D02*
X116200Y-46802D01*
X114739Y-45339D02*
X116200Y-46800D01*
X111600Y-45339D02*
X114739Y-45339D01*
X110900Y-44639D02*
X111600Y-45339D01*
X100630Y-31590D02*
X100630Y-33190D01*
X100630Y-33190D02*
X100370Y-33190D01*
X110302Y-43616D02*
X111050Y-43616D01*
X111750Y-43216D02*
X111750Y-43200D01*
X111350Y-43616D02*
X111750Y-43216D01*
X111050Y-43616D02*
X111350Y-43616D01*
X107000Y-40500D02*
X108100Y-40500D01*
X108100Y-40500D02*
X108100Y-40650D01*
X110302Y-44383D02*
X111200Y-44383D01*
X111650Y-44633D02*
X111650Y-44650D01*
X111400Y-44383D02*
X111650Y-44633D01*
X111200Y-44383D02*
X111400Y-44383D01*
X96370Y-33190D02*
X96370Y-31460D01*
X96370Y-31460D02*
X96480Y-31460D01*
G54D35*
X102400Y-38800D02*
X103000Y-38200D01*
X103000Y-38200D02*
X105325Y-38200D01*
G54D34*
X105325Y-38200D02*
X105325Y-37633D01*
G54D35*
X106500Y-37240D02*
X106500Y-37250D01*
X105718Y-37240D02*
X106500Y-37240D01*
X105325Y-37633D02*
X105718Y-37240D01*
G54D34*
X105250Y-48450D02*
X105230Y-48450D01*
X105250Y-48450D02*
X105230Y-48450D01*
X97480Y-31460D02*
X97480Y-33190D01*
X97480Y-33190D02*
X97370Y-33190D01*
G54D35*
X109400Y-38150D02*
X110800Y-36750D01*
X110800Y-36750D02*
X112250Y-36750D01*
X108100Y-38000D02*
X108910Y-38000D01*
X108910Y-38150D02*
X109400Y-38150D01*
X108910Y-38000D02*
X108910Y-38150D01*
X112250Y-36750D02*
X113750Y-35250D01*
X113750Y-35250D02*
X115050Y-35250D01*
G54D10*
G36*
X87682Y-34040D02*
X87500Y-34222D01*
X87500Y-33977D01*
X87500Y-33540D01*
X86962Y-33540D01*
X86900Y-33602D01*
X86899Y-33839D01*
X86937Y-33931D01*
X87008Y-34001D01*
X87100Y-34039D01*
X87199Y-34040D01*
X87437Y-34040D01*
X87500Y-33977D01*
X87500Y-34222D01*
X86959Y-34763D01*
X86846Y-34651D01*
X86661Y-34574D01*
X86459Y-34574D01*
X86273Y-34650D01*
X86179Y-34745D01*
X86179Y-33174D01*
X86234Y-33119D01*
X86908Y-33119D01*
X86899Y-33140D01*
X86900Y-33377D01*
X86962Y-33440D01*
X87500Y-33440D01*
X87500Y-33432D01*
X87600Y-33432D01*
X87600Y-33440D01*
X87607Y-33440D01*
X87607Y-33540D01*
X87600Y-33540D01*
X87600Y-33977D01*
X87662Y-34040D01*
X87682Y-34040D01*
X87682Y-34040D01*
G37*
G54D36*
X87682Y-34040D02*
X87500Y-34222D01*
X87500Y-33977D01*
X87500Y-33540D01*
X86962Y-33540D01*
X86900Y-33602D01*
X86899Y-33839D01*
X86937Y-33931D01*
X87008Y-34001D01*
X87100Y-34039D01*
X87199Y-34040D01*
X87437Y-34040D01*
X87500Y-33977D01*
X87500Y-34222D01*
X86959Y-34763D01*
X86846Y-34651D01*
X86661Y-34574D01*
X86459Y-34574D01*
X86273Y-34650D01*
X86179Y-34745D01*
X86179Y-33174D01*
X86234Y-33119D01*
X86908Y-33119D01*
X86899Y-33140D01*
X86900Y-33377D01*
X86962Y-33440D01*
X87500Y-33440D01*
X87500Y-33432D01*
X87600Y-33432D01*
X87600Y-33440D01*
X87607Y-33440D01*
X87607Y-33540D01*
X87600Y-33540D01*
X87600Y-33977D01*
X87662Y-34040D01*
X87682Y-34040D01*
G54D10*
G36*
X98109Y-43925D02*
X97276Y-44758D01*
X97275Y-44758D01*
X97094Y-44880D01*
X97013Y-45000D01*
X96971Y-44958D01*
X96879Y-44920D01*
X96780Y-44919D01*
X95980Y-44919D01*
X95888Y-44957D01*
X95818Y-45028D01*
X95788Y-45099D01*
X95768Y-45029D01*
X95630Y-44858D01*
X95438Y-44753D01*
X95406Y-44746D01*
X95320Y-44795D01*
X95320Y-45380D01*
X95327Y-45380D01*
X95327Y-45480D01*
X95320Y-45480D01*
X95320Y-45487D01*
X95220Y-45487D01*
X95220Y-45480D01*
X95212Y-45480D01*
X95212Y-45380D01*
X95220Y-45380D01*
X95220Y-44795D01*
X95133Y-44746D01*
X95101Y-44753D01*
X94909Y-44858D01*
X94771Y-45029D01*
X94769Y-45035D01*
X94665Y-44880D01*
X94586Y-44827D01*
X95488Y-43925D01*
X98109Y-43925D01*
X98109Y-43925D01*
G37*
G54D36*
X98109Y-43925D02*
X97276Y-44758D01*
X97275Y-44758D01*
X97094Y-44880D01*
X97013Y-45000D01*
X96971Y-44958D01*
X96879Y-44920D01*
X96780Y-44919D01*
X95980Y-44919D01*
X95888Y-44957D01*
X95818Y-45028D01*
X95788Y-45099D01*
X95768Y-45029D01*
X95630Y-44858D01*
X95438Y-44753D01*
X95406Y-44746D01*
X95320Y-44795D01*
X95320Y-45380D01*
X95327Y-45380D01*
X95327Y-45480D01*
X95320Y-45480D01*
X95320Y-45487D01*
X95220Y-45487D01*
X95220Y-45480D01*
X95212Y-45480D01*
X95212Y-45380D01*
X95220Y-45380D01*
X95220Y-44795D01*
X95133Y-44746D01*
X95101Y-44753D01*
X94909Y-44858D01*
X94771Y-45029D01*
X94769Y-45035D01*
X94665Y-44880D01*
X94586Y-44827D01*
X95488Y-43925D01*
X98109Y-43925D01*
G54D10*
G36*
X102249Y-44181D02*
X101692Y-44738D01*
X101579Y-44760D01*
X101398Y-44882D01*
X101294Y-45037D01*
X101189Y-44882D01*
X101008Y-44760D01*
X100794Y-44718D01*
X100579Y-44760D01*
X100398Y-44882D01*
X100294Y-45037D01*
X100189Y-44882D01*
X100008Y-44760D01*
X99794Y-44718D01*
X99579Y-44760D01*
X99398Y-44882D01*
X99276Y-45063D01*
X99234Y-45278D01*
X99234Y-45585D01*
X99276Y-45800D01*
X99351Y-45911D01*
X99086Y-45911D01*
X98922Y-45911D01*
X98988Y-45830D01*
X99050Y-45620D01*
X99050Y-45480D01*
X99050Y-45380D01*
X99050Y-45240D01*
X98988Y-45029D01*
X98850Y-44858D01*
X98658Y-44753D01*
X98626Y-44746D01*
X98540Y-44795D01*
X98540Y-45380D01*
X99050Y-45380D01*
X99050Y-45480D01*
X98540Y-45480D01*
X98540Y-45487D01*
X98440Y-45487D01*
X98440Y-45480D01*
X98432Y-45480D01*
X98432Y-45380D01*
X98440Y-45380D01*
X98440Y-44795D01*
X98353Y-44746D01*
X98321Y-44753D01*
X98129Y-44858D01*
X97991Y-45029D01*
X97989Y-45035D01*
X97943Y-44965D01*
X98728Y-44181D01*
X102249Y-44181D01*
X102249Y-44181D01*
G37*
G54D36*
X102249Y-44181D02*
X101692Y-44738D01*
X101579Y-44760D01*
X101398Y-44882D01*
X101294Y-45037D01*
X101189Y-44882D01*
X101008Y-44760D01*
X100794Y-44718D01*
X100579Y-44760D01*
X100398Y-44882D01*
X100294Y-45037D01*
X100189Y-44882D01*
X100008Y-44760D01*
X99794Y-44718D01*
X99579Y-44760D01*
X99398Y-44882D01*
X99276Y-45063D01*
X99234Y-45278D01*
X99234Y-45585D01*
X99276Y-45800D01*
X99351Y-45911D01*
X99086Y-45911D01*
X98922Y-45911D01*
X98988Y-45830D01*
X99050Y-45620D01*
X99050Y-45480D01*
X99050Y-45380D01*
X99050Y-45240D01*
X98988Y-45029D01*
X98850Y-44858D01*
X98658Y-44753D01*
X98626Y-44746D01*
X98540Y-44795D01*
X98540Y-45380D01*
X99050Y-45380D01*
X99050Y-45480D01*
X98540Y-45480D01*
X98540Y-45487D01*
X98440Y-45487D01*
X98440Y-45480D01*
X98432Y-45480D01*
X98432Y-45380D01*
X98440Y-45380D01*
X98440Y-44795D01*
X98353Y-44746D01*
X98321Y-44753D01*
X98129Y-44858D01*
X97991Y-45029D01*
X97989Y-45035D01*
X97943Y-44965D01*
X98728Y-44181D01*
X102249Y-44181D01*
G54D10*
G36*
X106845Y-44437D02*
X105790Y-45492D01*
X105790Y-44950D01*
X105752Y-44858D01*
X105681Y-44788D01*
X105589Y-44750D01*
X105490Y-44749D01*
X104870Y-44749D01*
X104778Y-44787D01*
X104708Y-44858D01*
X104670Y-44950D01*
X104670Y-44977D01*
X104590Y-44878D01*
X104398Y-44773D01*
X104366Y-44766D01*
X104280Y-44815D01*
X104280Y-45400D01*
X104287Y-45400D01*
X104287Y-45500D01*
X104280Y-45500D01*
X104280Y-45507D01*
X104180Y-45507D01*
X104180Y-45500D01*
X104180Y-45400D01*
X104180Y-44815D01*
X104093Y-44766D01*
X104061Y-44773D01*
X103869Y-44878D01*
X103731Y-45049D01*
X103670Y-45260D01*
X103670Y-45400D01*
X104180Y-45400D01*
X104180Y-45500D01*
X103670Y-45500D01*
X103670Y-45640D01*
X103731Y-45850D01*
X103764Y-45891D01*
X103244Y-45891D01*
X103292Y-45832D01*
X103354Y-45622D01*
X103354Y-45482D01*
X103354Y-45382D01*
X103354Y-45242D01*
X103292Y-45031D01*
X103154Y-44860D01*
X102962Y-44755D01*
X102930Y-44748D01*
X102844Y-44797D01*
X102844Y-45382D01*
X103354Y-45382D01*
X103354Y-45482D01*
X102844Y-45482D01*
X102844Y-45489D01*
X102744Y-45489D01*
X102744Y-45482D01*
X102736Y-45482D01*
X102736Y-45382D01*
X102744Y-45382D01*
X102744Y-44797D01*
X102657Y-44748D01*
X102625Y-44755D01*
X102457Y-44847D01*
X102868Y-44437D01*
X106845Y-44437D01*
X106845Y-44437D01*
G37*
G54D36*
X106845Y-44437D02*
X105790Y-45492D01*
X105790Y-44950D01*
X105752Y-44858D01*
X105681Y-44788D01*
X105589Y-44750D01*
X105490Y-44749D01*
X104870Y-44749D01*
X104778Y-44787D01*
X104708Y-44858D01*
X104670Y-44950D01*
X104670Y-44977D01*
X104590Y-44878D01*
X104398Y-44773D01*
X104366Y-44766D01*
X104280Y-44815D01*
X104280Y-45400D01*
X104287Y-45400D01*
X104287Y-45500D01*
X104280Y-45500D01*
X104280Y-45507D01*
X104180Y-45507D01*
X104180Y-45500D01*
X104180Y-45400D01*
X104180Y-44815D01*
X104093Y-44766D01*
X104061Y-44773D01*
X103869Y-44878D01*
X103731Y-45049D01*
X103670Y-45260D01*
X103670Y-45400D01*
X104180Y-45400D01*
X104180Y-45500D01*
X103670Y-45500D01*
X103670Y-45640D01*
X103731Y-45850D01*
X103764Y-45891D01*
X103244Y-45891D01*
X103292Y-45832D01*
X103354Y-45622D01*
X103354Y-45482D01*
X103354Y-45382D01*
X103354Y-45242D01*
X103292Y-45031D01*
X103154Y-44860D01*
X102962Y-44755D01*
X102930Y-44748D01*
X102844Y-44797D01*
X102844Y-45382D01*
X103354Y-45382D01*
X103354Y-45482D01*
X102844Y-45482D01*
X102844Y-45489D01*
X102744Y-45489D01*
X102744Y-45482D01*
X102736Y-45482D01*
X102736Y-45382D01*
X102744Y-45382D01*
X102744Y-44797D01*
X102657Y-44748D01*
X102625Y-44755D01*
X102457Y-44847D01*
X102868Y-44437D01*
X106845Y-44437D01*
G54D10*
G36*
X109560Y-45269D02*
X109501Y-45328D01*
X109434Y-45429D01*
X109410Y-45547D01*
X109410Y-45729D01*
X108840Y-45729D01*
X108748Y-45767D01*
X108678Y-45838D01*
X108640Y-45930D01*
X108639Y-46029D01*
X108639Y-46829D01*
X108663Y-46886D01*
X108618Y-46841D01*
X108518Y-46774D01*
X108440Y-46758D01*
X108440Y-46730D01*
X108440Y-45962D01*
X108452Y-45962D01*
X108544Y-45924D01*
X108614Y-45854D01*
X108652Y-45762D01*
X108652Y-45750D01*
X108590Y-45687D01*
X108497Y-45687D01*
X108544Y-45668D01*
X108574Y-45638D01*
X108590Y-45638D01*
X108652Y-45576D01*
X108652Y-45564D01*
X108640Y-45535D01*
X108652Y-45506D01*
X108652Y-45407D01*
X108652Y-45308D01*
X108640Y-45279D01*
X108644Y-45269D01*
X109087Y-45269D01*
X109150Y-45207D01*
X109150Y-44050D01*
X109142Y-44050D01*
X109142Y-43950D01*
X109150Y-43950D01*
X109150Y-42792D01*
X109087Y-42730D01*
X108644Y-42730D01*
X108640Y-42720D01*
X108652Y-42691D01*
X108652Y-42592D01*
X108652Y-42493D01*
X108640Y-42464D01*
X108652Y-42435D01*
X108652Y-42336D01*
X108652Y-42237D01*
X108614Y-42145D01*
X108544Y-42075D01*
X108452Y-42037D01*
X108409Y-42037D01*
X108409Y-42036D01*
X108391Y-41945D01*
X108546Y-41790D01*
X108620Y-41969D01*
X108779Y-42128D01*
X108790Y-42133D01*
X108790Y-42192D01*
X108814Y-42310D01*
X108881Y-42411D01*
X109256Y-42786D01*
X109250Y-42792D01*
X109250Y-43950D01*
X109257Y-43950D01*
X109257Y-44050D01*
X109250Y-44050D01*
X109250Y-45207D01*
X109312Y-45269D01*
X109560Y-45269D01*
X109560Y-45269D01*
G37*
G54D36*
X109560Y-45269D02*
X109501Y-45328D01*
X109434Y-45429D01*
X109410Y-45547D01*
X109410Y-45729D01*
X108840Y-45729D01*
X108748Y-45767D01*
X108678Y-45838D01*
X108640Y-45930D01*
X108639Y-46029D01*
X108639Y-46829D01*
X108663Y-46886D01*
X108618Y-46841D01*
X108518Y-46774D01*
X108440Y-46758D01*
X108440Y-46730D01*
X108440Y-45962D01*
X108452Y-45962D01*
X108544Y-45924D01*
X108614Y-45854D01*
X108652Y-45762D01*
X108652Y-45750D01*
X108590Y-45687D01*
X108497Y-45687D01*
X108544Y-45668D01*
X108574Y-45638D01*
X108590Y-45638D01*
X108652Y-45576D01*
X108652Y-45564D01*
X108640Y-45535D01*
X108652Y-45506D01*
X108652Y-45407D01*
X108652Y-45308D01*
X108640Y-45279D01*
X108644Y-45269D01*
X109087Y-45269D01*
X109150Y-45207D01*
X109150Y-44050D01*
X109142Y-44050D01*
X109142Y-43950D01*
X109150Y-43950D01*
X109150Y-42792D01*
X109087Y-42730D01*
X108644Y-42730D01*
X108640Y-42720D01*
X108652Y-42691D01*
X108652Y-42592D01*
X108652Y-42493D01*
X108640Y-42464D01*
X108652Y-42435D01*
X108652Y-42336D01*
X108652Y-42237D01*
X108614Y-42145D01*
X108544Y-42075D01*
X108452Y-42037D01*
X108409Y-42037D01*
X108409Y-42036D01*
X108391Y-41945D01*
X108546Y-41790D01*
X108620Y-41969D01*
X108779Y-42128D01*
X108790Y-42133D01*
X108790Y-42192D01*
X108814Y-42310D01*
X108881Y-42411D01*
X109256Y-42786D01*
X109250Y-42792D01*
X109250Y-43950D01*
X109257Y-43950D01*
X109257Y-44050D01*
X109250Y-44050D01*
X109250Y-45207D01*
X109312Y-45269D01*
X109560Y-45269D01*
G54D10*
G36*
X117950Y-54950D02*
X117340Y-54950D01*
X117340Y-53833D01*
X117340Y-28333D01*
X117213Y-28024D01*
X116976Y-27787D01*
X116667Y-27659D01*
X116333Y-27659D01*
X116024Y-27787D01*
X115787Y-28023D01*
X115659Y-28332D01*
X115659Y-28666D01*
X115787Y-28975D01*
X116023Y-29212D01*
X116332Y-29340D01*
X116666Y-29340D01*
X116975Y-29213D01*
X117212Y-28976D01*
X117340Y-28667D01*
X117340Y-28333D01*
X117340Y-53833D01*
X117310Y-53761D01*
X117310Y-33050D01*
X117310Y-31251D01*
X103889Y-31251D01*
X103889Y-33050D01*
X117310Y-33050D01*
X117310Y-53761D01*
X117213Y-53524D01*
X116976Y-53287D01*
X116945Y-53274D01*
X116945Y-36343D01*
X116937Y-36048D01*
X116840Y-35812D01*
X116724Y-35761D01*
X116654Y-35832D01*
X116654Y-35690D01*
X116603Y-35575D01*
X116327Y-35469D01*
X116032Y-35477D01*
X115796Y-35575D01*
X115745Y-35690D01*
X116200Y-36145D01*
X116654Y-35690D01*
X116654Y-35832D01*
X116270Y-36215D01*
X116724Y-36669D01*
X116840Y-36619D01*
X116945Y-36343D01*
X116945Y-53274D01*
X116942Y-53273D01*
X116942Y-46655D01*
X116829Y-46382D01*
X116620Y-46173D01*
X116348Y-46060D01*
X116053Y-46060D01*
X115943Y-46105D01*
X114958Y-45121D01*
X114925Y-45099D01*
X114947Y-45017D01*
X114650Y-44720D01*
X114352Y-45017D01*
X114356Y-45030D01*
X112011Y-45030D01*
X112094Y-44947D01*
X112174Y-44754D01*
X112175Y-44546D01*
X112130Y-44437D01*
X114168Y-44437D01*
X114120Y-44574D01*
X114131Y-44782D01*
X114189Y-44922D01*
X114282Y-44947D01*
X114579Y-44650D01*
X114573Y-44644D01*
X114644Y-44573D01*
X114650Y-44579D01*
X114655Y-44573D01*
X114726Y-44644D01*
X114720Y-44650D01*
X115017Y-44947D01*
X115110Y-44922D01*
X115148Y-44813D01*
X115387Y-45052D01*
X115488Y-45119D01*
X115488Y-45119D01*
X115517Y-45125D01*
X115570Y-45254D01*
X115779Y-45463D01*
X116051Y-45576D01*
X116346Y-45576D01*
X116619Y-45463D01*
X116828Y-45255D01*
X116941Y-44982D01*
X116942Y-44687D01*
X116829Y-44414D01*
X116620Y-44205D01*
X116348Y-44092D01*
X116053Y-44091D01*
X115780Y-44204D01*
X115596Y-44387D01*
X115209Y-43999D01*
X115746Y-43462D01*
X115779Y-43494D01*
X116051Y-43607D01*
X116346Y-43608D01*
X116619Y-43495D01*
X116828Y-43286D01*
X116941Y-43014D01*
X116942Y-42718D01*
X116829Y-42445D01*
X116620Y-42236D01*
X116348Y-42123D01*
X116053Y-42123D01*
X115780Y-42236D01*
X115571Y-42444D01*
X115458Y-42717D01*
X115457Y-42877D01*
X115268Y-43066D01*
X115210Y-42927D01*
X115117Y-42902D01*
X114820Y-43200D01*
X114826Y-43205D01*
X114755Y-43276D01*
X114750Y-43270D01*
X114744Y-43276D01*
X114679Y-43211D01*
X114673Y-43205D01*
X114679Y-43200D01*
X114673Y-43194D01*
X114744Y-43123D01*
X114750Y-43129D01*
X115047Y-42832D01*
X115022Y-42739D01*
X114825Y-42670D01*
X114617Y-42681D01*
X114597Y-42689D01*
X115770Y-41517D01*
X115779Y-41526D01*
X116051Y-41639D01*
X116346Y-41639D01*
X116619Y-41526D01*
X116828Y-41318D01*
X116941Y-41045D01*
X116942Y-40750D01*
X116942Y-38037D01*
X116829Y-37764D01*
X116654Y-37588D01*
X116654Y-36740D01*
X116200Y-36286D01*
X116129Y-36357D01*
X116129Y-36215D01*
X115675Y-35761D01*
X115559Y-35812D01*
X115454Y-36088D01*
X115462Y-36383D01*
X115559Y-36619D01*
X115675Y-36669D01*
X116129Y-36215D01*
X116129Y-36357D01*
X115745Y-36740D01*
X115796Y-36855D01*
X116072Y-36961D01*
X116367Y-36953D01*
X116603Y-36855D01*
X116654Y-36740D01*
X116654Y-37588D01*
X116620Y-37555D01*
X116348Y-37442D01*
X116053Y-37441D01*
X115780Y-37554D01*
X115571Y-37763D01*
X115497Y-37940D01*
X115483Y-37940D01*
X115347Y-37805D01*
X115154Y-37725D01*
X114946Y-37724D01*
X114753Y-37804D01*
X114605Y-37952D01*
X114525Y-38145D01*
X114524Y-38353D01*
X114604Y-38547D01*
X114752Y-38694D01*
X114945Y-38774D01*
X115153Y-38775D01*
X115347Y-38695D01*
X115483Y-38559D01*
X115551Y-38559D01*
X115570Y-38604D01*
X115779Y-38813D01*
X116051Y-38926D01*
X116346Y-38926D01*
X116619Y-38813D01*
X116828Y-38605D01*
X116941Y-38332D01*
X116942Y-38037D01*
X116942Y-40750D01*
X116829Y-40477D01*
X116620Y-40268D01*
X116348Y-40155D01*
X116053Y-40154D01*
X115780Y-40267D01*
X115571Y-40476D01*
X115458Y-40748D01*
X115457Y-40955D01*
X114654Y-41758D01*
X114654Y-40393D01*
X114644Y-40155D01*
X114572Y-39982D01*
X114472Y-39948D01*
X114401Y-40019D01*
X114401Y-39877D01*
X114367Y-39777D01*
X114143Y-39695D01*
X113905Y-39705D01*
X113732Y-39777D01*
X113698Y-39877D01*
X114050Y-40229D01*
X114401Y-39877D01*
X114401Y-40019D01*
X114120Y-40300D01*
X114472Y-40651D01*
X114572Y-40617D01*
X114654Y-40393D01*
X114654Y-41758D01*
X114401Y-42011D01*
X114401Y-40722D01*
X114050Y-40370D01*
X113979Y-40441D01*
X113979Y-40300D01*
X113627Y-39948D01*
X113527Y-39982D01*
X113445Y-40206D01*
X113455Y-40444D01*
X113527Y-40617D01*
X113627Y-40651D01*
X113979Y-40300D01*
X113979Y-40441D01*
X113698Y-40722D01*
X113732Y-40822D01*
X113956Y-40904D01*
X114194Y-40894D01*
X114367Y-40822D01*
X114401Y-40722D01*
X114401Y-42011D01*
X114171Y-42240D01*
X111990Y-42240D01*
X112272Y-41958D01*
X112272Y-41958D01*
X112272Y-41958D01*
X112339Y-41858D01*
X112339Y-41858D01*
X112363Y-41740D01*
X112363Y-40900D01*
X112449Y-40900D01*
X112541Y-40862D01*
X112611Y-40791D01*
X112649Y-40699D01*
X112650Y-40600D01*
X112650Y-39900D01*
X112612Y-39808D01*
X112541Y-39738D01*
X112449Y-39700D01*
X112350Y-39699D01*
X111650Y-39699D01*
X111558Y-39737D01*
X111488Y-39808D01*
X111450Y-39900D01*
X111449Y-39999D01*
X111449Y-40699D01*
X111487Y-40791D01*
X111558Y-40861D01*
X111650Y-40899D01*
X111745Y-40900D01*
X111745Y-41611D01*
X110857Y-42499D01*
X110857Y-42493D01*
X110845Y-42464D01*
X110857Y-42435D01*
X110857Y-42423D01*
X110794Y-42361D01*
X110778Y-42361D01*
X110749Y-42331D01*
X110702Y-42312D01*
X110794Y-42312D01*
X110857Y-42249D01*
X110857Y-42237D01*
X110819Y-42145D01*
X110749Y-42075D01*
X110669Y-42042D01*
X110669Y-40735D01*
X110658Y-40510D01*
X110593Y-40353D01*
X110496Y-40323D01*
X110426Y-40394D01*
X110426Y-40253D01*
X110396Y-40156D01*
X110300Y-40121D01*
X110300Y-39650D01*
X110300Y-38949D01*
X110299Y-38850D01*
X110261Y-38758D01*
X110191Y-38687D01*
X110099Y-38649D01*
X109862Y-38650D01*
X109800Y-38712D01*
X109800Y-39250D01*
X110237Y-39250D01*
X110300Y-39187D01*
X110300Y-38949D01*
X110300Y-39650D01*
X110300Y-39412D01*
X110237Y-39350D01*
X109800Y-39350D01*
X109800Y-39887D01*
X109862Y-39950D01*
X110099Y-39950D01*
X110191Y-39912D01*
X110261Y-39841D01*
X110299Y-39749D01*
X110300Y-39650D01*
X110300Y-40121D01*
X110185Y-40080D01*
X109960Y-40091D01*
X109803Y-40156D01*
X109773Y-40253D01*
X110100Y-40579D01*
X110426Y-40253D01*
X110426Y-40394D01*
X110170Y-40650D01*
X110496Y-40976D01*
X110593Y-40946D01*
X110669Y-40735D01*
X110669Y-42042D01*
X110657Y-42037D01*
X110557Y-42037D01*
X110426Y-42037D01*
X110426Y-41046D01*
X110100Y-40720D01*
X110029Y-40791D01*
X110029Y-40650D01*
X109703Y-40323D01*
X109606Y-40353D01*
X109530Y-40564D01*
X109541Y-40789D01*
X109606Y-40946D01*
X109703Y-40976D01*
X110029Y-40650D01*
X110029Y-40791D01*
X109773Y-41046D01*
X109803Y-41143D01*
X110014Y-41219D01*
X110239Y-41208D01*
X110396Y-41143D01*
X110426Y-41046D01*
X110426Y-42037D01*
X110414Y-42037D01*
X110352Y-42099D01*
X110352Y-42293D01*
X110351Y-42293D01*
X110302Y-42283D01*
X110252Y-42283D01*
X110252Y-42099D01*
X110189Y-42037D01*
X110046Y-42037D01*
X109947Y-42037D01*
X109855Y-42075D01*
X109785Y-42145D01*
X109747Y-42237D01*
X109747Y-42249D01*
X109781Y-42283D01*
X109628Y-42283D01*
X109446Y-42102D01*
X109578Y-41970D01*
X109664Y-41762D01*
X109665Y-41538D01*
X109579Y-41330D01*
X109420Y-41171D01*
X109221Y-41088D01*
X109235Y-41068D01*
X109235Y-41068D01*
X109259Y-40950D01*
X109259Y-39862D01*
X109308Y-39912D01*
X109400Y-39950D01*
X109637Y-39950D01*
X109700Y-39887D01*
X109700Y-39350D01*
X109262Y-39350D01*
X109200Y-39412D01*
X109199Y-39628D01*
X109168Y-39581D01*
X109000Y-39412D01*
X109000Y-38850D01*
X108962Y-38758D01*
X108891Y-38688D01*
X108799Y-38650D01*
X108709Y-38649D01*
X108764Y-38594D01*
X108802Y-38502D01*
X108802Y-38477D01*
X108910Y-38498D01*
X109006Y-38498D01*
X109102Y-38594D01*
X109295Y-38674D01*
X109340Y-38674D01*
X109308Y-38687D01*
X109238Y-38758D01*
X109200Y-38850D01*
X109199Y-38949D01*
X109200Y-39187D01*
X109262Y-39250D01*
X109700Y-39250D01*
X109700Y-38712D01*
X109637Y-38650D01*
X109564Y-38649D01*
X109697Y-38595D01*
X109844Y-38447D01*
X109924Y-38254D01*
X109925Y-38117D01*
X110944Y-37098D01*
X111649Y-37098D01*
X111649Y-37149D01*
X111687Y-37241D01*
X111758Y-37311D01*
X111850Y-37349D01*
X111949Y-37350D01*
X112649Y-37350D01*
X112741Y-37312D01*
X112811Y-37241D01*
X112849Y-37149D01*
X112850Y-37050D01*
X112850Y-36642D01*
X113894Y-35598D01*
X114534Y-35598D01*
X114562Y-35666D01*
X114633Y-35736D01*
X114725Y-35774D01*
X114824Y-35775D01*
X115374Y-35775D01*
X115466Y-35737D01*
X115536Y-35666D01*
X115574Y-35574D01*
X115575Y-35475D01*
X115575Y-34925D01*
X115537Y-34833D01*
X115466Y-34763D01*
X115374Y-34725D01*
X115275Y-34724D01*
X114725Y-34724D01*
X114633Y-34762D01*
X114563Y-34833D01*
X114534Y-34901D01*
X113750Y-34901D01*
X113616Y-34928D01*
X113503Y-35003D01*
X113503Y-35003D01*
X112854Y-35652D01*
X112854Y-34843D01*
X112844Y-34605D01*
X112772Y-34432D01*
X112672Y-34398D01*
X112601Y-34469D01*
X112601Y-34327D01*
X112567Y-34227D01*
X112343Y-34145D01*
X112105Y-34155D01*
X111932Y-34227D01*
X111898Y-34327D01*
X112250Y-34679D01*
X112601Y-34327D01*
X112601Y-34469D01*
X112320Y-34750D01*
X112672Y-35101D01*
X112772Y-35067D01*
X112854Y-34843D01*
X112854Y-35652D01*
X112601Y-35905D01*
X112601Y-35172D01*
X112250Y-34820D01*
X112179Y-34891D01*
X112179Y-34750D01*
X111827Y-34398D01*
X111727Y-34432D01*
X111645Y-34656D01*
X111655Y-34894D01*
X111727Y-35067D01*
X111827Y-35101D01*
X112179Y-34750D01*
X112179Y-34891D01*
X111898Y-35172D01*
X111932Y-35272D01*
X112156Y-35354D01*
X112394Y-35344D01*
X112567Y-35272D01*
X112601Y-35172D01*
X112601Y-35905D01*
X112357Y-36149D01*
X111850Y-36149D01*
X111758Y-36187D01*
X111688Y-36258D01*
X111650Y-36350D01*
X111649Y-36401D01*
X110800Y-36401D01*
X110666Y-36428D01*
X110553Y-36503D01*
X110553Y-36503D01*
X109929Y-37127D01*
X109929Y-36225D01*
X109918Y-36017D01*
X109860Y-35877D01*
X109767Y-35852D01*
X109697Y-35923D01*
X109697Y-35782D01*
X109672Y-35689D01*
X109475Y-35620D01*
X109267Y-35631D01*
X109127Y-35689D01*
X109102Y-35782D01*
X109400Y-36079D01*
X109697Y-35782D01*
X109697Y-35923D01*
X109470Y-36150D01*
X109767Y-36447D01*
X109860Y-36422D01*
X109929Y-36225D01*
X109929Y-37127D01*
X109697Y-37360D01*
X109697Y-36517D01*
X109400Y-36220D01*
X109329Y-36291D01*
X109329Y-36150D01*
X109032Y-35852D01*
X108939Y-35877D01*
X108870Y-36074D01*
X108881Y-36282D01*
X108939Y-36422D01*
X109032Y-36447D01*
X109329Y-36150D01*
X109329Y-36291D01*
X109102Y-36517D01*
X109127Y-36610D01*
X109324Y-36679D01*
X109532Y-36668D01*
X109672Y-36610D01*
X109697Y-36517D01*
X109697Y-37360D01*
X109432Y-37625D01*
X109296Y-37624D01*
X109103Y-37704D01*
X109095Y-37712D01*
X109043Y-37678D01*
X108910Y-37651D01*
X108806Y-37651D01*
X108806Y-36718D01*
X108806Y-35318D01*
X108798Y-35038D01*
X108707Y-34820D01*
X108596Y-34774D01*
X108525Y-34844D01*
X108525Y-34703D01*
X108479Y-34592D01*
X108218Y-34493D01*
X107938Y-34501D01*
X107720Y-34592D01*
X107674Y-34703D01*
X108100Y-35129D01*
X108525Y-34703D01*
X108525Y-34844D01*
X108170Y-35200D01*
X108596Y-35625D01*
X108707Y-35579D01*
X108806Y-35318D01*
X108806Y-36718D01*
X108798Y-36438D01*
X108707Y-36220D01*
X108596Y-36174D01*
X108525Y-36244D01*
X108525Y-36103D01*
X108479Y-35992D01*
X108233Y-35899D01*
X108261Y-35898D01*
X108479Y-35807D01*
X108525Y-35696D01*
X108100Y-35270D01*
X108029Y-35341D01*
X108029Y-35200D01*
X107603Y-34774D01*
X107492Y-34820D01*
X107393Y-35081D01*
X107401Y-35361D01*
X107492Y-35579D01*
X107603Y-35625D01*
X108029Y-35200D01*
X108029Y-35341D01*
X107674Y-35696D01*
X107720Y-35807D01*
X107966Y-35900D01*
X107938Y-35901D01*
X107720Y-35992D01*
X107674Y-36103D01*
X108100Y-36529D01*
X108525Y-36103D01*
X108525Y-36244D01*
X108170Y-36600D01*
X108596Y-37025D01*
X108707Y-36979D01*
X108806Y-36718D01*
X108806Y-37651D01*
X108802Y-37651D01*
X108802Y-37497D01*
X108764Y-37405D01*
X108694Y-37335D01*
X108602Y-37297D01*
X108503Y-37297D01*
X108263Y-37297D01*
X108479Y-37207D01*
X108525Y-37096D01*
X108100Y-36670D01*
X108029Y-36741D01*
X108029Y-36600D01*
X107603Y-36174D01*
X107492Y-36220D01*
X107393Y-36481D01*
X107401Y-36761D01*
X107492Y-36979D01*
X107603Y-37025D01*
X108029Y-36600D01*
X108029Y-36741D01*
X107674Y-37096D01*
X107720Y-37207D01*
X107956Y-37297D01*
X107597Y-37297D01*
X107505Y-37335D01*
X107435Y-37405D01*
X107397Y-37497D01*
X107397Y-37596D01*
X107397Y-38502D01*
X107435Y-38594D01*
X107505Y-38664D01*
X107597Y-38702D01*
X107696Y-38702D01*
X107993Y-38702D01*
X107938Y-38758D01*
X107900Y-38850D01*
X107899Y-38949D01*
X107899Y-39749D01*
X107937Y-39841D01*
X108008Y-39911D01*
X108100Y-39949D01*
X108199Y-39950D01*
X108640Y-39950D01*
X108640Y-40479D01*
X108579Y-40330D01*
X108420Y-40171D01*
X108212Y-40085D01*
X107988Y-40084D01*
X107780Y-40170D01*
X107760Y-40190D01*
X107650Y-40190D01*
X107650Y-40150D01*
X107612Y-40058D01*
X107541Y-39988D01*
X107449Y-39950D01*
X107350Y-39949D01*
X106550Y-39949D01*
X106458Y-39987D01*
X106450Y-39996D01*
X106441Y-39988D01*
X106349Y-39950D01*
X106250Y-39949D01*
X105450Y-39949D01*
X105358Y-39987D01*
X105350Y-39996D01*
X105341Y-39988D01*
X105249Y-39950D01*
X105150Y-39949D01*
X104350Y-39949D01*
X104258Y-39987D01*
X104188Y-40058D01*
X104150Y-40150D01*
X104149Y-40249D01*
X104149Y-40849D01*
X104187Y-40941D01*
X104258Y-41011D01*
X104350Y-41049D01*
X104449Y-41050D01*
X104490Y-41050D01*
X104490Y-41815D01*
X104386Y-41711D01*
X104201Y-41634D01*
X103999Y-41634D01*
X103813Y-41710D01*
X103671Y-41853D01*
X103594Y-42038D01*
X103594Y-42240D01*
X103643Y-42358D01*
X103613Y-42370D01*
X103471Y-42513D01*
X103394Y-42698D01*
X103394Y-42900D01*
X103452Y-43040D01*
X102914Y-43040D01*
X102859Y-42985D01*
X102859Y-42225D01*
X102874Y-42225D01*
X102966Y-42187D01*
X103036Y-42116D01*
X103074Y-42024D01*
X103075Y-41925D01*
X103075Y-41375D01*
X103037Y-41283D01*
X102966Y-41213D01*
X102874Y-41175D01*
X102775Y-41174D01*
X102775Y-41174D01*
X102847Y-41145D01*
X102994Y-40997D01*
X103074Y-40804D01*
X103075Y-40667D01*
X104162Y-39580D01*
X104187Y-39641D01*
X104258Y-39711D01*
X104350Y-39749D01*
X104449Y-39750D01*
X105249Y-39750D01*
X105341Y-39712D01*
X105349Y-39703D01*
X105358Y-39711D01*
X105450Y-39749D01*
X105549Y-39750D01*
X106349Y-39750D01*
X106441Y-39712D01*
X106511Y-39641D01*
X106549Y-39549D01*
X106550Y-39450D01*
X106550Y-38850D01*
X106512Y-38758D01*
X106441Y-38688D01*
X106349Y-38650D01*
X106250Y-38649D01*
X105778Y-38649D01*
X105811Y-38616D01*
X105849Y-38524D01*
X105850Y-38425D01*
X105850Y-37875D01*
X105812Y-37783D01*
X105741Y-37713D01*
X105739Y-37712D01*
X105863Y-37588D01*
X105879Y-37588D01*
X105903Y-37647D01*
X106101Y-37845D01*
X106359Y-37952D01*
X106639Y-37952D01*
X106897Y-37846D01*
X107095Y-37648D01*
X107202Y-37390D01*
X107202Y-37110D01*
X107096Y-36852D01*
X106898Y-36654D01*
X106767Y-36599D01*
X106897Y-36546D01*
X107095Y-36348D01*
X107202Y-36090D01*
X107202Y-35810D01*
X107096Y-35552D01*
X106898Y-35354D01*
X106640Y-35247D01*
X106360Y-35247D01*
X106102Y-35353D01*
X105904Y-35551D01*
X105883Y-35601D01*
X105854Y-35601D01*
X105854Y-35275D01*
X105843Y-35067D01*
X105785Y-34927D01*
X105692Y-34902D01*
X105622Y-34973D01*
X105622Y-34832D01*
X105597Y-34739D01*
X105400Y-34670D01*
X105192Y-34681D01*
X105052Y-34739D01*
X105027Y-34832D01*
X105325Y-35129D01*
X105622Y-34832D01*
X105622Y-34973D01*
X105395Y-35200D01*
X105692Y-35497D01*
X105785Y-35472D01*
X105854Y-35275D01*
X105854Y-35601D01*
X105613Y-35601D01*
X105622Y-35567D01*
X105325Y-35270D01*
X105254Y-35341D01*
X105254Y-35200D01*
X104957Y-34902D01*
X104864Y-34927D01*
X104795Y-35124D01*
X104806Y-35332D01*
X104864Y-35472D01*
X104957Y-35497D01*
X105254Y-35200D01*
X105254Y-35341D01*
X105027Y-35567D01*
X105036Y-35601D01*
X104700Y-35601D01*
X104700Y-35601D01*
X104566Y-35628D01*
X104453Y-35703D01*
X104453Y-35703D01*
X104104Y-36052D01*
X104104Y-34481D01*
X104093Y-34263D01*
X104031Y-34112D01*
X103935Y-34084D01*
X103865Y-34155D01*
X103865Y-34014D01*
X103837Y-33918D01*
X103631Y-33845D01*
X103413Y-33856D01*
X103262Y-33918D01*
X103234Y-34014D01*
X103550Y-34329D01*
X103865Y-34014D01*
X103865Y-34155D01*
X103620Y-34400D01*
X103935Y-34715D01*
X104031Y-34687D01*
X104104Y-34481D01*
X104104Y-36052D01*
X103865Y-36292D01*
X103865Y-34785D01*
X103550Y-34470D01*
X103479Y-34541D01*
X103479Y-34400D01*
X103164Y-34084D01*
X103100Y-34103D01*
X103100Y-34050D01*
X103062Y-33958D01*
X102991Y-33888D01*
X102899Y-33850D01*
X102800Y-33849D01*
X102200Y-33849D01*
X102108Y-33887D01*
X102038Y-33958D01*
X102000Y-34050D01*
X101999Y-34149D01*
X101999Y-34749D01*
X102037Y-34841D01*
X102108Y-34911D01*
X102200Y-34949D01*
X102299Y-34950D01*
X102899Y-34950D01*
X102991Y-34912D01*
X103061Y-34841D01*
X103099Y-34749D01*
X103100Y-34696D01*
X103164Y-34715D01*
X103479Y-34400D01*
X103479Y-34541D01*
X103234Y-34785D01*
X103262Y-34881D01*
X103468Y-34954D01*
X103686Y-34943D01*
X103837Y-34881D01*
X103865Y-34785D01*
X103865Y-36292D01*
X103705Y-36451D01*
X103000Y-36451D01*
X103000Y-36400D01*
X102962Y-36308D01*
X102891Y-36238D01*
X102799Y-36200D01*
X102700Y-36199D01*
X102000Y-36199D01*
X101908Y-36237D01*
X101838Y-36308D01*
X101800Y-36400D01*
X101799Y-36499D01*
X101799Y-36677D01*
X101393Y-37083D01*
X101318Y-37196D01*
X101313Y-37218D01*
X101291Y-37330D01*
X101291Y-37330D01*
X101291Y-39140D01*
X101291Y-39576D01*
X101291Y-39576D01*
X101313Y-39687D01*
X101318Y-39709D01*
X101393Y-39822D01*
X101787Y-40216D01*
X101787Y-40216D01*
X101900Y-40291D01*
X102033Y-40318D01*
X102189Y-40318D01*
X102105Y-40402D01*
X102025Y-40595D01*
X102024Y-40803D01*
X102104Y-40997D01*
X102252Y-41144D01*
X102324Y-41174D01*
X102225Y-41174D01*
X102133Y-41212D01*
X102063Y-41283D01*
X102025Y-41375D01*
X102025Y-41380D01*
X101929Y-41380D01*
X101929Y-40765D01*
X101918Y-40557D01*
X101860Y-40417D01*
X101767Y-40392D01*
X101697Y-40463D01*
X101697Y-40322D01*
X101672Y-40229D01*
X101475Y-40160D01*
X101267Y-40171D01*
X101127Y-40229D01*
X101102Y-40322D01*
X101400Y-40619D01*
X101697Y-40322D01*
X101697Y-40463D01*
X101470Y-40690D01*
X101767Y-40987D01*
X101860Y-40962D01*
X101929Y-40765D01*
X101929Y-41380D01*
X101925Y-41380D01*
X101925Y-41365D01*
X101887Y-41273D01*
X101816Y-41203D01*
X101724Y-41165D01*
X101637Y-41164D01*
X101672Y-41150D01*
X101697Y-41057D01*
X101400Y-40760D01*
X101394Y-40766D01*
X101323Y-40695D01*
X101329Y-40690D01*
X101032Y-40392D01*
X100939Y-40417D01*
X100930Y-40444D01*
X100930Y-36343D01*
X100930Y-36036D01*
X100887Y-35821D01*
X100765Y-35640D01*
X100584Y-35518D01*
X100370Y-35476D01*
X100155Y-35518D01*
X99974Y-35640D01*
X99870Y-35795D01*
X99868Y-35789D01*
X99730Y-35618D01*
X99538Y-35513D01*
X99506Y-35506D01*
X99420Y-35555D01*
X99420Y-36140D01*
X99427Y-36140D01*
X99427Y-36240D01*
X99420Y-36240D01*
X99420Y-36824D01*
X99506Y-36873D01*
X99538Y-36866D01*
X99730Y-36761D01*
X99868Y-36590D01*
X99870Y-36584D01*
X99974Y-36739D01*
X100155Y-36861D01*
X100370Y-36903D01*
X100584Y-36861D01*
X100765Y-36739D01*
X100887Y-36558D01*
X100930Y-36343D01*
X100930Y-40444D01*
X100870Y-40614D01*
X100878Y-40771D01*
X100278Y-40171D01*
X100178Y-40104D01*
X100060Y-40080D01*
X95710Y-40080D01*
X95591Y-40104D01*
X95491Y-40171D01*
X95096Y-40566D01*
X95084Y-40558D01*
X94870Y-40516D01*
X94655Y-40558D01*
X94474Y-40680D01*
X94370Y-40835D01*
X94265Y-40680D01*
X94084Y-40558D01*
X93870Y-40516D01*
X93655Y-40558D01*
X93474Y-40680D01*
X93370Y-40835D01*
X93368Y-40829D01*
X93230Y-40658D01*
X93038Y-40553D01*
X93006Y-40546D01*
X92920Y-40595D01*
X92920Y-41180D01*
X92927Y-41180D01*
X92927Y-41280D01*
X92920Y-41280D01*
X92920Y-41287D01*
X92820Y-41287D01*
X92820Y-41280D01*
X92812Y-41280D01*
X92812Y-41180D01*
X92820Y-41180D01*
X92820Y-40595D01*
X92733Y-40546D01*
X92701Y-40553D01*
X92509Y-40658D01*
X92371Y-40829D01*
X92369Y-40835D01*
X92265Y-40680D01*
X92084Y-40558D01*
X91870Y-40516D01*
X91655Y-40558D01*
X91474Y-40680D01*
X91370Y-40835D01*
X91265Y-40680D01*
X91218Y-40648D01*
X91218Y-40510D01*
X91228Y-40460D01*
X91218Y-40409D01*
X91218Y-39678D01*
X92469Y-39678D01*
X92470Y-39678D01*
X92470Y-39678D01*
X92581Y-39656D01*
X92603Y-39651D01*
X92603Y-39651D01*
X92716Y-39576D01*
X93116Y-39176D01*
X93116Y-39176D01*
X93116Y-39176D01*
X93191Y-39063D01*
X93218Y-38930D01*
X93218Y-38930D01*
X93218Y-38930D01*
X93218Y-38811D01*
X93265Y-38779D01*
X93370Y-38624D01*
X93474Y-38779D01*
X93655Y-38901D01*
X93870Y-38943D01*
X94084Y-38901D01*
X94265Y-38779D01*
X94370Y-38624D01*
X94474Y-38779D01*
X94655Y-38901D01*
X94870Y-38943D01*
X95084Y-38901D01*
X95265Y-38779D01*
X95370Y-38624D01*
X95474Y-38779D01*
X95655Y-38901D01*
X95870Y-38943D01*
X96084Y-38901D01*
X96265Y-38779D01*
X96370Y-38624D01*
X96474Y-38779D01*
X96655Y-38901D01*
X96870Y-38943D01*
X97084Y-38901D01*
X97265Y-38779D01*
X97370Y-38624D01*
X97474Y-38779D01*
X97655Y-38901D01*
X97870Y-38943D01*
X98084Y-38901D01*
X98265Y-38779D01*
X98309Y-38713D01*
X98309Y-38729D01*
X98347Y-38821D01*
X98418Y-38891D01*
X98510Y-38929D01*
X98609Y-38930D01*
X99229Y-38930D01*
X99321Y-38892D01*
X99391Y-38821D01*
X99429Y-38729D01*
X99430Y-38630D01*
X99430Y-37730D01*
X99392Y-37638D01*
X99321Y-37568D01*
X99229Y-37530D01*
X99130Y-37529D01*
X98510Y-37529D01*
X98418Y-37567D01*
X98348Y-37638D01*
X98310Y-37730D01*
X98310Y-37746D01*
X98265Y-37680D01*
X98084Y-37558D01*
X97870Y-37516D01*
X97655Y-37558D01*
X97643Y-37566D01*
X96786Y-36709D01*
X96870Y-36584D01*
X96974Y-36739D01*
X97155Y-36861D01*
X97370Y-36903D01*
X97584Y-36861D01*
X97765Y-36739D01*
X97870Y-36584D01*
X97974Y-36739D01*
X98155Y-36861D01*
X98370Y-36903D01*
X98584Y-36861D01*
X98765Y-36739D01*
X98869Y-36584D01*
X98871Y-36590D01*
X99009Y-36761D01*
X99201Y-36866D01*
X99233Y-36873D01*
X99320Y-36824D01*
X99320Y-36240D01*
X99312Y-36240D01*
X99312Y-36140D01*
X99320Y-36140D01*
X99320Y-35555D01*
X99233Y-35506D01*
X99201Y-35513D01*
X99009Y-35618D01*
X98871Y-35789D01*
X98869Y-35795D01*
X98765Y-35640D01*
X98584Y-35518D01*
X98370Y-35476D01*
X98155Y-35518D01*
X97974Y-35640D01*
X97870Y-35795D01*
X97765Y-35640D01*
X97584Y-35518D01*
X97370Y-35476D01*
X97155Y-35518D01*
X96974Y-35640D01*
X96870Y-35795D01*
X96765Y-35640D01*
X96584Y-35518D01*
X96370Y-35476D01*
X96155Y-35518D01*
X95974Y-35640D01*
X95870Y-35795D01*
X95765Y-35640D01*
X95639Y-35555D01*
X95639Y-35506D01*
X95615Y-35387D01*
X95615Y-35387D01*
X95548Y-35287D01*
X95548Y-35287D01*
X95172Y-34911D01*
X95072Y-34844D01*
X94953Y-34820D01*
X92139Y-34820D01*
X92251Y-34730D01*
X92356Y-34538D01*
X92363Y-34506D01*
X92314Y-34420D01*
X91730Y-34420D01*
X91730Y-34427D01*
X91630Y-34427D01*
X91630Y-34420D01*
X91045Y-34420D01*
X90996Y-34506D01*
X91003Y-34538D01*
X91073Y-34666D01*
X90576Y-34169D01*
X91021Y-34169D01*
X91003Y-34201D01*
X90996Y-34233D01*
X91045Y-34320D01*
X91630Y-34320D01*
X91630Y-34312D01*
X91730Y-34312D01*
X91730Y-34320D01*
X92314Y-34320D01*
X92363Y-34233D01*
X92356Y-34201D01*
X92251Y-34009D01*
X92080Y-33871D01*
X92074Y-33869D01*
X92229Y-33765D01*
X92287Y-33679D01*
X92933Y-33679D01*
X92974Y-33739D01*
X93155Y-33861D01*
X93370Y-33903D01*
X93584Y-33861D01*
X93765Y-33739D01*
X93870Y-33584D01*
X93974Y-33739D01*
X94155Y-33861D01*
X94370Y-33903D01*
X94584Y-33861D01*
X94765Y-33739D01*
X94870Y-33584D01*
X94974Y-33739D01*
X95155Y-33861D01*
X95370Y-33903D01*
X95584Y-33861D01*
X95765Y-33739D01*
X95870Y-33584D01*
X95974Y-33739D01*
X96155Y-33861D01*
X96370Y-33903D01*
X96584Y-33861D01*
X96765Y-33739D01*
X96870Y-33584D01*
X96974Y-33739D01*
X97155Y-33861D01*
X97370Y-33903D01*
X97584Y-33861D01*
X97765Y-33739D01*
X97870Y-33584D01*
X97974Y-33739D01*
X98060Y-33797D01*
X98060Y-33893D01*
X98084Y-34012D01*
X98151Y-34112D01*
X98387Y-34348D01*
X98487Y-34415D01*
X98487Y-34415D01*
X98606Y-34439D01*
X100983Y-34439D01*
X101102Y-34415D01*
X101102Y-34415D01*
X101202Y-34348D01*
X101438Y-34112D01*
X101505Y-34012D01*
X101505Y-34012D01*
X101529Y-33893D01*
X101529Y-32128D01*
X101542Y-32114D01*
X101733Y-32115D01*
X101927Y-32035D01*
X102074Y-31887D01*
X102154Y-31694D01*
X102155Y-31486D01*
X102075Y-31293D01*
X101927Y-31145D01*
X101734Y-31065D01*
X101526Y-31064D01*
X101333Y-31144D01*
X101185Y-31292D01*
X101155Y-31364D01*
X101155Y-31265D01*
X101117Y-31173D01*
X101046Y-31103D01*
X100954Y-31065D01*
X100855Y-31064D01*
X100305Y-31064D01*
X100213Y-31102D01*
X100143Y-31173D01*
X100105Y-31265D01*
X100104Y-31364D01*
X100104Y-31914D01*
X100142Y-32006D01*
X100213Y-32076D01*
X100305Y-32114D01*
X100320Y-32114D01*
X100320Y-32489D01*
X100010Y-32489D01*
X99918Y-32527D01*
X99848Y-32598D01*
X99810Y-32690D01*
X99810Y-32706D01*
X99765Y-32640D01*
X99679Y-32582D01*
X99679Y-32075D01*
X99864Y-32075D01*
X99956Y-32037D01*
X100026Y-31966D01*
X100064Y-31874D01*
X100065Y-31775D01*
X100065Y-31225D01*
X100027Y-31133D01*
X99956Y-31063D01*
X99864Y-31025D01*
X99765Y-31024D01*
X99215Y-31024D01*
X99123Y-31062D01*
X99053Y-31133D01*
X99015Y-31225D01*
X99014Y-31312D01*
X99000Y-31277D01*
X98907Y-31252D01*
X98837Y-31323D01*
X98837Y-31182D01*
X98812Y-31089D01*
X98615Y-31020D01*
X98407Y-31031D01*
X98267Y-31089D01*
X98242Y-31182D01*
X98540Y-31479D01*
X98837Y-31182D01*
X98837Y-31323D01*
X98610Y-31550D01*
X98907Y-31847D01*
X99000Y-31822D01*
X99014Y-31781D01*
X99014Y-31874D01*
X99052Y-31966D01*
X99060Y-31974D01*
X99060Y-32582D01*
X98974Y-32640D01*
X98870Y-32795D01*
X98837Y-32746D01*
X98837Y-31917D01*
X98540Y-31620D01*
X98469Y-31691D01*
X98469Y-31550D01*
X98172Y-31252D01*
X98079Y-31277D01*
X98010Y-31474D01*
X98021Y-31682D01*
X98079Y-31822D01*
X98172Y-31847D01*
X98469Y-31550D01*
X98469Y-31691D01*
X98242Y-31917D01*
X98267Y-32010D01*
X98464Y-32079D01*
X98672Y-32068D01*
X98812Y-32010D01*
X98837Y-31917D01*
X98837Y-32746D01*
X98765Y-32640D01*
X98584Y-32518D01*
X98370Y-32476D01*
X98155Y-32518D01*
X97974Y-32640D01*
X97870Y-32795D01*
X97789Y-32674D01*
X97789Y-31985D01*
X97804Y-31985D01*
X97896Y-31947D01*
X97966Y-31876D01*
X98004Y-31784D01*
X98005Y-31685D01*
X98005Y-31135D01*
X97967Y-31043D01*
X97896Y-30973D01*
X97804Y-30935D01*
X97705Y-30934D01*
X97155Y-30934D01*
X97063Y-30972D01*
X96993Y-31043D01*
X96955Y-31135D01*
X96954Y-31234D01*
X96954Y-31234D01*
X96925Y-31163D01*
X96777Y-31015D01*
X96584Y-30935D01*
X96376Y-30934D01*
X96183Y-31014D01*
X96035Y-31162D01*
X95955Y-31355D01*
X95954Y-31563D01*
X96034Y-31757D01*
X96060Y-31783D01*
X96060Y-32582D01*
X95974Y-32640D01*
X95870Y-32795D01*
X95765Y-32640D01*
X95719Y-32608D01*
X95719Y-32095D01*
X95734Y-32095D01*
X95826Y-32057D01*
X95896Y-31986D01*
X95934Y-31894D01*
X95935Y-31795D01*
X95935Y-31245D01*
X95897Y-31153D01*
X95826Y-31083D01*
X95734Y-31045D01*
X95635Y-31044D01*
X95085Y-31044D01*
X94993Y-31082D01*
X94923Y-31153D01*
X94885Y-31245D01*
X94884Y-31332D01*
X94870Y-31297D01*
X94777Y-31272D01*
X94707Y-31343D01*
X94707Y-31202D01*
X94682Y-31109D01*
X94485Y-31040D01*
X94277Y-31051D01*
X94137Y-31109D01*
X94112Y-31202D01*
X94410Y-31499D01*
X94707Y-31202D01*
X94707Y-31343D01*
X94480Y-31570D01*
X94777Y-31867D01*
X94870Y-31842D01*
X94884Y-31801D01*
X94884Y-31894D01*
X94922Y-31986D01*
X94993Y-32056D01*
X95085Y-32094D01*
X95100Y-32094D01*
X95100Y-32555D01*
X94974Y-32640D01*
X94870Y-32795D01*
X94765Y-32640D01*
X94707Y-32600D01*
X94707Y-31937D01*
X94410Y-31640D01*
X94339Y-31711D01*
X94339Y-31570D01*
X94042Y-31272D01*
X93949Y-31297D01*
X93880Y-31494D01*
X93891Y-31702D01*
X93949Y-31842D01*
X94042Y-31867D01*
X94339Y-31570D01*
X94339Y-31711D01*
X94112Y-31937D01*
X94137Y-32030D01*
X94334Y-32099D01*
X94542Y-32088D01*
X94682Y-32030D01*
X94707Y-31937D01*
X94707Y-32600D01*
X94584Y-32518D01*
X94370Y-32476D01*
X94155Y-32518D01*
X93974Y-32640D01*
X93870Y-32795D01*
X93765Y-32640D01*
X93649Y-32562D01*
X93649Y-32562D01*
X93588Y-32471D01*
X93530Y-32412D01*
X93530Y-31850D01*
X93492Y-31758D01*
X93421Y-31688D01*
X93329Y-31650D01*
X93230Y-31649D01*
X92430Y-31649D01*
X92338Y-31687D01*
X92268Y-31758D01*
X92230Y-31850D01*
X92229Y-31949D01*
X92229Y-31974D01*
X92229Y-31974D01*
X92074Y-31869D01*
X92229Y-31765D01*
X92351Y-31584D01*
X92381Y-31429D01*
X92430Y-31449D01*
X92529Y-31450D01*
X93329Y-31450D01*
X93421Y-31412D01*
X93491Y-31341D01*
X93529Y-31249D01*
X93530Y-31150D01*
X93530Y-30550D01*
X93492Y-30458D01*
X93421Y-30388D01*
X93329Y-30350D01*
X93230Y-30349D01*
X92668Y-30349D01*
X92668Y-30300D01*
X92641Y-30166D01*
X92566Y-30053D01*
X92453Y-29978D01*
X92320Y-29951D01*
X86340Y-29951D01*
X86340Y-28333D01*
X86213Y-28024D01*
X85976Y-27787D01*
X85667Y-27659D01*
X85333Y-27659D01*
X85024Y-27787D01*
X84787Y-28023D01*
X84659Y-28332D01*
X84659Y-28666D01*
X84787Y-28975D01*
X85023Y-29212D01*
X85332Y-29340D01*
X85666Y-29340D01*
X85975Y-29213D01*
X86212Y-28976D01*
X86340Y-28667D01*
X86340Y-28333D01*
X86340Y-29951D01*
X82851Y-29951D01*
X82717Y-29978D01*
X82604Y-30053D01*
X82604Y-30053D01*
X81984Y-30673D01*
X81909Y-30786D01*
X81904Y-30808D01*
X81882Y-30920D01*
X81882Y-30920D01*
X81882Y-34279D01*
X81882Y-34280D01*
X81904Y-34391D01*
X81909Y-34413D01*
X81984Y-34526D01*
X82562Y-35104D01*
X82556Y-35120D01*
X82556Y-35376D01*
X82653Y-35613D01*
X82834Y-35794D01*
X83071Y-35892D01*
X83327Y-35892D01*
X83564Y-35794D01*
X83745Y-35614D01*
X83843Y-35377D01*
X83843Y-35121D01*
X83746Y-34884D01*
X83565Y-34703D01*
X83328Y-34605D01*
X83072Y-34605D01*
X83055Y-34612D01*
X82878Y-34434D01*
X83071Y-34514D01*
X83327Y-34514D01*
X83564Y-34417D01*
X83745Y-34236D01*
X83843Y-33999D01*
X83843Y-33743D01*
X83746Y-33506D01*
X83565Y-33325D01*
X83328Y-33227D01*
X83072Y-33227D01*
X82835Y-33325D01*
X82654Y-33505D01*
X82579Y-33686D01*
X82579Y-32676D01*
X82653Y-32857D01*
X82834Y-33038D01*
X83071Y-33136D01*
X83327Y-33136D01*
X83564Y-33039D01*
X83745Y-32858D01*
X83768Y-32802D01*
X85677Y-32802D01*
X85651Y-32827D01*
X85584Y-32927D01*
X85560Y-33046D01*
X85560Y-37622D01*
X85474Y-37680D01*
X85352Y-37861D01*
X85310Y-38076D01*
X85310Y-38383D01*
X85352Y-38598D01*
X85474Y-38779D01*
X85655Y-38901D01*
X85870Y-38943D01*
X86084Y-38901D01*
X86265Y-38779D01*
X86370Y-38624D01*
X86474Y-38779D01*
X86655Y-38901D01*
X86870Y-38943D01*
X87084Y-38901D01*
X87265Y-38779D01*
X87370Y-38624D01*
X87474Y-38779D01*
X87655Y-38901D01*
X87870Y-38943D01*
X88084Y-38901D01*
X88265Y-38779D01*
X88370Y-38624D01*
X88474Y-38779D01*
X88655Y-38901D01*
X88870Y-38943D01*
X89084Y-38901D01*
X89265Y-38779D01*
X89370Y-38624D01*
X89474Y-38779D01*
X89655Y-38901D01*
X89870Y-38943D01*
X90084Y-38901D01*
X90265Y-38779D01*
X90370Y-38624D01*
X90474Y-38779D01*
X90655Y-38901D01*
X90870Y-38943D01*
X91084Y-38901D01*
X91265Y-38779D01*
X91369Y-38624D01*
X91371Y-38630D01*
X91509Y-38801D01*
X91701Y-38906D01*
X91733Y-38913D01*
X91820Y-38864D01*
X91820Y-38280D01*
X91812Y-38280D01*
X91812Y-38180D01*
X91820Y-38180D01*
X91820Y-37595D01*
X91733Y-37546D01*
X91709Y-37551D01*
X91709Y-36980D01*
X91829Y-36860D01*
X91909Y-36665D01*
X91910Y-36455D01*
X91829Y-36260D01*
X91680Y-36110D01*
X91485Y-36030D01*
X91275Y-36029D01*
X91080Y-36110D01*
X90930Y-36259D01*
X90850Y-36454D01*
X90849Y-36664D01*
X90930Y-36859D01*
X91079Y-37009D01*
X91090Y-37013D01*
X91090Y-37563D01*
X91084Y-37558D01*
X90870Y-37516D01*
X90655Y-37558D01*
X90474Y-37680D01*
X90370Y-37835D01*
X90265Y-37680D01*
X90084Y-37558D01*
X89870Y-37516D01*
X89689Y-37552D01*
X89689Y-37000D01*
X89829Y-36860D01*
X89909Y-36665D01*
X89910Y-36455D01*
X89829Y-36260D01*
X89680Y-36110D01*
X89485Y-36030D01*
X89275Y-36029D01*
X89080Y-36110D01*
X88930Y-36259D01*
X88850Y-36454D01*
X88849Y-36664D01*
X88930Y-36859D01*
X89070Y-37000D01*
X89070Y-37556D01*
X88870Y-37516D01*
X88655Y-37558D01*
X88474Y-37680D01*
X88370Y-37835D01*
X88265Y-37680D01*
X88084Y-37558D01*
X87870Y-37516D01*
X87655Y-37558D01*
X87474Y-37680D01*
X87370Y-37835D01*
X87265Y-37680D01*
X87084Y-37558D01*
X86870Y-37516D01*
X86655Y-37558D01*
X86474Y-37680D01*
X86370Y-37835D01*
X86265Y-37680D01*
X86179Y-37622D01*
X86179Y-35414D01*
X86273Y-35508D01*
X86458Y-35585D01*
X86660Y-35585D01*
X86846Y-35509D01*
X86966Y-35389D01*
X87080Y-35389D01*
X87198Y-35365D01*
X87198Y-35365D01*
X87298Y-35298D01*
X88010Y-34586D01*
X88130Y-34765D01*
X88311Y-34887D01*
X88526Y-34930D01*
X88833Y-34930D01*
X89048Y-34887D01*
X89229Y-34765D01*
X89287Y-34679D01*
X90211Y-34679D01*
X90881Y-35348D01*
X90881Y-35348D01*
X90981Y-35415D01*
X90981Y-35415D01*
X91076Y-35434D01*
X91099Y-35439D01*
X91099Y-35439D01*
X91100Y-35439D01*
X94825Y-35439D01*
X95005Y-35619D01*
X94974Y-35640D01*
X94870Y-35795D01*
X94765Y-35640D01*
X94584Y-35518D01*
X94370Y-35476D01*
X94155Y-35518D01*
X93974Y-35640D01*
X93870Y-35795D01*
X93765Y-35640D01*
X93584Y-35518D01*
X93370Y-35476D01*
X93155Y-35518D01*
X92974Y-35640D01*
X92852Y-35821D01*
X92810Y-36036D01*
X92810Y-36343D01*
X92852Y-36558D01*
X92974Y-36739D01*
X93155Y-36861D01*
X93370Y-36903D01*
X93584Y-36861D01*
X93765Y-36739D01*
X93870Y-36584D01*
X93974Y-36739D01*
X94155Y-36861D01*
X94370Y-36903D01*
X94584Y-36861D01*
X94765Y-36739D01*
X94870Y-36584D01*
X94974Y-36739D01*
X95076Y-36808D01*
X95084Y-36848D01*
X95151Y-36948D01*
X95744Y-37541D01*
X95655Y-37558D01*
X95474Y-37680D01*
X95370Y-37835D01*
X95265Y-37680D01*
X95084Y-37558D01*
X94870Y-37516D01*
X94655Y-37558D01*
X94474Y-37680D01*
X94370Y-37835D01*
X94265Y-37680D01*
X94084Y-37558D01*
X93870Y-37516D01*
X93655Y-37558D01*
X93474Y-37680D01*
X93370Y-37835D01*
X93265Y-37680D01*
X93084Y-37558D01*
X92870Y-37516D01*
X92655Y-37558D01*
X92474Y-37680D01*
X92370Y-37835D01*
X92368Y-37829D01*
X92230Y-37658D01*
X92038Y-37553D01*
X92006Y-37546D01*
X91920Y-37595D01*
X91920Y-38180D01*
X91927Y-38180D01*
X91927Y-38280D01*
X91920Y-38280D01*
X91920Y-38864D01*
X92006Y-38913D01*
X92038Y-38906D01*
X92230Y-38801D01*
X92368Y-38630D01*
X92370Y-38624D01*
X92474Y-38779D01*
X92506Y-38801D01*
X92325Y-38981D01*
X90870Y-38981D01*
X90736Y-39008D01*
X90623Y-39083D01*
X90548Y-39196D01*
X90521Y-39330D01*
X90521Y-40111D01*
X85533Y-40111D01*
X85400Y-40138D01*
X85287Y-40213D01*
X85287Y-40213D01*
X84893Y-40607D01*
X84818Y-40720D01*
X84813Y-40742D01*
X84791Y-40853D01*
X84791Y-40853D01*
X84791Y-41599D01*
X84791Y-41600D01*
X84813Y-41711D01*
X84818Y-41733D01*
X84893Y-41846D01*
X85373Y-42326D01*
X85373Y-42326D01*
X85486Y-42401D01*
X85620Y-42428D01*
X85620Y-42428D01*
X85620Y-42428D01*
X85972Y-42428D01*
X86053Y-42508D01*
X86238Y-42585D01*
X86440Y-42585D01*
X86626Y-42509D01*
X86768Y-42366D01*
X86845Y-42181D01*
X86845Y-41979D01*
X86827Y-41935D01*
X86870Y-41943D01*
X87084Y-41901D01*
X87265Y-41779D01*
X87370Y-41624D01*
X87474Y-41779D01*
X87560Y-41837D01*
X87560Y-41952D01*
X87498Y-41977D01*
X87428Y-42048D01*
X87390Y-42140D01*
X87389Y-42239D01*
X87389Y-42839D01*
X87427Y-42931D01*
X87498Y-43001D01*
X87590Y-43039D01*
X87689Y-43040D01*
X88289Y-43040D01*
X88381Y-43002D01*
X88451Y-42931D01*
X88489Y-42839D01*
X88489Y-42817D01*
X88628Y-42955D01*
X88830Y-43039D01*
X89048Y-43040D01*
X89251Y-42956D01*
X89405Y-42801D01*
X89439Y-42720D01*
X89473Y-42801D01*
X89628Y-42955D01*
X89830Y-43039D01*
X90048Y-43040D01*
X90251Y-42956D01*
X90405Y-42801D01*
X90439Y-42720D01*
X90473Y-42801D01*
X90628Y-42955D01*
X90830Y-43039D01*
X91048Y-43040D01*
X91251Y-42956D01*
X91405Y-42801D01*
X91437Y-42726D01*
X91458Y-42777D01*
X91554Y-42805D01*
X91869Y-42490D01*
X91863Y-42484D01*
X91934Y-42413D01*
X91940Y-42419D01*
X91945Y-42413D01*
X92016Y-42484D01*
X92010Y-42490D01*
X92325Y-42805D01*
X92421Y-42777D01*
X92440Y-42722D01*
X92473Y-42801D01*
X92628Y-42955D01*
X92830Y-43039D01*
X93048Y-43040D01*
X93251Y-42956D01*
X93405Y-42801D01*
X93489Y-42599D01*
X93490Y-42381D01*
X93406Y-42178D01*
X93251Y-42024D01*
X93217Y-42009D01*
X93186Y-41963D01*
X93097Y-41874D01*
X93230Y-41801D01*
X93368Y-41630D01*
X93370Y-41624D01*
X93474Y-41779D01*
X93655Y-41901D01*
X93870Y-41943D01*
X94084Y-41901D01*
X94265Y-41779D01*
X94370Y-41624D01*
X94474Y-41779D01*
X94655Y-41901D01*
X94870Y-41943D01*
X94981Y-41921D01*
X93291Y-43610D01*
X92255Y-43610D01*
X92255Y-42875D01*
X91940Y-42560D01*
X91624Y-42875D01*
X91652Y-42971D01*
X91858Y-43044D01*
X92076Y-43033D01*
X92227Y-42971D01*
X92255Y-42875D01*
X92255Y-43610D01*
X87140Y-43610D01*
X87021Y-43634D01*
X86921Y-43701D01*
X86921Y-43701D01*
X85856Y-44766D01*
X85844Y-44758D01*
X85630Y-44716D01*
X85415Y-44758D01*
X85234Y-44880D01*
X85112Y-45061D01*
X85070Y-45276D01*
X85070Y-45583D01*
X85112Y-45798D01*
X85234Y-45979D01*
X85415Y-46101D01*
X85630Y-46143D01*
X85844Y-46101D01*
X86025Y-45979D01*
X86129Y-45824D01*
X86131Y-45830D01*
X86269Y-46001D01*
X86461Y-46106D01*
X86493Y-46113D01*
X86580Y-46064D01*
X86580Y-45480D01*
X86572Y-45480D01*
X86572Y-45380D01*
X86580Y-45380D01*
X86580Y-45372D01*
X86680Y-45372D01*
X86680Y-45380D01*
X87190Y-45380D01*
X87190Y-45240D01*
X87128Y-45029D01*
X86990Y-44858D01*
X86798Y-44753D01*
X86766Y-44746D01*
X86729Y-44767D01*
X87268Y-44229D01*
X88623Y-44229D01*
X88066Y-44786D01*
X88054Y-44778D01*
X87840Y-44736D01*
X87625Y-44778D01*
X87444Y-44900D01*
X87322Y-45081D01*
X87280Y-45296D01*
X87280Y-45603D01*
X87322Y-45818D01*
X87444Y-45999D01*
X87625Y-46121D01*
X87840Y-46163D01*
X88054Y-46121D01*
X88235Y-45999D01*
X88339Y-45844D01*
X88341Y-45850D01*
X88479Y-46021D01*
X88671Y-46126D01*
X88703Y-46133D01*
X88790Y-46084D01*
X88790Y-45500D01*
X88782Y-45500D01*
X88782Y-45400D01*
X88790Y-45400D01*
X88790Y-45392D01*
X88890Y-45392D01*
X88890Y-45400D01*
X89400Y-45400D01*
X89400Y-45260D01*
X89338Y-45049D01*
X89200Y-44878D01*
X89008Y-44773D01*
X88976Y-44766D01*
X88939Y-44787D01*
X89128Y-44599D01*
X91483Y-44599D01*
X91322Y-44759D01*
X91320Y-44759D01*
X90700Y-44759D01*
X90608Y-44797D01*
X90538Y-44868D01*
X90500Y-44960D01*
X90500Y-44987D01*
X90420Y-44888D01*
X90228Y-44783D01*
X90196Y-44776D01*
X90110Y-44825D01*
X90110Y-45410D01*
X90117Y-45410D01*
X90117Y-45510D01*
X90110Y-45510D01*
X90110Y-46094D01*
X90196Y-46143D01*
X90228Y-46136D01*
X90420Y-46031D01*
X90499Y-45932D01*
X90499Y-45959D01*
X90537Y-46051D01*
X90608Y-46121D01*
X90700Y-46159D01*
X90799Y-46160D01*
X91419Y-46160D01*
X91511Y-46122D01*
X91581Y-46051D01*
X91619Y-45959D01*
X91620Y-45860D01*
X91620Y-45337D01*
X91717Y-45239D01*
X91710Y-45276D01*
X91710Y-45583D01*
X91752Y-45798D01*
X91874Y-45979D01*
X92055Y-46101D01*
X92270Y-46143D01*
X92484Y-46101D01*
X92665Y-45979D01*
X92770Y-45824D01*
X92874Y-45979D01*
X93055Y-46101D01*
X93270Y-46143D01*
X93454Y-46107D01*
X93853Y-46506D01*
X93853Y-46506D01*
X93966Y-46581D01*
X93966Y-46581D01*
X93988Y-46586D01*
X94100Y-46608D01*
X94100Y-46608D01*
X94100Y-46608D01*
X95779Y-46608D01*
X95779Y-46971D01*
X94270Y-46971D01*
X90060Y-46971D01*
X90010Y-46971D01*
X90010Y-46094D01*
X90010Y-45510D01*
X90010Y-45410D01*
X90010Y-44825D01*
X89923Y-44776D01*
X89891Y-44783D01*
X89699Y-44888D01*
X89561Y-45059D01*
X89500Y-45270D01*
X89500Y-45410D01*
X90010Y-45410D01*
X90010Y-45510D01*
X89500Y-45510D01*
X89500Y-45650D01*
X89561Y-45860D01*
X89699Y-46031D01*
X89891Y-46136D01*
X89923Y-46143D01*
X90010Y-46094D01*
X90010Y-46971D01*
X89400Y-46971D01*
X89400Y-45640D01*
X89400Y-45500D01*
X88890Y-45500D01*
X88890Y-46084D01*
X88976Y-46133D01*
X89008Y-46126D01*
X89200Y-46021D01*
X89338Y-45850D01*
X89400Y-45640D01*
X89400Y-46971D01*
X88840Y-46971D01*
X87190Y-46971D01*
X87190Y-45620D01*
X87190Y-45480D01*
X86680Y-45480D01*
X86680Y-46064D01*
X86766Y-46113D01*
X86798Y-46106D01*
X86990Y-46001D01*
X87128Y-45830D01*
X87190Y-45620D01*
X87190Y-46971D01*
X87100Y-46971D01*
X87100Y-46971D01*
X86966Y-46998D01*
X86853Y-47073D01*
X86853Y-47073D01*
X86383Y-47543D01*
X86308Y-47656D01*
X86303Y-47678D01*
X86281Y-47790D01*
X86281Y-47790D01*
X86281Y-47848D01*
X86234Y-47880D01*
X86190Y-47946D01*
X86190Y-47930D01*
X86152Y-47838D01*
X86081Y-47768D01*
X85989Y-47730D01*
X85890Y-47729D01*
X85270Y-47729D01*
X85178Y-47767D01*
X85129Y-47817D01*
X85129Y-47231D01*
X85129Y-47231D01*
X85129Y-47231D01*
X85124Y-47207D01*
X85105Y-47112D01*
X85105Y-47112D01*
X85038Y-47012D01*
X85038Y-47012D01*
X83847Y-45821D01*
X83847Y-36731D01*
X83838Y-36475D01*
X83758Y-36282D01*
X83653Y-36243D01*
X83583Y-36314D01*
X83583Y-36173D01*
X83544Y-36068D01*
X83304Y-35978D01*
X83048Y-35988D01*
X82855Y-36068D01*
X82816Y-36173D01*
X83200Y-36556D01*
X83583Y-36173D01*
X83583Y-36314D01*
X83270Y-36626D01*
X83653Y-37009D01*
X83758Y-36971D01*
X83847Y-36731D01*
X83847Y-45821D01*
X83820Y-45794D01*
X83843Y-45739D01*
X83843Y-45483D01*
X83843Y-44105D01*
X83843Y-42727D01*
X83843Y-40633D01*
X83843Y-39255D01*
X83843Y-37877D01*
X83746Y-37640D01*
X83583Y-37477D01*
X83583Y-37080D01*
X83200Y-36697D01*
X83129Y-36768D01*
X83129Y-36626D01*
X82746Y-36243D01*
X82641Y-36282D01*
X82552Y-36522D01*
X82561Y-36778D01*
X82641Y-36971D01*
X82746Y-37009D01*
X83129Y-36626D01*
X83129Y-36768D01*
X82816Y-37080D01*
X82855Y-37185D01*
X83095Y-37274D01*
X83351Y-37265D01*
X83544Y-37185D01*
X83583Y-37080D01*
X83583Y-37477D01*
X83565Y-37459D01*
X83328Y-37361D01*
X83072Y-37361D01*
X82835Y-37458D01*
X82654Y-37639D01*
X82556Y-37876D01*
X82556Y-38132D01*
X82653Y-38369D01*
X82834Y-38550D01*
X83071Y-38648D01*
X83327Y-38648D01*
X83564Y-38550D01*
X83745Y-38369D01*
X83843Y-38133D01*
X83843Y-37877D01*
X83843Y-39255D01*
X83746Y-39018D01*
X83565Y-38837D01*
X83328Y-38739D01*
X83072Y-38739D01*
X82835Y-38836D01*
X82654Y-39017D01*
X82556Y-39254D01*
X82556Y-39510D01*
X82653Y-39746D01*
X82834Y-39928D01*
X83071Y-40026D01*
X83327Y-40026D01*
X83564Y-39928D01*
X83745Y-39747D01*
X83843Y-39511D01*
X83843Y-39255D01*
X83843Y-40633D01*
X83746Y-40396D01*
X83565Y-40215D01*
X83328Y-40117D01*
X83072Y-40116D01*
X82835Y-40214D01*
X82654Y-40395D01*
X82556Y-40632D01*
X82556Y-40888D01*
X82653Y-41124D01*
X82834Y-41306D01*
X83071Y-41404D01*
X83327Y-41404D01*
X83564Y-41306D01*
X83745Y-41125D01*
X83843Y-40889D01*
X83843Y-40633D01*
X83843Y-42727D01*
X83746Y-42490D01*
X83565Y-42309D01*
X83328Y-42211D01*
X83072Y-42211D01*
X82835Y-42309D01*
X82654Y-42490D01*
X82556Y-42726D01*
X82556Y-42982D01*
X82653Y-43219D01*
X82834Y-43400D01*
X83071Y-43498D01*
X83327Y-43498D01*
X83564Y-43401D01*
X83745Y-43220D01*
X83843Y-42983D01*
X83843Y-42727D01*
X83843Y-44105D01*
X83746Y-43868D01*
X83565Y-43687D01*
X83328Y-43589D01*
X83072Y-43589D01*
X82835Y-43687D01*
X82654Y-43867D01*
X82556Y-44104D01*
X82556Y-44360D01*
X82653Y-44597D01*
X82834Y-44778D01*
X83071Y-44876D01*
X83327Y-44876D01*
X83564Y-44779D01*
X83745Y-44598D01*
X83843Y-44361D01*
X83843Y-44105D01*
X83843Y-45483D01*
X83746Y-45246D01*
X83565Y-45065D01*
X83328Y-44967D01*
X83072Y-44967D01*
X82835Y-45065D01*
X82654Y-45245D01*
X82556Y-45482D01*
X82556Y-45738D01*
X82653Y-45975D01*
X82834Y-46156D01*
X83071Y-46254D01*
X83327Y-46254D01*
X83383Y-46231D01*
X84510Y-47359D01*
X84510Y-48960D01*
X84534Y-49078D01*
X84601Y-49178D01*
X85061Y-49638D01*
X85161Y-49705D01*
X85161Y-49705D01*
X85280Y-49729D01*
X90400Y-49729D01*
X90518Y-49705D01*
X90518Y-49705D01*
X90618Y-49638D01*
X91089Y-49167D01*
X91274Y-49131D01*
X91455Y-49009D01*
X91577Y-48828D01*
X91620Y-48613D01*
X91620Y-48306D01*
X91577Y-48091D01*
X91455Y-47910D01*
X91274Y-47788D01*
X91060Y-47746D01*
X90845Y-47788D01*
X90664Y-47910D01*
X90560Y-48065D01*
X90455Y-47910D01*
X90408Y-47878D01*
X90408Y-47668D01*
X93921Y-47668D01*
X93921Y-47848D01*
X93874Y-47880D01*
X93770Y-48035D01*
X93665Y-47880D01*
X93484Y-47758D01*
X93270Y-47716D01*
X93055Y-47758D01*
X92874Y-47880D01*
X92830Y-47946D01*
X92830Y-47930D01*
X92792Y-47838D01*
X92721Y-47768D01*
X92629Y-47730D01*
X92530Y-47729D01*
X91910Y-47729D01*
X91818Y-47767D01*
X91748Y-47838D01*
X91710Y-47930D01*
X91709Y-48029D01*
X91709Y-48929D01*
X91747Y-49021D01*
X91818Y-49091D01*
X91910Y-49129D01*
X92009Y-49130D01*
X92629Y-49130D01*
X92721Y-49092D01*
X92791Y-49021D01*
X92829Y-48929D01*
X92829Y-48913D01*
X92874Y-48979D01*
X93055Y-49101D01*
X93270Y-49143D01*
X93484Y-49101D01*
X93665Y-48979D01*
X93770Y-48824D01*
X93874Y-48979D01*
X93921Y-49011D01*
X93921Y-49272D01*
X93355Y-49838D01*
X85164Y-49838D01*
X83837Y-48511D01*
X83843Y-48495D01*
X83843Y-48239D01*
X83843Y-46861D01*
X83746Y-46624D01*
X83565Y-46443D01*
X83328Y-46345D01*
X83072Y-46345D01*
X82835Y-46442D01*
X82654Y-46623D01*
X82556Y-46860D01*
X82556Y-47116D01*
X82653Y-47353D01*
X82834Y-47534D01*
X83071Y-47632D01*
X83327Y-47632D01*
X83564Y-47534D01*
X83745Y-47354D01*
X83843Y-47117D01*
X83843Y-46861D01*
X83843Y-48239D01*
X83746Y-48002D01*
X83565Y-47821D01*
X83328Y-47723D01*
X83072Y-47723D01*
X82835Y-47820D01*
X82654Y-48001D01*
X82556Y-48238D01*
X82556Y-48494D01*
X82653Y-48731D01*
X82834Y-48912D01*
X83071Y-49010D01*
X83327Y-49010D01*
X83344Y-49003D01*
X83521Y-49181D01*
X83328Y-49101D01*
X83072Y-49101D01*
X82835Y-49198D01*
X82654Y-49379D01*
X82556Y-49616D01*
X82556Y-49872D01*
X82653Y-50109D01*
X82834Y-50290D01*
X83071Y-50388D01*
X83327Y-50388D01*
X83564Y-50290D01*
X83745Y-50109D01*
X83843Y-49873D01*
X83843Y-49617D01*
X83763Y-49423D01*
X84773Y-50433D01*
X84773Y-50433D01*
X84886Y-50508D01*
X85020Y-50535D01*
X93499Y-50535D01*
X93500Y-50535D01*
X93500Y-50535D01*
X93611Y-50513D01*
X93633Y-50508D01*
X93633Y-50508D01*
X93746Y-50433D01*
X94516Y-49663D01*
X94516Y-49663D01*
X94516Y-49663D01*
X94591Y-49550D01*
X94618Y-49416D01*
X94618Y-49416D01*
X94618Y-49416D01*
X94618Y-49011D01*
X94665Y-48979D01*
X94770Y-48824D01*
X94874Y-48979D01*
X95055Y-49101D01*
X95270Y-49143D01*
X95484Y-49101D01*
X95665Y-48979D01*
X95787Y-48798D01*
X95830Y-48583D01*
X95830Y-48276D01*
X95787Y-48061D01*
X95665Y-47880D01*
X95484Y-47758D01*
X95270Y-47716D01*
X95055Y-47758D01*
X94874Y-47880D01*
X94770Y-48035D01*
X94665Y-47880D01*
X94618Y-47848D01*
X94618Y-47668D01*
X98141Y-47668D01*
X98141Y-47848D01*
X98094Y-47880D01*
X98050Y-47946D01*
X98050Y-47930D01*
X98012Y-47838D01*
X97941Y-47768D01*
X97849Y-47730D01*
X97750Y-47729D01*
X97130Y-47729D01*
X97038Y-47767D01*
X96968Y-47838D01*
X96930Y-47930D01*
X96929Y-48029D01*
X96929Y-48929D01*
X96967Y-49021D01*
X97038Y-49091D01*
X97130Y-49129D01*
X97229Y-49130D01*
X97849Y-49130D01*
X97941Y-49092D01*
X98011Y-49021D01*
X98049Y-48929D01*
X98049Y-48913D01*
X98094Y-48979D01*
X98275Y-49101D01*
X98490Y-49143D01*
X98704Y-49101D01*
X98885Y-48979D01*
X99007Y-48798D01*
X99050Y-48583D01*
X99050Y-48276D01*
X99007Y-48061D01*
X98885Y-47880D01*
X98838Y-47848D01*
X98838Y-47668D01*
X101445Y-47668D01*
X101445Y-47850D01*
X101398Y-47882D01*
X101294Y-48037D01*
X101189Y-47882D01*
X101008Y-47760D01*
X100794Y-47718D01*
X100579Y-47760D01*
X100398Y-47882D01*
X100354Y-47948D01*
X100354Y-47932D01*
X100316Y-47840D01*
X100245Y-47770D01*
X100153Y-47732D01*
X100054Y-47731D01*
X99434Y-47731D01*
X99342Y-47769D01*
X99272Y-47840D01*
X99234Y-47932D01*
X99233Y-48031D01*
X99233Y-48931D01*
X99271Y-49023D01*
X99342Y-49093D01*
X99434Y-49131D01*
X99533Y-49132D01*
X100153Y-49132D01*
X100245Y-49094D01*
X100315Y-49023D01*
X100353Y-48931D01*
X100353Y-48915D01*
X100398Y-48981D01*
X100579Y-49103D01*
X100794Y-49145D01*
X101008Y-49103D01*
X101189Y-48981D01*
X101294Y-48826D01*
X101398Y-48981D01*
X101579Y-49103D01*
X101794Y-49145D01*
X102008Y-49103D01*
X102189Y-48981D01*
X102294Y-48826D01*
X102398Y-48981D01*
X102579Y-49103D01*
X102794Y-49145D01*
X103008Y-49103D01*
X103189Y-48981D01*
X103311Y-48800D01*
X103354Y-48585D01*
X103354Y-48278D01*
X103311Y-48063D01*
X103231Y-47943D01*
X103670Y-48382D01*
X103670Y-48603D01*
X103712Y-48818D01*
X103834Y-48999D01*
X104015Y-49121D01*
X104230Y-49163D01*
X104444Y-49121D01*
X104625Y-48999D01*
X104730Y-48844D01*
X104834Y-48999D01*
X105015Y-49121D01*
X105230Y-49163D01*
X105444Y-49121D01*
X105589Y-49023D01*
X105646Y-49061D01*
X105780Y-49088D01*
X105920Y-49088D01*
X105944Y-49147D01*
X106092Y-49294D01*
X106285Y-49374D01*
X106493Y-49375D01*
X106687Y-49295D01*
X106784Y-49198D01*
X107176Y-49198D01*
X107272Y-49294D01*
X107465Y-49374D01*
X107673Y-49375D01*
X107867Y-49295D01*
X107964Y-49198D01*
X108336Y-49198D01*
X108432Y-49294D01*
X108625Y-49374D01*
X108833Y-49375D01*
X109027Y-49295D01*
X109124Y-49198D01*
X109209Y-49198D01*
X109210Y-49198D01*
X109210Y-49198D01*
X109321Y-49176D01*
X109343Y-49171D01*
X109343Y-49171D01*
X109456Y-49096D01*
X109906Y-48646D01*
X109906Y-48646D01*
X109906Y-48646D01*
X109981Y-48533D01*
X110008Y-48400D01*
X110008Y-48400D01*
X110008Y-48399D01*
X110008Y-48111D01*
X110038Y-48141D01*
X110130Y-48179D01*
X110229Y-48180D01*
X111029Y-48180D01*
X111121Y-48142D01*
X111191Y-48071D01*
X111229Y-47979D01*
X111230Y-47880D01*
X111230Y-47280D01*
X111192Y-47188D01*
X111121Y-47118D01*
X111029Y-47080D01*
X110930Y-47079D01*
X110130Y-47079D01*
X110078Y-47101D01*
X110029Y-47051D01*
X110029Y-46832D01*
X110038Y-46841D01*
X110130Y-46879D01*
X110229Y-46880D01*
X111029Y-46880D01*
X111121Y-46842D01*
X111191Y-46771D01*
X111229Y-46679D01*
X111229Y-46672D01*
X111252Y-46694D01*
X111445Y-46774D01*
X111653Y-46775D01*
X111847Y-46695D01*
X111994Y-46547D01*
X112074Y-46354D01*
X112075Y-46146D01*
X112018Y-46009D01*
X113351Y-46009D01*
X113351Y-46949D01*
X113350Y-46949D01*
X113258Y-46987D01*
X113188Y-47058D01*
X113150Y-47150D01*
X113149Y-47249D01*
X113149Y-48049D01*
X113187Y-48141D01*
X113258Y-48211D01*
X113350Y-48249D01*
X113449Y-48250D01*
X114049Y-48250D01*
X114141Y-48212D01*
X114211Y-48141D01*
X114249Y-48049D01*
X114250Y-47950D01*
X114250Y-47150D01*
X114212Y-47058D01*
X114141Y-46988D01*
X114049Y-46950D01*
X114048Y-46950D01*
X114048Y-46410D01*
X114104Y-46547D01*
X114252Y-46694D01*
X114445Y-46774D01*
X114653Y-46775D01*
X114847Y-46695D01*
X114994Y-46547D01*
X115074Y-46354D01*
X115075Y-46146D01*
X115051Y-46088D01*
X115504Y-46541D01*
X115458Y-46654D01*
X115457Y-46949D01*
X115496Y-47042D01*
X115441Y-46987D01*
X115349Y-46949D01*
X115112Y-46950D01*
X115050Y-47012D01*
X115050Y-47550D01*
X115487Y-47550D01*
X115550Y-47487D01*
X115550Y-47249D01*
X115549Y-47172D01*
X115570Y-47222D01*
X115779Y-47431D01*
X116051Y-47544D01*
X116346Y-47545D01*
X116619Y-47432D01*
X116828Y-47223D01*
X116941Y-46951D01*
X116942Y-46655D01*
X116942Y-53273D01*
X116667Y-53159D01*
X116333Y-53159D01*
X116024Y-53287D01*
X115787Y-53523D01*
X115659Y-53832D01*
X115659Y-54166D01*
X115787Y-54475D01*
X116023Y-54712D01*
X116332Y-54840D01*
X116666Y-54840D01*
X116975Y-54713D01*
X117212Y-54476D01*
X117340Y-54167D01*
X117340Y-53833D01*
X117340Y-54950D01*
X115550Y-54950D01*
X115550Y-47950D01*
X115550Y-47712D01*
X115487Y-47650D01*
X115050Y-47650D01*
X115050Y-48187D01*
X115112Y-48250D01*
X115349Y-48250D01*
X115441Y-48212D01*
X115511Y-48141D01*
X115549Y-48049D01*
X115550Y-47950D01*
X115550Y-54950D01*
X114950Y-54950D01*
X114950Y-48187D01*
X114950Y-47650D01*
X114950Y-47550D01*
X114950Y-47012D01*
X114887Y-46950D01*
X114650Y-46949D01*
X114558Y-46987D01*
X114488Y-47058D01*
X114450Y-47150D01*
X114449Y-47249D01*
X114450Y-47487D01*
X114512Y-47550D01*
X114950Y-47550D01*
X114950Y-47650D01*
X114512Y-47650D01*
X114450Y-47712D01*
X114449Y-47950D01*
X114450Y-48049D01*
X114488Y-48141D01*
X114558Y-48212D01*
X114650Y-48250D01*
X114887Y-48250D01*
X114950Y-48187D01*
X114950Y-54950D01*
X86340Y-54950D01*
X86340Y-53833D01*
X86213Y-53524D01*
X85976Y-53287D01*
X85667Y-53159D01*
X85333Y-53159D01*
X85024Y-53287D01*
X84787Y-53523D01*
X84659Y-53832D01*
X84659Y-54166D01*
X84787Y-54475D01*
X85023Y-54712D01*
X85332Y-54840D01*
X85666Y-54840D01*
X85975Y-54713D01*
X86212Y-54476D01*
X86340Y-54167D01*
X86340Y-53833D01*
X86340Y-54950D01*
X83843Y-54950D01*
X83843Y-52373D01*
X83843Y-50995D01*
X83746Y-50758D01*
X83565Y-50577D01*
X83328Y-50479D01*
X83072Y-50479D01*
X82835Y-50576D01*
X82654Y-50757D01*
X82556Y-50994D01*
X82556Y-51250D01*
X82653Y-51486D01*
X82834Y-51668D01*
X83071Y-51766D01*
X83327Y-51766D01*
X83564Y-51668D01*
X83745Y-51487D01*
X83843Y-51251D01*
X83843Y-50995D01*
X83843Y-52373D01*
X83746Y-52136D01*
X83565Y-51955D01*
X83328Y-51857D01*
X83072Y-51856D01*
X82835Y-51954D01*
X82654Y-52135D01*
X82556Y-52372D01*
X82556Y-52628D01*
X82653Y-52864D01*
X82834Y-53046D01*
X83071Y-53144D01*
X83327Y-53144D01*
X83564Y-53046D01*
X83745Y-52865D01*
X83843Y-52629D01*
X83843Y-52373D01*
X83843Y-54950D01*
X81050Y-54950D01*
X81050Y-27650D01*
X117950Y-27650D01*
X117950Y-54950D01*
X117950Y-54950D01*
G37*
G54D36*
X117950Y-54950D02*
X117340Y-54950D01*
X117340Y-53833D01*
X117340Y-28333D01*
X117213Y-28024D01*
X116976Y-27787D01*
X116667Y-27659D01*
X116333Y-27659D01*
X116024Y-27787D01*
X115787Y-28023D01*
X115659Y-28332D01*
X115659Y-28666D01*
X115787Y-28975D01*
X116023Y-29212D01*
X116332Y-29340D01*
X116666Y-29340D01*
X116975Y-29213D01*
X117212Y-28976D01*
X117340Y-28667D01*
X117340Y-28333D01*
X117340Y-53833D01*
X117310Y-53761D01*
X117310Y-33050D01*
X117310Y-31251D01*
X103889Y-31251D01*
X103889Y-33050D01*
X117310Y-33050D01*
X117310Y-53761D01*
X117213Y-53524D01*
X116976Y-53287D01*
X116945Y-53274D01*
X116945Y-36343D01*
X116937Y-36048D01*
X116840Y-35812D01*
X116724Y-35761D01*
X116654Y-35832D01*
X116654Y-35690D01*
X116603Y-35575D01*
X116327Y-35469D01*
X116032Y-35477D01*
X115796Y-35575D01*
X115745Y-35690D01*
X116200Y-36145D01*
X116654Y-35690D01*
X116654Y-35832D01*
X116270Y-36215D01*
X116724Y-36669D01*
X116840Y-36619D01*
X116945Y-36343D01*
X116945Y-53274D01*
X116942Y-53273D01*
X116942Y-46655D01*
X116829Y-46382D01*
X116620Y-46173D01*
X116348Y-46060D01*
X116053Y-46060D01*
X115943Y-46105D01*
X114958Y-45121D01*
X114925Y-45099D01*
X114947Y-45017D01*
X114650Y-44720D01*
X114352Y-45017D01*
X114356Y-45030D01*
X112011Y-45030D01*
X112094Y-44947D01*
X112174Y-44754D01*
X112175Y-44546D01*
X112130Y-44437D01*
X114168Y-44437D01*
X114120Y-44574D01*
X114131Y-44782D01*
X114189Y-44922D01*
X114282Y-44947D01*
X114579Y-44650D01*
X114573Y-44644D01*
X114644Y-44573D01*
X114650Y-44579D01*
X114655Y-44573D01*
X114726Y-44644D01*
X114720Y-44650D01*
X115017Y-44947D01*
X115110Y-44922D01*
X115148Y-44813D01*
X115387Y-45052D01*
X115488Y-45119D01*
X115488Y-45119D01*
X115517Y-45125D01*
X115570Y-45254D01*
X115779Y-45463D01*
X116051Y-45576D01*
X116346Y-45576D01*
X116619Y-45463D01*
X116828Y-45255D01*
X116941Y-44982D01*
X116942Y-44687D01*
X116829Y-44414D01*
X116620Y-44205D01*
X116348Y-44092D01*
X116053Y-44091D01*
X115780Y-44204D01*
X115596Y-44387D01*
X115209Y-43999D01*
X115746Y-43462D01*
X115779Y-43494D01*
X116051Y-43607D01*
X116346Y-43608D01*
X116619Y-43495D01*
X116828Y-43286D01*
X116941Y-43014D01*
X116942Y-42718D01*
X116829Y-42445D01*
X116620Y-42236D01*
X116348Y-42123D01*
X116053Y-42123D01*
X115780Y-42236D01*
X115571Y-42444D01*
X115458Y-42717D01*
X115457Y-42877D01*
X115268Y-43066D01*
X115210Y-42927D01*
X115117Y-42902D01*
X114820Y-43200D01*
X114826Y-43205D01*
X114755Y-43276D01*
X114750Y-43270D01*
X114744Y-43276D01*
X114679Y-43211D01*
X114673Y-43205D01*
X114679Y-43200D01*
X114673Y-43194D01*
X114744Y-43123D01*
X114750Y-43129D01*
X115047Y-42832D01*
X115022Y-42739D01*
X114825Y-42670D01*
X114617Y-42681D01*
X114597Y-42689D01*
X115770Y-41517D01*
X115779Y-41526D01*
X116051Y-41639D01*
X116346Y-41639D01*
X116619Y-41526D01*
X116828Y-41318D01*
X116941Y-41045D01*
X116942Y-40750D01*
X116942Y-38037D01*
X116829Y-37764D01*
X116654Y-37588D01*
X116654Y-36740D01*
X116200Y-36286D01*
X116129Y-36357D01*
X116129Y-36215D01*
X115675Y-35761D01*
X115559Y-35812D01*
X115454Y-36088D01*
X115462Y-36383D01*
X115559Y-36619D01*
X115675Y-36669D01*
X116129Y-36215D01*
X116129Y-36357D01*
X115745Y-36740D01*
X115796Y-36855D01*
X116072Y-36961D01*
X116367Y-36953D01*
X116603Y-36855D01*
X116654Y-36740D01*
X116654Y-37588D01*
X116620Y-37555D01*
X116348Y-37442D01*
X116053Y-37441D01*
X115780Y-37554D01*
X115571Y-37763D01*
X115497Y-37940D01*
X115483Y-37940D01*
X115347Y-37805D01*
X115154Y-37725D01*
X114946Y-37724D01*
X114753Y-37804D01*
X114605Y-37952D01*
X114525Y-38145D01*
X114524Y-38353D01*
X114604Y-38547D01*
X114752Y-38694D01*
X114945Y-38774D01*
X115153Y-38775D01*
X115347Y-38695D01*
X115483Y-38559D01*
X115551Y-38559D01*
X115570Y-38604D01*
X115779Y-38813D01*
X116051Y-38926D01*
X116346Y-38926D01*
X116619Y-38813D01*
X116828Y-38605D01*
X116941Y-38332D01*
X116942Y-38037D01*
X116942Y-40750D01*
X116829Y-40477D01*
X116620Y-40268D01*
X116348Y-40155D01*
X116053Y-40154D01*
X115780Y-40267D01*
X115571Y-40476D01*
X115458Y-40748D01*
X115457Y-40955D01*
X114654Y-41758D01*
X114654Y-40393D01*
X114644Y-40155D01*
X114572Y-39982D01*
X114472Y-39948D01*
X114401Y-40019D01*
X114401Y-39877D01*
X114367Y-39777D01*
X114143Y-39695D01*
X113905Y-39705D01*
X113732Y-39777D01*
X113698Y-39877D01*
X114050Y-40229D01*
X114401Y-39877D01*
X114401Y-40019D01*
X114120Y-40300D01*
X114472Y-40651D01*
X114572Y-40617D01*
X114654Y-40393D01*
X114654Y-41758D01*
X114401Y-42011D01*
X114401Y-40722D01*
X114050Y-40370D01*
X113979Y-40441D01*
X113979Y-40300D01*
X113627Y-39948D01*
X113527Y-39982D01*
X113445Y-40206D01*
X113455Y-40444D01*
X113527Y-40617D01*
X113627Y-40651D01*
X113979Y-40300D01*
X113979Y-40441D01*
X113698Y-40722D01*
X113732Y-40822D01*
X113956Y-40904D01*
X114194Y-40894D01*
X114367Y-40822D01*
X114401Y-40722D01*
X114401Y-42011D01*
X114171Y-42240D01*
X111990Y-42240D01*
X112272Y-41958D01*
X112272Y-41958D01*
X112272Y-41958D01*
X112339Y-41858D01*
X112339Y-41858D01*
X112363Y-41740D01*
X112363Y-40900D01*
X112449Y-40900D01*
X112541Y-40862D01*
X112611Y-40791D01*
X112649Y-40699D01*
X112650Y-40600D01*
X112650Y-39900D01*
X112612Y-39808D01*
X112541Y-39738D01*
X112449Y-39700D01*
X112350Y-39699D01*
X111650Y-39699D01*
X111558Y-39737D01*
X111488Y-39808D01*
X111450Y-39900D01*
X111449Y-39999D01*
X111449Y-40699D01*
X111487Y-40791D01*
X111558Y-40861D01*
X111650Y-40899D01*
X111745Y-40900D01*
X111745Y-41611D01*
X110857Y-42499D01*
X110857Y-42493D01*
X110845Y-42464D01*
X110857Y-42435D01*
X110857Y-42423D01*
X110794Y-42361D01*
X110778Y-42361D01*
X110749Y-42331D01*
X110702Y-42312D01*
X110794Y-42312D01*
X110857Y-42249D01*
X110857Y-42237D01*
X110819Y-42145D01*
X110749Y-42075D01*
X110669Y-42042D01*
X110669Y-40735D01*
X110658Y-40510D01*
X110593Y-40353D01*
X110496Y-40323D01*
X110426Y-40394D01*
X110426Y-40253D01*
X110396Y-40156D01*
X110300Y-40121D01*
X110300Y-39650D01*
X110300Y-38949D01*
X110299Y-38850D01*
X110261Y-38758D01*
X110191Y-38687D01*
X110099Y-38649D01*
X109862Y-38650D01*
X109800Y-38712D01*
X109800Y-39250D01*
X110237Y-39250D01*
X110300Y-39187D01*
X110300Y-38949D01*
X110300Y-39650D01*
X110300Y-39412D01*
X110237Y-39350D01*
X109800Y-39350D01*
X109800Y-39887D01*
X109862Y-39950D01*
X110099Y-39950D01*
X110191Y-39912D01*
X110261Y-39841D01*
X110299Y-39749D01*
X110300Y-39650D01*
X110300Y-40121D01*
X110185Y-40080D01*
X109960Y-40091D01*
X109803Y-40156D01*
X109773Y-40253D01*
X110100Y-40579D01*
X110426Y-40253D01*
X110426Y-40394D01*
X110170Y-40650D01*
X110496Y-40976D01*
X110593Y-40946D01*
X110669Y-40735D01*
X110669Y-42042D01*
X110657Y-42037D01*
X110557Y-42037D01*
X110426Y-42037D01*
X110426Y-41046D01*
X110100Y-40720D01*
X110029Y-40791D01*
X110029Y-40650D01*
X109703Y-40323D01*
X109606Y-40353D01*
X109530Y-40564D01*
X109541Y-40789D01*
X109606Y-40946D01*
X109703Y-40976D01*
X110029Y-40650D01*
X110029Y-40791D01*
X109773Y-41046D01*
X109803Y-41143D01*
X110014Y-41219D01*
X110239Y-41208D01*
X110396Y-41143D01*
X110426Y-41046D01*
X110426Y-42037D01*
X110414Y-42037D01*
X110352Y-42099D01*
X110352Y-42293D01*
X110351Y-42293D01*
X110302Y-42283D01*
X110252Y-42283D01*
X110252Y-42099D01*
X110189Y-42037D01*
X110046Y-42037D01*
X109947Y-42037D01*
X109855Y-42075D01*
X109785Y-42145D01*
X109747Y-42237D01*
X109747Y-42249D01*
X109781Y-42283D01*
X109628Y-42283D01*
X109446Y-42102D01*
X109578Y-41970D01*
X109664Y-41762D01*
X109665Y-41538D01*
X109579Y-41330D01*
X109420Y-41171D01*
X109221Y-41088D01*
X109235Y-41068D01*
X109235Y-41068D01*
X109259Y-40950D01*
X109259Y-39862D01*
X109308Y-39912D01*
X109400Y-39950D01*
X109637Y-39950D01*
X109700Y-39887D01*
X109700Y-39350D01*
X109262Y-39350D01*
X109200Y-39412D01*
X109199Y-39628D01*
X109168Y-39581D01*
X109000Y-39412D01*
X109000Y-38850D01*
X108962Y-38758D01*
X108891Y-38688D01*
X108799Y-38650D01*
X108709Y-38649D01*
X108764Y-38594D01*
X108802Y-38502D01*
X108802Y-38477D01*
X108910Y-38498D01*
X109006Y-38498D01*
X109102Y-38594D01*
X109295Y-38674D01*
X109340Y-38674D01*
X109308Y-38687D01*
X109238Y-38758D01*
X109200Y-38850D01*
X109199Y-38949D01*
X109200Y-39187D01*
X109262Y-39250D01*
X109700Y-39250D01*
X109700Y-38712D01*
X109637Y-38650D01*
X109564Y-38649D01*
X109697Y-38595D01*
X109844Y-38447D01*
X109924Y-38254D01*
X109925Y-38117D01*
X110944Y-37098D01*
X111649Y-37098D01*
X111649Y-37149D01*
X111687Y-37241D01*
X111758Y-37311D01*
X111850Y-37349D01*
X111949Y-37350D01*
X112649Y-37350D01*
X112741Y-37312D01*
X112811Y-37241D01*
X112849Y-37149D01*
X112850Y-37050D01*
X112850Y-36642D01*
X113894Y-35598D01*
X114534Y-35598D01*
X114562Y-35666D01*
X114633Y-35736D01*
X114725Y-35774D01*
X114824Y-35775D01*
X115374Y-35775D01*
X115466Y-35737D01*
X115536Y-35666D01*
X115574Y-35574D01*
X115575Y-35475D01*
X115575Y-34925D01*
X115537Y-34833D01*
X115466Y-34763D01*
X115374Y-34725D01*
X115275Y-34724D01*
X114725Y-34724D01*
X114633Y-34762D01*
X114563Y-34833D01*
X114534Y-34901D01*
X113750Y-34901D01*
X113616Y-34928D01*
X113503Y-35003D01*
X113503Y-35003D01*
X112854Y-35652D01*
X112854Y-34843D01*
X112844Y-34605D01*
X112772Y-34432D01*
X112672Y-34398D01*
X112601Y-34469D01*
X112601Y-34327D01*
X112567Y-34227D01*
X112343Y-34145D01*
X112105Y-34155D01*
X111932Y-34227D01*
X111898Y-34327D01*
X112250Y-34679D01*
X112601Y-34327D01*
X112601Y-34469D01*
X112320Y-34750D01*
X112672Y-35101D01*
X112772Y-35067D01*
X112854Y-34843D01*
X112854Y-35652D01*
X112601Y-35905D01*
X112601Y-35172D01*
X112250Y-34820D01*
X112179Y-34891D01*
X112179Y-34750D01*
X111827Y-34398D01*
X111727Y-34432D01*
X111645Y-34656D01*
X111655Y-34894D01*
X111727Y-35067D01*
X111827Y-35101D01*
X112179Y-34750D01*
X112179Y-34891D01*
X111898Y-35172D01*
X111932Y-35272D01*
X112156Y-35354D01*
X112394Y-35344D01*
X112567Y-35272D01*
X112601Y-35172D01*
X112601Y-35905D01*
X112357Y-36149D01*
X111850Y-36149D01*
X111758Y-36187D01*
X111688Y-36258D01*
X111650Y-36350D01*
X111649Y-36401D01*
X110800Y-36401D01*
X110666Y-36428D01*
X110553Y-36503D01*
X110553Y-36503D01*
X109929Y-37127D01*
X109929Y-36225D01*
X109918Y-36017D01*
X109860Y-35877D01*
X109767Y-35852D01*
X109697Y-35923D01*
X109697Y-35782D01*
X109672Y-35689D01*
X109475Y-35620D01*
X109267Y-35631D01*
X109127Y-35689D01*
X109102Y-35782D01*
X109400Y-36079D01*
X109697Y-35782D01*
X109697Y-35923D01*
X109470Y-36150D01*
X109767Y-36447D01*
X109860Y-36422D01*
X109929Y-36225D01*
X109929Y-37127D01*
X109697Y-37360D01*
X109697Y-36517D01*
X109400Y-36220D01*
X109329Y-36291D01*
X109329Y-36150D01*
X109032Y-35852D01*
X108939Y-35877D01*
X108870Y-36074D01*
X108881Y-36282D01*
X108939Y-36422D01*
X109032Y-36447D01*
X109329Y-36150D01*
X109329Y-36291D01*
X109102Y-36517D01*
X109127Y-36610D01*
X109324Y-36679D01*
X109532Y-36668D01*
X109672Y-36610D01*
X109697Y-36517D01*
X109697Y-37360D01*
X109432Y-37625D01*
X109296Y-37624D01*
X109103Y-37704D01*
X109095Y-37712D01*
X109043Y-37678D01*
X108910Y-37651D01*
X108806Y-37651D01*
X108806Y-36718D01*
X108806Y-35318D01*
X108798Y-35038D01*
X108707Y-34820D01*
X108596Y-34774D01*
X108525Y-34844D01*
X108525Y-34703D01*
X108479Y-34592D01*
X108218Y-34493D01*
X107938Y-34501D01*
X107720Y-34592D01*
X107674Y-34703D01*
X108100Y-35129D01*
X108525Y-34703D01*
X108525Y-34844D01*
X108170Y-35200D01*
X108596Y-35625D01*
X108707Y-35579D01*
X108806Y-35318D01*
X108806Y-36718D01*
X108798Y-36438D01*
X108707Y-36220D01*
X108596Y-36174D01*
X108525Y-36244D01*
X108525Y-36103D01*
X108479Y-35992D01*
X108233Y-35899D01*
X108261Y-35898D01*
X108479Y-35807D01*
X108525Y-35696D01*
X108100Y-35270D01*
X108029Y-35341D01*
X108029Y-35200D01*
X107603Y-34774D01*
X107492Y-34820D01*
X107393Y-35081D01*
X107401Y-35361D01*
X107492Y-35579D01*
X107603Y-35625D01*
X108029Y-35200D01*
X108029Y-35341D01*
X107674Y-35696D01*
X107720Y-35807D01*
X107966Y-35900D01*
X107938Y-35901D01*
X107720Y-35992D01*
X107674Y-36103D01*
X108100Y-36529D01*
X108525Y-36103D01*
X108525Y-36244D01*
X108170Y-36600D01*
X108596Y-37025D01*
X108707Y-36979D01*
X108806Y-36718D01*
X108806Y-37651D01*
X108802Y-37651D01*
X108802Y-37497D01*
X108764Y-37405D01*
X108694Y-37335D01*
X108602Y-37297D01*
X108503Y-37297D01*
X108263Y-37297D01*
X108479Y-37207D01*
X108525Y-37096D01*
X108100Y-36670D01*
X108029Y-36741D01*
X108029Y-36600D01*
X107603Y-36174D01*
X107492Y-36220D01*
X107393Y-36481D01*
X107401Y-36761D01*
X107492Y-36979D01*
X107603Y-37025D01*
X108029Y-36600D01*
X108029Y-36741D01*
X107674Y-37096D01*
X107720Y-37207D01*
X107956Y-37297D01*
X107597Y-37297D01*
X107505Y-37335D01*
X107435Y-37405D01*
X107397Y-37497D01*
X107397Y-37596D01*
X107397Y-38502D01*
X107435Y-38594D01*
X107505Y-38664D01*
X107597Y-38702D01*
X107696Y-38702D01*
X107993Y-38702D01*
X107938Y-38758D01*
X107900Y-38850D01*
X107899Y-38949D01*
X107899Y-39749D01*
X107937Y-39841D01*
X108008Y-39911D01*
X108100Y-39949D01*
X108199Y-39950D01*
X108640Y-39950D01*
X108640Y-40479D01*
X108579Y-40330D01*
X108420Y-40171D01*
X108212Y-40085D01*
X107988Y-40084D01*
X107780Y-40170D01*
X107760Y-40190D01*
X107650Y-40190D01*
X107650Y-40150D01*
X107612Y-40058D01*
X107541Y-39988D01*
X107449Y-39950D01*
X107350Y-39949D01*
X106550Y-39949D01*
X106458Y-39987D01*
X106450Y-39996D01*
X106441Y-39988D01*
X106349Y-39950D01*
X106250Y-39949D01*
X105450Y-39949D01*
X105358Y-39987D01*
X105350Y-39996D01*
X105341Y-39988D01*
X105249Y-39950D01*
X105150Y-39949D01*
X104350Y-39949D01*
X104258Y-39987D01*
X104188Y-40058D01*
X104150Y-40150D01*
X104149Y-40249D01*
X104149Y-40849D01*
X104187Y-40941D01*
X104258Y-41011D01*
X104350Y-41049D01*
X104449Y-41050D01*
X104490Y-41050D01*
X104490Y-41815D01*
X104386Y-41711D01*
X104201Y-41634D01*
X103999Y-41634D01*
X103813Y-41710D01*
X103671Y-41853D01*
X103594Y-42038D01*
X103594Y-42240D01*
X103643Y-42358D01*
X103613Y-42370D01*
X103471Y-42513D01*
X103394Y-42698D01*
X103394Y-42900D01*
X103452Y-43040D01*
X102914Y-43040D01*
X102859Y-42985D01*
X102859Y-42225D01*
X102874Y-42225D01*
X102966Y-42187D01*
X103036Y-42116D01*
X103074Y-42024D01*
X103075Y-41925D01*
X103075Y-41375D01*
X103037Y-41283D01*
X102966Y-41213D01*
X102874Y-41175D01*
X102775Y-41174D01*
X102775Y-41174D01*
X102847Y-41145D01*
X102994Y-40997D01*
X103074Y-40804D01*
X103075Y-40667D01*
X104162Y-39580D01*
X104187Y-39641D01*
X104258Y-39711D01*
X104350Y-39749D01*
X104449Y-39750D01*
X105249Y-39750D01*
X105341Y-39712D01*
X105349Y-39703D01*
X105358Y-39711D01*
X105450Y-39749D01*
X105549Y-39750D01*
X106349Y-39750D01*
X106441Y-39712D01*
X106511Y-39641D01*
X106549Y-39549D01*
X106550Y-39450D01*
X106550Y-38850D01*
X106512Y-38758D01*
X106441Y-38688D01*
X106349Y-38650D01*
X106250Y-38649D01*
X105778Y-38649D01*
X105811Y-38616D01*
X105849Y-38524D01*
X105850Y-38425D01*
X105850Y-37875D01*
X105812Y-37783D01*
X105741Y-37713D01*
X105739Y-37712D01*
X105863Y-37588D01*
X105879Y-37588D01*
X105903Y-37647D01*
X106101Y-37845D01*
X106359Y-37952D01*
X106639Y-37952D01*
X106897Y-37846D01*
X107095Y-37648D01*
X107202Y-37390D01*
X107202Y-37110D01*
X107096Y-36852D01*
X106898Y-36654D01*
X106767Y-36599D01*
X106897Y-36546D01*
X107095Y-36348D01*
X107202Y-36090D01*
X107202Y-35810D01*
X107096Y-35552D01*
X106898Y-35354D01*
X106640Y-35247D01*
X106360Y-35247D01*
X106102Y-35353D01*
X105904Y-35551D01*
X105883Y-35601D01*
X105854Y-35601D01*
X105854Y-35275D01*
X105843Y-35067D01*
X105785Y-34927D01*
X105692Y-34902D01*
X105622Y-34973D01*
X105622Y-34832D01*
X105597Y-34739D01*
X105400Y-34670D01*
X105192Y-34681D01*
X105052Y-34739D01*
X105027Y-34832D01*
X105325Y-35129D01*
X105622Y-34832D01*
X105622Y-34973D01*
X105395Y-35200D01*
X105692Y-35497D01*
X105785Y-35472D01*
X105854Y-35275D01*
X105854Y-35601D01*
X105613Y-35601D01*
X105622Y-35567D01*
X105325Y-35270D01*
X105254Y-35341D01*
X105254Y-35200D01*
X104957Y-34902D01*
X104864Y-34927D01*
X104795Y-35124D01*
X104806Y-35332D01*
X104864Y-35472D01*
X104957Y-35497D01*
X105254Y-35200D01*
X105254Y-35341D01*
X105027Y-35567D01*
X105036Y-35601D01*
X104700Y-35601D01*
X104700Y-35601D01*
X104566Y-35628D01*
X104453Y-35703D01*
X104453Y-35703D01*
X104104Y-36052D01*
X104104Y-34481D01*
X104093Y-34263D01*
X104031Y-34112D01*
X103935Y-34084D01*
X103865Y-34155D01*
X103865Y-34014D01*
X103837Y-33918D01*
X103631Y-33845D01*
X103413Y-33856D01*
X103262Y-33918D01*
X103234Y-34014D01*
X103550Y-34329D01*
X103865Y-34014D01*
X103865Y-34155D01*
X103620Y-34400D01*
X103935Y-34715D01*
X104031Y-34687D01*
X104104Y-34481D01*
X104104Y-36052D01*
X103865Y-36292D01*
X103865Y-34785D01*
X103550Y-34470D01*
X103479Y-34541D01*
X103479Y-34400D01*
X103164Y-34084D01*
X103100Y-34103D01*
X103100Y-34050D01*
X103062Y-33958D01*
X102991Y-33888D01*
X102899Y-33850D01*
X102800Y-33849D01*
X102200Y-33849D01*
X102108Y-33887D01*
X102038Y-33958D01*
X102000Y-34050D01*
X101999Y-34149D01*
X101999Y-34749D01*
X102037Y-34841D01*
X102108Y-34911D01*
X102200Y-34949D01*
X102299Y-34950D01*
X102899Y-34950D01*
X102991Y-34912D01*
X103061Y-34841D01*
X103099Y-34749D01*
X103100Y-34696D01*
X103164Y-34715D01*
X103479Y-34400D01*
X103479Y-34541D01*
X103234Y-34785D01*
X103262Y-34881D01*
X103468Y-34954D01*
X103686Y-34943D01*
X103837Y-34881D01*
X103865Y-34785D01*
X103865Y-36292D01*
X103705Y-36451D01*
X103000Y-36451D01*
X103000Y-36400D01*
X102962Y-36308D01*
X102891Y-36238D01*
X102799Y-36200D01*
X102700Y-36199D01*
X102000Y-36199D01*
X101908Y-36237D01*
X101838Y-36308D01*
X101800Y-36400D01*
X101799Y-36499D01*
X101799Y-36677D01*
X101393Y-37083D01*
X101318Y-37196D01*
X101313Y-37218D01*
X101291Y-37330D01*
X101291Y-37330D01*
X101291Y-39140D01*
X101291Y-39576D01*
X101291Y-39576D01*
X101313Y-39687D01*
X101318Y-39709D01*
X101393Y-39822D01*
X101787Y-40216D01*
X101787Y-40216D01*
X101900Y-40291D01*
X102033Y-40318D01*
X102189Y-40318D01*
X102105Y-40402D01*
X102025Y-40595D01*
X102024Y-40803D01*
X102104Y-40997D01*
X102252Y-41144D01*
X102324Y-41174D01*
X102225Y-41174D01*
X102133Y-41212D01*
X102063Y-41283D01*
X102025Y-41375D01*
X102025Y-41380D01*
X101929Y-41380D01*
X101929Y-40765D01*
X101918Y-40557D01*
X101860Y-40417D01*
X101767Y-40392D01*
X101697Y-40463D01*
X101697Y-40322D01*
X101672Y-40229D01*
X101475Y-40160D01*
X101267Y-40171D01*
X101127Y-40229D01*
X101102Y-40322D01*
X101400Y-40619D01*
X101697Y-40322D01*
X101697Y-40463D01*
X101470Y-40690D01*
X101767Y-40987D01*
X101860Y-40962D01*
X101929Y-40765D01*
X101929Y-41380D01*
X101925Y-41380D01*
X101925Y-41365D01*
X101887Y-41273D01*
X101816Y-41203D01*
X101724Y-41165D01*
X101637Y-41164D01*
X101672Y-41150D01*
X101697Y-41057D01*
X101400Y-40760D01*
X101394Y-40766D01*
X101323Y-40695D01*
X101329Y-40690D01*
X101032Y-40392D01*
X100939Y-40417D01*
X100930Y-40444D01*
X100930Y-36343D01*
X100930Y-36036D01*
X100887Y-35821D01*
X100765Y-35640D01*
X100584Y-35518D01*
X100370Y-35476D01*
X100155Y-35518D01*
X99974Y-35640D01*
X99870Y-35795D01*
X99868Y-35789D01*
X99730Y-35618D01*
X99538Y-35513D01*
X99506Y-35506D01*
X99420Y-35555D01*
X99420Y-36140D01*
X99427Y-36140D01*
X99427Y-36240D01*
X99420Y-36240D01*
X99420Y-36824D01*
X99506Y-36873D01*
X99538Y-36866D01*
X99730Y-36761D01*
X99868Y-36590D01*
X99870Y-36584D01*
X99974Y-36739D01*
X100155Y-36861D01*
X100370Y-36903D01*
X100584Y-36861D01*
X100765Y-36739D01*
X100887Y-36558D01*
X100930Y-36343D01*
X100930Y-40444D01*
X100870Y-40614D01*
X100878Y-40771D01*
X100278Y-40171D01*
X100178Y-40104D01*
X100060Y-40080D01*
X95710Y-40080D01*
X95591Y-40104D01*
X95491Y-40171D01*
X95096Y-40566D01*
X95084Y-40558D01*
X94870Y-40516D01*
X94655Y-40558D01*
X94474Y-40680D01*
X94370Y-40835D01*
X94265Y-40680D01*
X94084Y-40558D01*
X93870Y-40516D01*
X93655Y-40558D01*
X93474Y-40680D01*
X93370Y-40835D01*
X93368Y-40829D01*
X93230Y-40658D01*
X93038Y-40553D01*
X93006Y-40546D01*
X92920Y-40595D01*
X92920Y-41180D01*
X92927Y-41180D01*
X92927Y-41280D01*
X92920Y-41280D01*
X92920Y-41287D01*
X92820Y-41287D01*
X92820Y-41280D01*
X92812Y-41280D01*
X92812Y-41180D01*
X92820Y-41180D01*
X92820Y-40595D01*
X92733Y-40546D01*
X92701Y-40553D01*
X92509Y-40658D01*
X92371Y-40829D01*
X92369Y-40835D01*
X92265Y-40680D01*
X92084Y-40558D01*
X91870Y-40516D01*
X91655Y-40558D01*
X91474Y-40680D01*
X91370Y-40835D01*
X91265Y-40680D01*
X91218Y-40648D01*
X91218Y-40510D01*
X91228Y-40460D01*
X91218Y-40409D01*
X91218Y-39678D01*
X92469Y-39678D01*
X92470Y-39678D01*
X92470Y-39678D01*
X92581Y-39656D01*
X92603Y-39651D01*
X92603Y-39651D01*
X92716Y-39576D01*
X93116Y-39176D01*
X93116Y-39176D01*
X93116Y-39176D01*
X93191Y-39063D01*
X93218Y-38930D01*
X93218Y-38930D01*
X93218Y-38930D01*
X93218Y-38811D01*
X93265Y-38779D01*
X93370Y-38624D01*
X93474Y-38779D01*
X93655Y-38901D01*
X93870Y-38943D01*
X94084Y-38901D01*
X94265Y-38779D01*
X94370Y-38624D01*
X94474Y-38779D01*
X94655Y-38901D01*
X94870Y-38943D01*
X95084Y-38901D01*
X95265Y-38779D01*
X95370Y-38624D01*
X95474Y-38779D01*
X95655Y-38901D01*
X95870Y-38943D01*
X96084Y-38901D01*
X96265Y-38779D01*
X96370Y-38624D01*
X96474Y-38779D01*
X96655Y-38901D01*
X96870Y-38943D01*
X97084Y-38901D01*
X97265Y-38779D01*
X97370Y-38624D01*
X97474Y-38779D01*
X97655Y-38901D01*
X97870Y-38943D01*
X98084Y-38901D01*
X98265Y-38779D01*
X98309Y-38713D01*
X98309Y-38729D01*
X98347Y-38821D01*
X98418Y-38891D01*
X98510Y-38929D01*
X98609Y-38930D01*
X99229Y-38930D01*
X99321Y-38892D01*
X99391Y-38821D01*
X99429Y-38729D01*
X99430Y-38630D01*
X99430Y-37730D01*
X99392Y-37638D01*
X99321Y-37568D01*
X99229Y-37530D01*
X99130Y-37529D01*
X98510Y-37529D01*
X98418Y-37567D01*
X98348Y-37638D01*
X98310Y-37730D01*
X98310Y-37746D01*
X98265Y-37680D01*
X98084Y-37558D01*
X97870Y-37516D01*
X97655Y-37558D01*
X97643Y-37566D01*
X96786Y-36709D01*
X96870Y-36584D01*
X96974Y-36739D01*
X97155Y-36861D01*
X97370Y-36903D01*
X97584Y-36861D01*
X97765Y-36739D01*
X97870Y-36584D01*
X97974Y-36739D01*
X98155Y-36861D01*
X98370Y-36903D01*
X98584Y-36861D01*
X98765Y-36739D01*
X98869Y-36584D01*
X98871Y-36590D01*
X99009Y-36761D01*
X99201Y-36866D01*
X99233Y-36873D01*
X99320Y-36824D01*
X99320Y-36240D01*
X99312Y-36240D01*
X99312Y-36140D01*
X99320Y-36140D01*
X99320Y-35555D01*
X99233Y-35506D01*
X99201Y-35513D01*
X99009Y-35618D01*
X98871Y-35789D01*
X98869Y-35795D01*
X98765Y-35640D01*
X98584Y-35518D01*
X98370Y-35476D01*
X98155Y-35518D01*
X97974Y-35640D01*
X97870Y-35795D01*
X97765Y-35640D01*
X97584Y-35518D01*
X97370Y-35476D01*
X97155Y-35518D01*
X96974Y-35640D01*
X96870Y-35795D01*
X96765Y-35640D01*
X96584Y-35518D01*
X96370Y-35476D01*
X96155Y-35518D01*
X95974Y-35640D01*
X95870Y-35795D01*
X95765Y-35640D01*
X95639Y-35555D01*
X95639Y-35506D01*
X95615Y-35387D01*
X95615Y-35387D01*
X95548Y-35287D01*
X95548Y-35287D01*
X95172Y-34911D01*
X95072Y-34844D01*
X94953Y-34820D01*
X92139Y-34820D01*
X92251Y-34730D01*
X92356Y-34538D01*
X92363Y-34506D01*
X92314Y-34420D01*
X91730Y-34420D01*
X91730Y-34427D01*
X91630Y-34427D01*
X91630Y-34420D01*
X91045Y-34420D01*
X90996Y-34506D01*
X91003Y-34538D01*
X91073Y-34666D01*
X90576Y-34169D01*
X91021Y-34169D01*
X91003Y-34201D01*
X90996Y-34233D01*
X91045Y-34320D01*
X91630Y-34320D01*
X91630Y-34312D01*
X91730Y-34312D01*
X91730Y-34320D01*
X92314Y-34320D01*
X92363Y-34233D01*
X92356Y-34201D01*
X92251Y-34009D01*
X92080Y-33871D01*
X92074Y-33869D01*
X92229Y-33765D01*
X92287Y-33679D01*
X92933Y-33679D01*
X92974Y-33739D01*
X93155Y-33861D01*
X93370Y-33903D01*
X93584Y-33861D01*
X93765Y-33739D01*
X93870Y-33584D01*
X93974Y-33739D01*
X94155Y-33861D01*
X94370Y-33903D01*
X94584Y-33861D01*
X94765Y-33739D01*
X94870Y-33584D01*
X94974Y-33739D01*
X95155Y-33861D01*
X95370Y-33903D01*
X95584Y-33861D01*
X95765Y-33739D01*
X95870Y-33584D01*
X95974Y-33739D01*
X96155Y-33861D01*
X96370Y-33903D01*
X96584Y-33861D01*
X96765Y-33739D01*
X96870Y-33584D01*
X96974Y-33739D01*
X97155Y-33861D01*
X97370Y-33903D01*
X97584Y-33861D01*
X97765Y-33739D01*
X97870Y-33584D01*
X97974Y-33739D01*
X98060Y-33797D01*
X98060Y-33893D01*
X98084Y-34012D01*
X98151Y-34112D01*
X98387Y-34348D01*
X98487Y-34415D01*
X98487Y-34415D01*
X98606Y-34439D01*
X100983Y-34439D01*
X101102Y-34415D01*
X101102Y-34415D01*
X101202Y-34348D01*
X101438Y-34112D01*
X101505Y-34012D01*
X101505Y-34012D01*
X101529Y-33893D01*
X101529Y-32128D01*
X101542Y-32114D01*
X101733Y-32115D01*
X101927Y-32035D01*
X102074Y-31887D01*
X102154Y-31694D01*
X102155Y-31486D01*
X102075Y-31293D01*
X101927Y-31145D01*
X101734Y-31065D01*
X101526Y-31064D01*
X101333Y-31144D01*
X101185Y-31292D01*
X101155Y-31364D01*
X101155Y-31265D01*
X101117Y-31173D01*
X101046Y-31103D01*
X100954Y-31065D01*
X100855Y-31064D01*
X100305Y-31064D01*
X100213Y-31102D01*
X100143Y-31173D01*
X100105Y-31265D01*
X100104Y-31364D01*
X100104Y-31914D01*
X100142Y-32006D01*
X100213Y-32076D01*
X100305Y-32114D01*
X100320Y-32114D01*
X100320Y-32489D01*
X100010Y-32489D01*
X99918Y-32527D01*
X99848Y-32598D01*
X99810Y-32690D01*
X99810Y-32706D01*
X99765Y-32640D01*
X99679Y-32582D01*
X99679Y-32075D01*
X99864Y-32075D01*
X99956Y-32037D01*
X100026Y-31966D01*
X100064Y-31874D01*
X100065Y-31775D01*
X100065Y-31225D01*
X100027Y-31133D01*
X99956Y-31063D01*
X99864Y-31025D01*
X99765Y-31024D01*
X99215Y-31024D01*
X99123Y-31062D01*
X99053Y-31133D01*
X99015Y-31225D01*
X99014Y-31312D01*
X99000Y-31277D01*
X98907Y-31252D01*
X98837Y-31323D01*
X98837Y-31182D01*
X98812Y-31089D01*
X98615Y-31020D01*
X98407Y-31031D01*
X98267Y-31089D01*
X98242Y-31182D01*
X98540Y-31479D01*
X98837Y-31182D01*
X98837Y-31323D01*
X98610Y-31550D01*
X98907Y-31847D01*
X99000Y-31822D01*
X99014Y-31781D01*
X99014Y-31874D01*
X99052Y-31966D01*
X99060Y-31974D01*
X99060Y-32582D01*
X98974Y-32640D01*
X98870Y-32795D01*
X98837Y-32746D01*
X98837Y-31917D01*
X98540Y-31620D01*
X98469Y-31691D01*
X98469Y-31550D01*
X98172Y-31252D01*
X98079Y-31277D01*
X98010Y-31474D01*
X98021Y-31682D01*
X98079Y-31822D01*
X98172Y-31847D01*
X98469Y-31550D01*
X98469Y-31691D01*
X98242Y-31917D01*
X98267Y-32010D01*
X98464Y-32079D01*
X98672Y-32068D01*
X98812Y-32010D01*
X98837Y-31917D01*
X98837Y-32746D01*
X98765Y-32640D01*
X98584Y-32518D01*
X98370Y-32476D01*
X98155Y-32518D01*
X97974Y-32640D01*
X97870Y-32795D01*
X97789Y-32674D01*
X97789Y-31985D01*
X97804Y-31985D01*
X97896Y-31947D01*
X97966Y-31876D01*
X98004Y-31784D01*
X98005Y-31685D01*
X98005Y-31135D01*
X97967Y-31043D01*
X97896Y-30973D01*
X97804Y-30935D01*
X97705Y-30934D01*
X97155Y-30934D01*
X97063Y-30972D01*
X96993Y-31043D01*
X96955Y-31135D01*
X96954Y-31234D01*
X96954Y-31234D01*
X96925Y-31163D01*
X96777Y-31015D01*
X96584Y-30935D01*
X96376Y-30934D01*
X96183Y-31014D01*
X96035Y-31162D01*
X95955Y-31355D01*
X95954Y-31563D01*
X96034Y-31757D01*
X96060Y-31783D01*
X96060Y-32582D01*
X95974Y-32640D01*
X95870Y-32795D01*
X95765Y-32640D01*
X95719Y-32608D01*
X95719Y-32095D01*
X95734Y-32095D01*
X95826Y-32057D01*
X95896Y-31986D01*
X95934Y-31894D01*
X95935Y-31795D01*
X95935Y-31245D01*
X95897Y-31153D01*
X95826Y-31083D01*
X95734Y-31045D01*
X95635Y-31044D01*
X95085Y-31044D01*
X94993Y-31082D01*
X94923Y-31153D01*
X94885Y-31245D01*
X94884Y-31332D01*
X94870Y-31297D01*
X94777Y-31272D01*
X94707Y-31343D01*
X94707Y-31202D01*
X94682Y-31109D01*
X94485Y-31040D01*
X94277Y-31051D01*
X94137Y-31109D01*
X94112Y-31202D01*
X94410Y-31499D01*
X94707Y-31202D01*
X94707Y-31343D01*
X94480Y-31570D01*
X94777Y-31867D01*
X94870Y-31842D01*
X94884Y-31801D01*
X94884Y-31894D01*
X94922Y-31986D01*
X94993Y-32056D01*
X95085Y-32094D01*
X95100Y-32094D01*
X95100Y-32555D01*
X94974Y-32640D01*
X94870Y-32795D01*
X94765Y-32640D01*
X94707Y-32600D01*
X94707Y-31937D01*
X94410Y-31640D01*
X94339Y-31711D01*
X94339Y-31570D01*
X94042Y-31272D01*
X93949Y-31297D01*
X93880Y-31494D01*
X93891Y-31702D01*
X93949Y-31842D01*
X94042Y-31867D01*
X94339Y-31570D01*
X94339Y-31711D01*
X94112Y-31937D01*
X94137Y-32030D01*
X94334Y-32099D01*
X94542Y-32088D01*
X94682Y-32030D01*
X94707Y-31937D01*
X94707Y-32600D01*
X94584Y-32518D01*
X94370Y-32476D01*
X94155Y-32518D01*
X93974Y-32640D01*
X93870Y-32795D01*
X93765Y-32640D01*
X93649Y-32562D01*
X93649Y-32562D01*
X93588Y-32471D01*
X93530Y-32412D01*
X93530Y-31850D01*
X93492Y-31758D01*
X93421Y-31688D01*
X93329Y-31650D01*
X93230Y-31649D01*
X92430Y-31649D01*
X92338Y-31687D01*
X92268Y-31758D01*
X92230Y-31850D01*
X92229Y-31949D01*
X92229Y-31974D01*
X92229Y-31974D01*
X92074Y-31869D01*
X92229Y-31765D01*
X92351Y-31584D01*
X92381Y-31429D01*
X92430Y-31449D01*
X92529Y-31450D01*
X93329Y-31450D01*
X93421Y-31412D01*
X93491Y-31341D01*
X93529Y-31249D01*
X93530Y-31150D01*
X93530Y-30550D01*
X93492Y-30458D01*
X93421Y-30388D01*
X93329Y-30350D01*
X93230Y-30349D01*
X92668Y-30349D01*
X92668Y-30300D01*
X92641Y-30166D01*
X92566Y-30053D01*
X92453Y-29978D01*
X92320Y-29951D01*
X86340Y-29951D01*
X86340Y-28333D01*
X86213Y-28024D01*
X85976Y-27787D01*
X85667Y-27659D01*
X85333Y-27659D01*
X85024Y-27787D01*
X84787Y-28023D01*
X84659Y-28332D01*
X84659Y-28666D01*
X84787Y-28975D01*
X85023Y-29212D01*
X85332Y-29340D01*
X85666Y-29340D01*
X85975Y-29213D01*
X86212Y-28976D01*
X86340Y-28667D01*
X86340Y-28333D01*
X86340Y-29951D01*
X82851Y-29951D01*
X82717Y-29978D01*
X82604Y-30053D01*
X82604Y-30053D01*
X81984Y-30673D01*
X81909Y-30786D01*
X81904Y-30808D01*
X81882Y-30920D01*
X81882Y-30920D01*
X81882Y-34279D01*
X81882Y-34280D01*
X81904Y-34391D01*
X81909Y-34413D01*
X81984Y-34526D01*
X82562Y-35104D01*
X82556Y-35120D01*
X82556Y-35376D01*
X82653Y-35613D01*
X82834Y-35794D01*
X83071Y-35892D01*
X83327Y-35892D01*
X83564Y-35794D01*
X83745Y-35614D01*
X83843Y-35377D01*
X83843Y-35121D01*
X83746Y-34884D01*
X83565Y-34703D01*
X83328Y-34605D01*
X83072Y-34605D01*
X83055Y-34612D01*
X82878Y-34434D01*
X83071Y-34514D01*
X83327Y-34514D01*
X83564Y-34417D01*
X83745Y-34236D01*
X83843Y-33999D01*
X83843Y-33743D01*
X83746Y-33506D01*
X83565Y-33325D01*
X83328Y-33227D01*
X83072Y-33227D01*
X82835Y-33325D01*
X82654Y-33505D01*
X82579Y-33686D01*
X82579Y-32676D01*
X82653Y-32857D01*
X82834Y-33038D01*
X83071Y-33136D01*
X83327Y-33136D01*
X83564Y-33039D01*
X83745Y-32858D01*
X83768Y-32802D01*
X85677Y-32802D01*
X85651Y-32827D01*
X85584Y-32927D01*
X85560Y-33046D01*
X85560Y-37622D01*
X85474Y-37680D01*
X85352Y-37861D01*
X85310Y-38076D01*
X85310Y-38383D01*
X85352Y-38598D01*
X85474Y-38779D01*
X85655Y-38901D01*
X85870Y-38943D01*
X86084Y-38901D01*
X86265Y-38779D01*
X86370Y-38624D01*
X86474Y-38779D01*
X86655Y-38901D01*
X86870Y-38943D01*
X87084Y-38901D01*
X87265Y-38779D01*
X87370Y-38624D01*
X87474Y-38779D01*
X87655Y-38901D01*
X87870Y-38943D01*
X88084Y-38901D01*
X88265Y-38779D01*
X88370Y-38624D01*
X88474Y-38779D01*
X88655Y-38901D01*
X88870Y-38943D01*
X89084Y-38901D01*
X89265Y-38779D01*
X89370Y-38624D01*
X89474Y-38779D01*
X89655Y-38901D01*
X89870Y-38943D01*
X90084Y-38901D01*
X90265Y-38779D01*
X90370Y-38624D01*
X90474Y-38779D01*
X90655Y-38901D01*
X90870Y-38943D01*
X91084Y-38901D01*
X91265Y-38779D01*
X91369Y-38624D01*
X91371Y-38630D01*
X91509Y-38801D01*
X91701Y-38906D01*
X91733Y-38913D01*
X91820Y-38864D01*
X91820Y-38280D01*
X91812Y-38280D01*
X91812Y-38180D01*
X91820Y-38180D01*
X91820Y-37595D01*
X91733Y-37546D01*
X91709Y-37551D01*
X91709Y-36980D01*
X91829Y-36860D01*
X91909Y-36665D01*
X91910Y-36455D01*
X91829Y-36260D01*
X91680Y-36110D01*
X91485Y-36030D01*
X91275Y-36029D01*
X91080Y-36110D01*
X90930Y-36259D01*
X90850Y-36454D01*
X90849Y-36664D01*
X90930Y-36859D01*
X91079Y-37009D01*
X91090Y-37013D01*
X91090Y-37563D01*
X91084Y-37558D01*
X90870Y-37516D01*
X90655Y-37558D01*
X90474Y-37680D01*
X90370Y-37835D01*
X90265Y-37680D01*
X90084Y-37558D01*
X89870Y-37516D01*
X89689Y-37552D01*
X89689Y-37000D01*
X89829Y-36860D01*
X89909Y-36665D01*
X89910Y-36455D01*
X89829Y-36260D01*
X89680Y-36110D01*
X89485Y-36030D01*
X89275Y-36029D01*
X89080Y-36110D01*
X88930Y-36259D01*
X88850Y-36454D01*
X88849Y-36664D01*
X88930Y-36859D01*
X89070Y-37000D01*
X89070Y-37556D01*
X88870Y-37516D01*
X88655Y-37558D01*
X88474Y-37680D01*
X88370Y-37835D01*
X88265Y-37680D01*
X88084Y-37558D01*
X87870Y-37516D01*
X87655Y-37558D01*
X87474Y-37680D01*
X87370Y-37835D01*
X87265Y-37680D01*
X87084Y-37558D01*
X86870Y-37516D01*
X86655Y-37558D01*
X86474Y-37680D01*
X86370Y-37835D01*
X86265Y-37680D01*
X86179Y-37622D01*
X86179Y-35414D01*
X86273Y-35508D01*
X86458Y-35585D01*
X86660Y-35585D01*
X86846Y-35509D01*
X86966Y-35389D01*
X87080Y-35389D01*
X87198Y-35365D01*
X87198Y-35365D01*
X87298Y-35298D01*
X88010Y-34586D01*
X88130Y-34765D01*
X88311Y-34887D01*
X88526Y-34930D01*
X88833Y-34930D01*
X89048Y-34887D01*
X89229Y-34765D01*
X89287Y-34679D01*
X90211Y-34679D01*
X90881Y-35348D01*
X90881Y-35348D01*
X90981Y-35415D01*
X90981Y-35415D01*
X91076Y-35434D01*
X91099Y-35439D01*
X91099Y-35439D01*
X91100Y-35439D01*
X94825Y-35439D01*
X95005Y-35619D01*
X94974Y-35640D01*
X94870Y-35795D01*
X94765Y-35640D01*
X94584Y-35518D01*
X94370Y-35476D01*
X94155Y-35518D01*
X93974Y-35640D01*
X93870Y-35795D01*
X93765Y-35640D01*
X93584Y-35518D01*
X93370Y-35476D01*
X93155Y-35518D01*
X92974Y-35640D01*
X92852Y-35821D01*
X92810Y-36036D01*
X92810Y-36343D01*
X92852Y-36558D01*
X92974Y-36739D01*
X93155Y-36861D01*
X93370Y-36903D01*
X93584Y-36861D01*
X93765Y-36739D01*
X93870Y-36584D01*
X93974Y-36739D01*
X94155Y-36861D01*
X94370Y-36903D01*
X94584Y-36861D01*
X94765Y-36739D01*
X94870Y-36584D01*
X94974Y-36739D01*
X95076Y-36808D01*
X95084Y-36848D01*
X95151Y-36948D01*
X95744Y-37541D01*
X95655Y-37558D01*
X95474Y-37680D01*
X95370Y-37835D01*
X95265Y-37680D01*
X95084Y-37558D01*
X94870Y-37516D01*
X94655Y-37558D01*
X94474Y-37680D01*
X94370Y-37835D01*
X94265Y-37680D01*
X94084Y-37558D01*
X93870Y-37516D01*
X93655Y-37558D01*
X93474Y-37680D01*
X93370Y-37835D01*
X93265Y-37680D01*
X93084Y-37558D01*
X92870Y-37516D01*
X92655Y-37558D01*
X92474Y-37680D01*
X92370Y-37835D01*
X92368Y-37829D01*
X92230Y-37658D01*
X92038Y-37553D01*
X92006Y-37546D01*
X91920Y-37595D01*
X91920Y-38180D01*
X91927Y-38180D01*
X91927Y-38280D01*
X91920Y-38280D01*
X91920Y-38864D01*
X92006Y-38913D01*
X92038Y-38906D01*
X92230Y-38801D01*
X92368Y-38630D01*
X92370Y-38624D01*
X92474Y-38779D01*
X92506Y-38801D01*
X92325Y-38981D01*
X90870Y-38981D01*
X90736Y-39008D01*
X90623Y-39083D01*
X90548Y-39196D01*
X90521Y-39330D01*
X90521Y-40111D01*
X85533Y-40111D01*
X85400Y-40138D01*
X85287Y-40213D01*
X85287Y-40213D01*
X84893Y-40607D01*
X84818Y-40720D01*
X84813Y-40742D01*
X84791Y-40853D01*
X84791Y-40853D01*
X84791Y-41599D01*
X84791Y-41600D01*
X84813Y-41711D01*
X84818Y-41733D01*
X84893Y-41846D01*
X85373Y-42326D01*
X85373Y-42326D01*
X85486Y-42401D01*
X85620Y-42428D01*
X85620Y-42428D01*
X85620Y-42428D01*
X85972Y-42428D01*
X86053Y-42508D01*
X86238Y-42585D01*
X86440Y-42585D01*
X86626Y-42509D01*
X86768Y-42366D01*
X86845Y-42181D01*
X86845Y-41979D01*
X86827Y-41935D01*
X86870Y-41943D01*
X87084Y-41901D01*
X87265Y-41779D01*
X87370Y-41624D01*
X87474Y-41779D01*
X87560Y-41837D01*
X87560Y-41952D01*
X87498Y-41977D01*
X87428Y-42048D01*
X87390Y-42140D01*
X87389Y-42239D01*
X87389Y-42839D01*
X87427Y-42931D01*
X87498Y-43001D01*
X87590Y-43039D01*
X87689Y-43040D01*
X88289Y-43040D01*
X88381Y-43002D01*
X88451Y-42931D01*
X88489Y-42839D01*
X88489Y-42817D01*
X88628Y-42955D01*
X88830Y-43039D01*
X89048Y-43040D01*
X89251Y-42956D01*
X89405Y-42801D01*
X89439Y-42720D01*
X89473Y-42801D01*
X89628Y-42955D01*
X89830Y-43039D01*
X90048Y-43040D01*
X90251Y-42956D01*
X90405Y-42801D01*
X90439Y-42720D01*
X90473Y-42801D01*
X90628Y-42955D01*
X90830Y-43039D01*
X91048Y-43040D01*
X91251Y-42956D01*
X91405Y-42801D01*
X91437Y-42726D01*
X91458Y-42777D01*
X91554Y-42805D01*
X91869Y-42490D01*
X91863Y-42484D01*
X91934Y-42413D01*
X91940Y-42419D01*
X91945Y-42413D01*
X92016Y-42484D01*
X92010Y-42490D01*
X92325Y-42805D01*
X92421Y-42777D01*
X92440Y-42722D01*
X92473Y-42801D01*
X92628Y-42955D01*
X92830Y-43039D01*
X93048Y-43040D01*
X93251Y-42956D01*
X93405Y-42801D01*
X93489Y-42599D01*
X93490Y-42381D01*
X93406Y-42178D01*
X93251Y-42024D01*
X93217Y-42009D01*
X93186Y-41963D01*
X93097Y-41874D01*
X93230Y-41801D01*
X93368Y-41630D01*
X93370Y-41624D01*
X93474Y-41779D01*
X93655Y-41901D01*
X93870Y-41943D01*
X94084Y-41901D01*
X94265Y-41779D01*
X94370Y-41624D01*
X94474Y-41779D01*
X94655Y-41901D01*
X94870Y-41943D01*
X94981Y-41921D01*
X93291Y-43610D01*
X92255Y-43610D01*
X92255Y-42875D01*
X91940Y-42560D01*
X91624Y-42875D01*
X91652Y-42971D01*
X91858Y-43044D01*
X92076Y-43033D01*
X92227Y-42971D01*
X92255Y-42875D01*
X92255Y-43610D01*
X87140Y-43610D01*
X87021Y-43634D01*
X86921Y-43701D01*
X86921Y-43701D01*
X85856Y-44766D01*
X85844Y-44758D01*
X85630Y-44716D01*
X85415Y-44758D01*
X85234Y-44880D01*
X85112Y-45061D01*
X85070Y-45276D01*
X85070Y-45583D01*
X85112Y-45798D01*
X85234Y-45979D01*
X85415Y-46101D01*
X85630Y-46143D01*
X85844Y-46101D01*
X86025Y-45979D01*
X86129Y-45824D01*
X86131Y-45830D01*
X86269Y-46001D01*
X86461Y-46106D01*
X86493Y-46113D01*
X86580Y-46064D01*
X86580Y-45480D01*
X86572Y-45480D01*
X86572Y-45380D01*
X86580Y-45380D01*
X86580Y-45372D01*
X86680Y-45372D01*
X86680Y-45380D01*
X87190Y-45380D01*
X87190Y-45240D01*
X87128Y-45029D01*
X86990Y-44858D01*
X86798Y-44753D01*
X86766Y-44746D01*
X86729Y-44767D01*
X87268Y-44229D01*
X88623Y-44229D01*
X88066Y-44786D01*
X88054Y-44778D01*
X87840Y-44736D01*
X87625Y-44778D01*
X87444Y-44900D01*
X87322Y-45081D01*
X87280Y-45296D01*
X87280Y-45603D01*
X87322Y-45818D01*
X87444Y-45999D01*
X87625Y-46121D01*
X87840Y-46163D01*
X88054Y-46121D01*
X88235Y-45999D01*
X88339Y-45844D01*
X88341Y-45850D01*
X88479Y-46021D01*
X88671Y-46126D01*
X88703Y-46133D01*
X88790Y-46084D01*
X88790Y-45500D01*
X88782Y-45500D01*
X88782Y-45400D01*
X88790Y-45400D01*
X88790Y-45392D01*
X88890Y-45392D01*
X88890Y-45400D01*
X89400Y-45400D01*
X89400Y-45260D01*
X89338Y-45049D01*
X89200Y-44878D01*
X89008Y-44773D01*
X88976Y-44766D01*
X88939Y-44787D01*
X89128Y-44599D01*
X91483Y-44599D01*
X91322Y-44759D01*
X91320Y-44759D01*
X90700Y-44759D01*
X90608Y-44797D01*
X90538Y-44868D01*
X90500Y-44960D01*
X90500Y-44987D01*
X90420Y-44888D01*
X90228Y-44783D01*
X90196Y-44776D01*
X90110Y-44825D01*
X90110Y-45410D01*
X90117Y-45410D01*
X90117Y-45510D01*
X90110Y-45510D01*
X90110Y-46094D01*
X90196Y-46143D01*
X90228Y-46136D01*
X90420Y-46031D01*
X90499Y-45932D01*
X90499Y-45959D01*
X90537Y-46051D01*
X90608Y-46121D01*
X90700Y-46159D01*
X90799Y-46160D01*
X91419Y-46160D01*
X91511Y-46122D01*
X91581Y-46051D01*
X91619Y-45959D01*
X91620Y-45860D01*
X91620Y-45337D01*
X91717Y-45239D01*
X91710Y-45276D01*
X91710Y-45583D01*
X91752Y-45798D01*
X91874Y-45979D01*
X92055Y-46101D01*
X92270Y-46143D01*
X92484Y-46101D01*
X92665Y-45979D01*
X92770Y-45824D01*
X92874Y-45979D01*
X93055Y-46101D01*
X93270Y-46143D01*
X93454Y-46107D01*
X93853Y-46506D01*
X93853Y-46506D01*
X93966Y-46581D01*
X93966Y-46581D01*
X93988Y-46586D01*
X94100Y-46608D01*
X94100Y-46608D01*
X94100Y-46608D01*
X95779Y-46608D01*
X95779Y-46971D01*
X94270Y-46971D01*
X90060Y-46971D01*
X90010Y-46971D01*
X90010Y-46094D01*
X90010Y-45510D01*
X90010Y-45410D01*
X90010Y-44825D01*
X89923Y-44776D01*
X89891Y-44783D01*
X89699Y-44888D01*
X89561Y-45059D01*
X89500Y-45270D01*
X89500Y-45410D01*
X90010Y-45410D01*
X90010Y-45510D01*
X89500Y-45510D01*
X89500Y-45650D01*
X89561Y-45860D01*
X89699Y-46031D01*
X89891Y-46136D01*
X89923Y-46143D01*
X90010Y-46094D01*
X90010Y-46971D01*
X89400Y-46971D01*
X89400Y-45640D01*
X89400Y-45500D01*
X88890Y-45500D01*
X88890Y-46084D01*
X88976Y-46133D01*
X89008Y-46126D01*
X89200Y-46021D01*
X89338Y-45850D01*
X89400Y-45640D01*
X89400Y-46971D01*
X88840Y-46971D01*
X87190Y-46971D01*
X87190Y-45620D01*
X87190Y-45480D01*
X86680Y-45480D01*
X86680Y-46064D01*
X86766Y-46113D01*
X86798Y-46106D01*
X86990Y-46001D01*
X87128Y-45830D01*
X87190Y-45620D01*
X87190Y-46971D01*
X87100Y-46971D01*
X87100Y-46971D01*
X86966Y-46998D01*
X86853Y-47073D01*
X86853Y-47073D01*
X86383Y-47543D01*
X86308Y-47656D01*
X86303Y-47678D01*
X86281Y-47790D01*
X86281Y-47790D01*
X86281Y-47848D01*
X86234Y-47880D01*
X86190Y-47946D01*
X86190Y-47930D01*
X86152Y-47838D01*
X86081Y-47768D01*
X85989Y-47730D01*
X85890Y-47729D01*
X85270Y-47729D01*
X85178Y-47767D01*
X85129Y-47817D01*
X85129Y-47231D01*
X85129Y-47231D01*
X85129Y-47231D01*
X85124Y-47207D01*
X85105Y-47112D01*
X85105Y-47112D01*
X85038Y-47012D01*
X85038Y-47012D01*
X83847Y-45821D01*
X83847Y-36731D01*
X83838Y-36475D01*
X83758Y-36282D01*
X83653Y-36243D01*
X83583Y-36314D01*
X83583Y-36173D01*
X83544Y-36068D01*
X83304Y-35978D01*
X83048Y-35988D01*
X82855Y-36068D01*
X82816Y-36173D01*
X83200Y-36556D01*
X83583Y-36173D01*
X83583Y-36314D01*
X83270Y-36626D01*
X83653Y-37009D01*
X83758Y-36971D01*
X83847Y-36731D01*
X83847Y-45821D01*
X83820Y-45794D01*
X83843Y-45739D01*
X83843Y-45483D01*
X83843Y-44105D01*
X83843Y-42727D01*
X83843Y-40633D01*
X83843Y-39255D01*
X83843Y-37877D01*
X83746Y-37640D01*
X83583Y-37477D01*
X83583Y-37080D01*
X83200Y-36697D01*
X83129Y-36768D01*
X83129Y-36626D01*
X82746Y-36243D01*
X82641Y-36282D01*
X82552Y-36522D01*
X82561Y-36778D01*
X82641Y-36971D01*
X82746Y-37009D01*
X83129Y-36626D01*
X83129Y-36768D01*
X82816Y-37080D01*
X82855Y-37185D01*
X83095Y-37274D01*
X83351Y-37265D01*
X83544Y-37185D01*
X83583Y-37080D01*
X83583Y-37477D01*
X83565Y-37459D01*
X83328Y-37361D01*
X83072Y-37361D01*
X82835Y-37458D01*
X82654Y-37639D01*
X82556Y-37876D01*
X82556Y-38132D01*
X82653Y-38369D01*
X82834Y-38550D01*
X83071Y-38648D01*
X83327Y-38648D01*
X83564Y-38550D01*
X83745Y-38369D01*
X83843Y-38133D01*
X83843Y-37877D01*
X83843Y-39255D01*
X83746Y-39018D01*
X83565Y-38837D01*
X83328Y-38739D01*
X83072Y-38739D01*
X82835Y-38836D01*
X82654Y-39017D01*
X82556Y-39254D01*
X82556Y-39510D01*
X82653Y-39746D01*
X82834Y-39928D01*
X83071Y-40026D01*
X83327Y-40026D01*
X83564Y-39928D01*
X83745Y-39747D01*
X83843Y-39511D01*
X83843Y-39255D01*
X83843Y-40633D01*
X83746Y-40396D01*
X83565Y-40215D01*
X83328Y-40117D01*
X83072Y-40116D01*
X82835Y-40214D01*
X82654Y-40395D01*
X82556Y-40632D01*
X82556Y-40888D01*
X82653Y-41124D01*
X82834Y-41306D01*
X83071Y-41404D01*
X83327Y-41404D01*
X83564Y-41306D01*
X83745Y-41125D01*
X83843Y-40889D01*
X83843Y-40633D01*
X83843Y-42727D01*
X83746Y-42490D01*
X83565Y-42309D01*
X83328Y-42211D01*
X83072Y-42211D01*
X82835Y-42309D01*
X82654Y-42490D01*
X82556Y-42726D01*
X82556Y-42982D01*
X82653Y-43219D01*
X82834Y-43400D01*
X83071Y-43498D01*
X83327Y-43498D01*
X83564Y-43401D01*
X83745Y-43220D01*
X83843Y-42983D01*
X83843Y-42727D01*
X83843Y-44105D01*
X83746Y-43868D01*
X83565Y-43687D01*
X83328Y-43589D01*
X83072Y-43589D01*
X82835Y-43687D01*
X82654Y-43867D01*
X82556Y-44104D01*
X82556Y-44360D01*
X82653Y-44597D01*
X82834Y-44778D01*
X83071Y-44876D01*
X83327Y-44876D01*
X83564Y-44779D01*
X83745Y-44598D01*
X83843Y-44361D01*
X83843Y-44105D01*
X83843Y-45483D01*
X83746Y-45246D01*
X83565Y-45065D01*
X83328Y-44967D01*
X83072Y-44967D01*
X82835Y-45065D01*
X82654Y-45245D01*
X82556Y-45482D01*
X82556Y-45738D01*
X82653Y-45975D01*
X82834Y-46156D01*
X83071Y-46254D01*
X83327Y-46254D01*
X83383Y-46231D01*
X84510Y-47359D01*
X84510Y-48960D01*
X84534Y-49078D01*
X84601Y-49178D01*
X85061Y-49638D01*
X85161Y-49705D01*
X85161Y-49705D01*
X85280Y-49729D01*
X90400Y-49729D01*
X90518Y-49705D01*
X90518Y-49705D01*
X90618Y-49638D01*
X91089Y-49167D01*
X91274Y-49131D01*
X91455Y-49009D01*
X91577Y-48828D01*
X91620Y-48613D01*
X91620Y-48306D01*
X91577Y-48091D01*
X91455Y-47910D01*
X91274Y-47788D01*
X91060Y-47746D01*
X90845Y-47788D01*
X90664Y-47910D01*
X90560Y-48065D01*
X90455Y-47910D01*
X90408Y-47878D01*
X90408Y-47668D01*
X93921Y-47668D01*
X93921Y-47848D01*
X93874Y-47880D01*
X93770Y-48035D01*
X93665Y-47880D01*
X93484Y-47758D01*
X93270Y-47716D01*
X93055Y-47758D01*
X92874Y-47880D01*
X92830Y-47946D01*
X92830Y-47930D01*
X92792Y-47838D01*
X92721Y-47768D01*
X92629Y-47730D01*
X92530Y-47729D01*
X91910Y-47729D01*
X91818Y-47767D01*
X91748Y-47838D01*
X91710Y-47930D01*
X91709Y-48029D01*
X91709Y-48929D01*
X91747Y-49021D01*
X91818Y-49091D01*
X91910Y-49129D01*
X92009Y-49130D01*
X92629Y-49130D01*
X92721Y-49092D01*
X92791Y-49021D01*
X92829Y-48929D01*
X92829Y-48913D01*
X92874Y-48979D01*
X93055Y-49101D01*
X93270Y-49143D01*
X93484Y-49101D01*
X93665Y-48979D01*
X93770Y-48824D01*
X93874Y-48979D01*
X93921Y-49011D01*
X93921Y-49272D01*
X93355Y-49838D01*
X85164Y-49838D01*
X83837Y-48511D01*
X83843Y-48495D01*
X83843Y-48239D01*
X83843Y-46861D01*
X83746Y-46624D01*
X83565Y-46443D01*
X83328Y-46345D01*
X83072Y-46345D01*
X82835Y-46442D01*
X82654Y-46623D01*
X82556Y-46860D01*
X82556Y-47116D01*
X82653Y-47353D01*
X82834Y-47534D01*
X83071Y-47632D01*
X83327Y-47632D01*
X83564Y-47534D01*
X83745Y-47354D01*
X83843Y-47117D01*
X83843Y-46861D01*
X83843Y-48239D01*
X83746Y-48002D01*
X83565Y-47821D01*
X83328Y-47723D01*
X83072Y-47723D01*
X82835Y-47820D01*
X82654Y-48001D01*
X82556Y-48238D01*
X82556Y-48494D01*
X82653Y-48731D01*
X82834Y-48912D01*
X83071Y-49010D01*
X83327Y-49010D01*
X83344Y-49003D01*
X83521Y-49181D01*
X83328Y-49101D01*
X83072Y-49101D01*
X82835Y-49198D01*
X82654Y-49379D01*
X82556Y-49616D01*
X82556Y-49872D01*
X82653Y-50109D01*
X82834Y-50290D01*
X83071Y-50388D01*
X83327Y-50388D01*
X83564Y-50290D01*
X83745Y-50109D01*
X83843Y-49873D01*
X83843Y-49617D01*
X83763Y-49423D01*
X84773Y-50433D01*
X84773Y-50433D01*
X84886Y-50508D01*
X85020Y-50535D01*
X93499Y-50535D01*
X93500Y-50535D01*
X93500Y-50535D01*
X93611Y-50513D01*
X93633Y-50508D01*
X93633Y-50508D01*
X93746Y-50433D01*
X94516Y-49663D01*
X94516Y-49663D01*
X94516Y-49663D01*
X94591Y-49550D01*
X94618Y-49416D01*
X94618Y-49416D01*
X94618Y-49416D01*
X94618Y-49011D01*
X94665Y-48979D01*
X94770Y-48824D01*
X94874Y-48979D01*
X95055Y-49101D01*
X95270Y-49143D01*
X95484Y-49101D01*
X95665Y-48979D01*
X95787Y-48798D01*
X95830Y-48583D01*
X95830Y-48276D01*
X95787Y-48061D01*
X95665Y-47880D01*
X95484Y-47758D01*
X95270Y-47716D01*
X95055Y-47758D01*
X94874Y-47880D01*
X94770Y-48035D01*
X94665Y-47880D01*
X94618Y-47848D01*
X94618Y-47668D01*
X98141Y-47668D01*
X98141Y-47848D01*
X98094Y-47880D01*
X98050Y-47946D01*
X98050Y-47930D01*
X98012Y-47838D01*
X97941Y-47768D01*
X97849Y-47730D01*
X97750Y-47729D01*
X97130Y-47729D01*
X97038Y-47767D01*
X96968Y-47838D01*
X96930Y-47930D01*
X96929Y-48029D01*
X96929Y-48929D01*
X96967Y-49021D01*
X97038Y-49091D01*
X97130Y-49129D01*
X97229Y-49130D01*
X97849Y-49130D01*
X97941Y-49092D01*
X98011Y-49021D01*
X98049Y-48929D01*
X98049Y-48913D01*
X98094Y-48979D01*
X98275Y-49101D01*
X98490Y-49143D01*
X98704Y-49101D01*
X98885Y-48979D01*
X99007Y-48798D01*
X99050Y-48583D01*
X99050Y-48276D01*
X99007Y-48061D01*
X98885Y-47880D01*
X98838Y-47848D01*
X98838Y-47668D01*
X101445Y-47668D01*
X101445Y-47850D01*
X101398Y-47882D01*
X101294Y-48037D01*
X101189Y-47882D01*
X101008Y-47760D01*
X100794Y-47718D01*
X100579Y-47760D01*
X100398Y-47882D01*
X100354Y-47948D01*
X100354Y-47932D01*
X100316Y-47840D01*
X100245Y-47770D01*
X100153Y-47732D01*
X100054Y-47731D01*
X99434Y-47731D01*
X99342Y-47769D01*
X99272Y-47840D01*
X99234Y-47932D01*
X99233Y-48031D01*
X99233Y-48931D01*
X99271Y-49023D01*
X99342Y-49093D01*
X99434Y-49131D01*
X99533Y-49132D01*
X100153Y-49132D01*
X100245Y-49094D01*
X100315Y-49023D01*
X100353Y-48931D01*
X100353Y-48915D01*
X100398Y-48981D01*
X100579Y-49103D01*
X100794Y-49145D01*
X101008Y-49103D01*
X101189Y-48981D01*
X101294Y-48826D01*
X101398Y-48981D01*
X101579Y-49103D01*
X101794Y-49145D01*
X102008Y-49103D01*
X102189Y-48981D01*
X102294Y-48826D01*
X102398Y-48981D01*
X102579Y-49103D01*
X102794Y-49145D01*
X103008Y-49103D01*
X103189Y-48981D01*
X103311Y-48800D01*
X103354Y-48585D01*
X103354Y-48278D01*
X103311Y-48063D01*
X103231Y-47943D01*
X103670Y-48382D01*
X103670Y-48603D01*
X103712Y-48818D01*
X103834Y-48999D01*
X104015Y-49121D01*
X104230Y-49163D01*
X104444Y-49121D01*
X104625Y-48999D01*
X104730Y-48844D01*
X104834Y-48999D01*
X105015Y-49121D01*
X105230Y-49163D01*
X105444Y-49121D01*
X105589Y-49023D01*
X105646Y-49061D01*
X105780Y-49088D01*
X105920Y-49088D01*
X105944Y-49147D01*
X106092Y-49294D01*
X106285Y-49374D01*
X106493Y-49375D01*
X106687Y-49295D01*
X106784Y-49198D01*
X107176Y-49198D01*
X107272Y-49294D01*
X107465Y-49374D01*
X107673Y-49375D01*
X107867Y-49295D01*
X107964Y-49198D01*
X108336Y-49198D01*
X108432Y-49294D01*
X108625Y-49374D01*
X108833Y-49375D01*
X109027Y-49295D01*
X109124Y-49198D01*
X109209Y-49198D01*
X109210Y-49198D01*
X109210Y-49198D01*
X109321Y-49176D01*
X109343Y-49171D01*
X109343Y-49171D01*
X109456Y-49096D01*
X109906Y-48646D01*
X109906Y-48646D01*
X109906Y-48646D01*
X109981Y-48533D01*
X110008Y-48400D01*
X110008Y-48400D01*
X110008Y-48399D01*
X110008Y-48111D01*
X110038Y-48141D01*
X110130Y-48179D01*
X110229Y-48180D01*
X111029Y-48180D01*
X111121Y-48142D01*
X111191Y-48071D01*
X111229Y-47979D01*
X111230Y-47880D01*
X111230Y-47280D01*
X111192Y-47188D01*
X111121Y-47118D01*
X111029Y-47080D01*
X110930Y-47079D01*
X110130Y-47079D01*
X110078Y-47101D01*
X110029Y-47051D01*
X110029Y-46832D01*
X110038Y-46841D01*
X110130Y-46879D01*
X110229Y-46880D01*
X111029Y-46880D01*
X111121Y-46842D01*
X111191Y-46771D01*
X111229Y-46679D01*
X111229Y-46672D01*
X111252Y-46694D01*
X111445Y-46774D01*
X111653Y-46775D01*
X111847Y-46695D01*
X111994Y-46547D01*
X112074Y-46354D01*
X112075Y-46146D01*
X112018Y-46009D01*
X113351Y-46009D01*
X113351Y-46949D01*
X113350Y-46949D01*
X113258Y-46987D01*
X113188Y-47058D01*
X113150Y-47150D01*
X113149Y-47249D01*
X113149Y-48049D01*
X113187Y-48141D01*
X113258Y-48211D01*
X113350Y-48249D01*
X113449Y-48250D01*
X114049Y-48250D01*
X114141Y-48212D01*
X114211Y-48141D01*
X114249Y-48049D01*
X114250Y-47950D01*
X114250Y-47150D01*
X114212Y-47058D01*
X114141Y-46988D01*
X114049Y-46950D01*
X114048Y-46950D01*
X114048Y-46410D01*
X114104Y-46547D01*
X114252Y-46694D01*
X114445Y-46774D01*
X114653Y-46775D01*
X114847Y-46695D01*
X114994Y-46547D01*
X115074Y-46354D01*
X115075Y-46146D01*
X115051Y-46088D01*
X115504Y-46541D01*
X115458Y-46654D01*
X115457Y-46949D01*
X115496Y-47042D01*
X115441Y-46987D01*
X115349Y-46949D01*
X115112Y-46950D01*
X115050Y-47012D01*
X115050Y-47550D01*
X115487Y-47550D01*
X115550Y-47487D01*
X115550Y-47249D01*
X115549Y-47172D01*
X115570Y-47222D01*
X115779Y-47431D01*
X116051Y-47544D01*
X116346Y-47545D01*
X116619Y-47432D01*
X116828Y-47223D01*
X116941Y-46951D01*
X116942Y-46655D01*
X116942Y-53273D01*
X116667Y-53159D01*
X116333Y-53159D01*
X116024Y-53287D01*
X115787Y-53523D01*
X115659Y-53832D01*
X115659Y-54166D01*
X115787Y-54475D01*
X116023Y-54712D01*
X116332Y-54840D01*
X116666Y-54840D01*
X116975Y-54713D01*
X117212Y-54476D01*
X117340Y-54167D01*
X117340Y-53833D01*
X117340Y-54950D01*
X115550Y-54950D01*
X115550Y-47950D01*
X115550Y-47712D01*
X115487Y-47650D01*
X115050Y-47650D01*
X115050Y-48187D01*
X115112Y-48250D01*
X115349Y-48250D01*
X115441Y-48212D01*
X115511Y-48141D01*
X115549Y-48049D01*
X115550Y-47950D01*
X115550Y-54950D01*
X114950Y-54950D01*
X114950Y-48187D01*
X114950Y-47650D01*
X114950Y-47550D01*
X114950Y-47012D01*
X114887Y-46950D01*
X114650Y-46949D01*
X114558Y-46987D01*
X114488Y-47058D01*
X114450Y-47150D01*
X114449Y-47249D01*
X114450Y-47487D01*
X114512Y-47550D01*
X114950Y-47550D01*
X114950Y-47650D01*
X114512Y-47650D01*
X114450Y-47712D01*
X114449Y-47950D01*
X114450Y-48049D01*
X114488Y-48141D01*
X114558Y-48212D01*
X114650Y-48250D01*
X114887Y-48250D01*
X114950Y-48187D01*
X114950Y-54950D01*
X86340Y-54950D01*
X86340Y-53833D01*
X86213Y-53524D01*
X85976Y-53287D01*
X85667Y-53159D01*
X85333Y-53159D01*
X85024Y-53287D01*
X84787Y-53523D01*
X84659Y-53832D01*
X84659Y-54166D01*
X84787Y-54475D01*
X85023Y-54712D01*
X85332Y-54840D01*
X85666Y-54840D01*
X85975Y-54713D01*
X86212Y-54476D01*
X86340Y-54167D01*
X86340Y-53833D01*
X86340Y-54950D01*
X83843Y-54950D01*
X83843Y-52373D01*
X83843Y-50995D01*
X83746Y-50758D01*
X83565Y-50577D01*
X83328Y-50479D01*
X83072Y-50479D01*
X82835Y-50576D01*
X82654Y-50757D01*
X82556Y-50994D01*
X82556Y-51250D01*
X82653Y-51486D01*
X82834Y-51668D01*
X83071Y-51766D01*
X83327Y-51766D01*
X83564Y-51668D01*
X83745Y-51487D01*
X83843Y-51251D01*
X83843Y-50995D01*
X83843Y-52373D01*
X83746Y-52136D01*
X83565Y-51955D01*
X83328Y-51857D01*
X83072Y-51856D01*
X82835Y-51954D01*
X82654Y-52135D01*
X82556Y-52372D01*
X82556Y-52628D01*
X82653Y-52864D01*
X82834Y-53046D01*
X83071Y-53144D01*
X83327Y-53144D01*
X83564Y-53046D01*
X83745Y-52865D01*
X83843Y-52629D01*
X83843Y-52373D01*
X83843Y-54950D01*
X81050Y-54950D01*
X81050Y-27650D01*
X117950Y-27650D01*
X117950Y-54950D01*
M02*
