G04 (created by PCBNEW (2013-may-18)-stable) date  7.03.2015 (сб) 20,10,59 EET*
%MOIN*%
G04 Gerber Fmt 3.4, Leading zero omitted, Abs format*
%FSLAX34Y34*%
G01*
G70*
G90*
G04 APERTURE LIST*
%ADD10C,0.00590551*%
%ADD11C,0.005*%
%ADD12C,0.012*%
%ADD13C,0.008*%
%ADD14C,0.0125*%
%ADD15C,0.015*%
%ADD16C,0.0107*%
%ADD17C,0.01125*%
%ADD18C,0.01*%
%ADD19C,0.0075*%
%ADD20C,0.006*%
G04 APERTURE END LIST*
G54D10*
G54D11*
X95980Y-47120D02*
X96880Y-47120D01*
X96880Y-47120D02*
X96880Y-46470D01*
X95980Y-45770D02*
X95980Y-45120D01*
X95980Y-45120D02*
X96880Y-45120D01*
X96880Y-45120D02*
X96880Y-45770D01*
X95980Y-46470D02*
X95980Y-47120D01*
X109540Y-46830D02*
X109540Y-45930D01*
X109540Y-45930D02*
X108890Y-45930D01*
X108190Y-46830D02*
X107540Y-46830D01*
X107540Y-46830D02*
X107540Y-45930D01*
X107540Y-45930D02*
X108190Y-45930D01*
X108890Y-46830D02*
X109540Y-46830D01*
X108100Y-38850D02*
X108100Y-39750D01*
X108100Y-39750D02*
X108750Y-39750D01*
X109450Y-38850D02*
X110100Y-38850D01*
X110100Y-38850D02*
X110100Y-39750D01*
X110100Y-39750D02*
X109450Y-39750D01*
X108750Y-38850D02*
X108100Y-38850D01*
X105250Y-38850D02*
X104350Y-38850D01*
X104350Y-38850D02*
X104350Y-39500D01*
X105250Y-40200D02*
X105250Y-40850D01*
X105250Y-40850D02*
X104350Y-40850D01*
X104350Y-40850D02*
X104350Y-40200D01*
X105250Y-39500D02*
X105250Y-38850D01*
X107450Y-40150D02*
X106550Y-40150D01*
X106550Y-40150D02*
X106550Y-40800D01*
X107450Y-41500D02*
X107450Y-42150D01*
X107450Y-42150D02*
X106550Y-42150D01*
X106550Y-42150D02*
X106550Y-41500D01*
X107450Y-40800D02*
X107450Y-40150D01*
X111030Y-45980D02*
X110130Y-45980D01*
X110130Y-45980D02*
X110130Y-46630D01*
X111030Y-47330D02*
X111030Y-47980D01*
X111030Y-47980D02*
X110130Y-47980D01*
X110130Y-47980D02*
X110130Y-47330D01*
X111030Y-46630D02*
X111030Y-45980D01*
X106350Y-38850D02*
X105450Y-38850D01*
X105450Y-38850D02*
X105450Y-39500D01*
X106350Y-40200D02*
X106350Y-40850D01*
X106350Y-40850D02*
X105450Y-40850D01*
X105450Y-40850D02*
X105450Y-40200D01*
X106350Y-39500D02*
X106350Y-38850D01*
G54D12*
X101900Y-42190D02*
X100900Y-42190D01*
X100900Y-42190D02*
X100900Y-40190D01*
X100900Y-40190D02*
X101900Y-40190D01*
X101900Y-40190D02*
X101900Y-42190D01*
X105890Y-47350D02*
X106890Y-47350D01*
X106890Y-47350D02*
X106890Y-49350D01*
X106890Y-49350D02*
X105890Y-49350D01*
X105890Y-49350D02*
X105890Y-47350D01*
X107070Y-47350D02*
X108070Y-47350D01*
X108070Y-47350D02*
X108070Y-49350D01*
X108070Y-49350D02*
X107070Y-49350D01*
X107070Y-49350D02*
X107070Y-47350D01*
X103050Y-42200D02*
X102050Y-42200D01*
X102050Y-42200D02*
X102050Y-40200D01*
X102050Y-40200D02*
X103050Y-40200D01*
X103050Y-40200D02*
X103050Y-42200D01*
X108230Y-47350D02*
X109230Y-47350D01*
X109230Y-47350D02*
X109230Y-49350D01*
X109230Y-49350D02*
X108230Y-49350D01*
X108230Y-49350D02*
X108230Y-47350D01*
G54D13*
X111650Y-44650D02*
X111850Y-44650D01*
X114650Y-44650D02*
X114450Y-44650D01*
X114450Y-44650D02*
X114450Y-44250D01*
X114450Y-44250D02*
X111850Y-44250D01*
X111850Y-44250D02*
X111850Y-45050D01*
X111850Y-45050D02*
X114450Y-45050D01*
X114450Y-45050D02*
X114450Y-44650D01*
X111850Y-44450D02*
X112050Y-44250D01*
X114550Y-46250D02*
X114350Y-46250D01*
X111550Y-46250D02*
X111750Y-46250D01*
X111750Y-46250D02*
X111750Y-46650D01*
X111750Y-46650D02*
X114350Y-46650D01*
X114350Y-46650D02*
X114350Y-45850D01*
X114350Y-45850D02*
X111750Y-45850D01*
X111750Y-45850D02*
X111750Y-46250D01*
X114350Y-46450D02*
X114150Y-46650D01*
X111750Y-43200D02*
X111950Y-43200D01*
X114750Y-43200D02*
X114550Y-43200D01*
X114550Y-43200D02*
X114550Y-42800D01*
X114550Y-42800D02*
X111950Y-42800D01*
X111950Y-42800D02*
X111950Y-43600D01*
X111950Y-43600D02*
X114550Y-43600D01*
X114550Y-43600D02*
X114550Y-43200D01*
X111950Y-43000D02*
X112150Y-42800D01*
G54D12*
X87440Y-42990D02*
X87440Y-41990D01*
X87440Y-41990D02*
X93440Y-41990D01*
X93440Y-41990D02*
X93440Y-42990D01*
X93440Y-42990D02*
X87440Y-42990D01*
X88440Y-42990D02*
X88440Y-41990D01*
G54D14*
X91630Y-35560D02*
X89130Y-35560D01*
X91630Y-37560D02*
X89130Y-37560D01*
X88130Y-36560D02*
G75*
G03X89130Y-37560I1000J0D01*
G74*
G01*
X89130Y-35560D02*
G75*
G03X88130Y-36560I0J-1000D01*
G74*
G01*
X91630Y-37560D02*
G75*
G03X92630Y-36560I0J1000D01*
G74*
G01*
X92630Y-36560D02*
G75*
G03X91630Y-35560I-1000J0D01*
G74*
G01*
G54D15*
X91770Y-46430D02*
X92270Y-46430D01*
X92270Y-46430D02*
X92270Y-47430D01*
X92270Y-47430D02*
X91770Y-47430D01*
X91770Y-45930D02*
X95770Y-45930D01*
X95770Y-45930D02*
X95770Y-47930D01*
X95770Y-47930D02*
X91770Y-47930D01*
X91770Y-47930D02*
X91770Y-45930D01*
X99294Y-46432D02*
X99794Y-46432D01*
X99794Y-46432D02*
X99794Y-47432D01*
X99794Y-47432D02*
X99294Y-47432D01*
X99294Y-45932D02*
X103294Y-45932D01*
X103294Y-45932D02*
X103294Y-47932D01*
X103294Y-47932D02*
X99294Y-47932D01*
X99294Y-47932D02*
X99294Y-45932D01*
X101370Y-35190D02*
X101370Y-35190D01*
X101370Y-35190D02*
X100870Y-35190D01*
X100870Y-35190D02*
X100870Y-34190D01*
X100870Y-34190D02*
X101370Y-34190D01*
X101370Y-35690D02*
X92370Y-35690D01*
X92370Y-35690D02*
X92370Y-33690D01*
X92370Y-33690D02*
X101370Y-33690D01*
X101370Y-33690D02*
X101370Y-35690D01*
G54D12*
X115050Y-35250D02*
X115050Y-35550D01*
X115050Y-35550D02*
X114650Y-35550D01*
X114650Y-35550D02*
X114650Y-37950D01*
X114650Y-37950D02*
X115050Y-37950D01*
X115050Y-37950D02*
X115050Y-38250D01*
X115050Y-37950D02*
X115450Y-37950D01*
X115450Y-37950D02*
X115450Y-35550D01*
X115450Y-35550D02*
X115050Y-35550D01*
X114650Y-35750D02*
X115450Y-35750D01*
X115450Y-35850D02*
X114650Y-35850D01*
X105325Y-38200D02*
X105325Y-37900D01*
X105325Y-37900D02*
X105725Y-37900D01*
X105725Y-37900D02*
X105725Y-35500D01*
X105725Y-35500D02*
X105325Y-35500D01*
X105325Y-35500D02*
X105325Y-35200D01*
X105325Y-35500D02*
X104925Y-35500D01*
X104925Y-35500D02*
X104925Y-37900D01*
X104925Y-37900D02*
X105325Y-37900D01*
X105725Y-37700D02*
X104925Y-37700D01*
X104925Y-37600D02*
X105725Y-37600D01*
X115245Y-40300D02*
G75*
G03X115245Y-40300I-2195J0D01*
G74*
G01*
X114445Y-35750D02*
G75*
G03X114445Y-35750I-2195J0D01*
G74*
G01*
X104595Y-37800D02*
G75*
G03X104595Y-37800I-2195J0D01*
G74*
G01*
X109000Y-38550D02*
X109000Y-35750D01*
X109000Y-35750D02*
X109800Y-35750D01*
X109800Y-35750D02*
X109800Y-38550D01*
X109800Y-38550D02*
X109000Y-38550D01*
X109200Y-38550D02*
X109000Y-38350D01*
G54D11*
X104300Y-34400D02*
G75*
G03X104300Y-34400I-1250J0D01*
G74*
G01*
X97981Y-31460D02*
G75*
G03X97981Y-31460I-1001J0D01*
G74*
G01*
X102131Y-31590D02*
G75*
G03X102131Y-31590I-1001J0D01*
G74*
G01*
X100041Y-31550D02*
G75*
G03X100041Y-31550I-1001J0D01*
G74*
G01*
X95911Y-31570D02*
G75*
G03X95911Y-31570I-1001J0D01*
G74*
G01*
G54D10*
X105900Y-38600D02*
X105950Y-34600D01*
X105950Y-34600D02*
X107450Y-34600D01*
X107450Y-34600D02*
X108700Y-34600D01*
X108700Y-34600D02*
X108700Y-38600D01*
X108700Y-38600D02*
X105900Y-38600D01*
X116200Y-47787D02*
X115609Y-47787D01*
X115609Y-47787D02*
X115609Y-39912D01*
X115609Y-39912D02*
X120333Y-39912D01*
X120333Y-39912D02*
X120333Y-47787D01*
X120333Y-47787D02*
X116200Y-47787D01*
X116200Y-39168D02*
X115609Y-39168D01*
X115609Y-39168D02*
X115609Y-35231D01*
X115609Y-35231D02*
X120333Y-35231D01*
X120333Y-35231D02*
X120333Y-39168D01*
X120333Y-39168D02*
X116200Y-39168D01*
G54D15*
X90680Y-30870D02*
X90680Y-31370D01*
X90680Y-31370D02*
X89680Y-31370D01*
X89680Y-31370D02*
X89680Y-30870D01*
X91180Y-30870D02*
X91180Y-34870D01*
X91180Y-34870D02*
X89180Y-34870D01*
X89180Y-34870D02*
X89180Y-30870D01*
X89180Y-30870D02*
X91180Y-30870D01*
X96990Y-45930D02*
X98990Y-45930D01*
X98990Y-45930D02*
X98990Y-47930D01*
X98990Y-47930D02*
X96990Y-47930D01*
X96990Y-47930D02*
X96990Y-45930D01*
X96990Y-46680D02*
X97490Y-46680D01*
X97490Y-46680D02*
X97490Y-47180D01*
X97490Y-47180D02*
X96990Y-47180D01*
X87340Y-45950D02*
X89340Y-45950D01*
X89340Y-45950D02*
X89340Y-47950D01*
X89340Y-47950D02*
X87340Y-47950D01*
X87340Y-47950D02*
X87340Y-45950D01*
X87340Y-46700D02*
X87840Y-46700D01*
X87840Y-46700D02*
X87840Y-47200D01*
X87840Y-47200D02*
X87340Y-47200D01*
X85130Y-45930D02*
X87130Y-45930D01*
X87130Y-45930D02*
X87130Y-47930D01*
X87130Y-47930D02*
X85130Y-47930D01*
X85130Y-47930D02*
X85130Y-45930D01*
X85130Y-46680D02*
X85630Y-46680D01*
X85630Y-46680D02*
X85630Y-47180D01*
X85630Y-47180D02*
X85130Y-47180D01*
X105730Y-47950D02*
X103730Y-47950D01*
X103730Y-47950D02*
X103730Y-45950D01*
X103730Y-45950D02*
X105730Y-45950D01*
X105730Y-45950D02*
X105730Y-47950D01*
X105730Y-47200D02*
X105230Y-47200D01*
X105230Y-47200D02*
X105230Y-46700D01*
X105230Y-46700D02*
X105730Y-46700D01*
X91560Y-47960D02*
X89560Y-47960D01*
X89560Y-47960D02*
X89560Y-45960D01*
X89560Y-45960D02*
X91560Y-45960D01*
X91560Y-45960D02*
X91560Y-47960D01*
X91560Y-47210D02*
X91060Y-47210D01*
X91060Y-47210D02*
X91060Y-46710D01*
X91060Y-46710D02*
X91560Y-46710D01*
X99870Y-40730D02*
X84870Y-40730D01*
X84870Y-40730D02*
X84870Y-38730D01*
X84870Y-38730D02*
X99870Y-38730D01*
X99870Y-38730D02*
X99870Y-40730D01*
X99870Y-40230D02*
X99370Y-40230D01*
X99370Y-40230D02*
X99370Y-39230D01*
X99370Y-39230D02*
X99870Y-39230D01*
G54D10*
X107761Y-40244D02*
X107761Y-42055D01*
X110438Y-40283D02*
X110438Y-42016D01*
X107761Y-40244D02*
X110438Y-40244D01*
X107761Y-42055D02*
X110438Y-42055D01*
G54D11*
X113350Y-47150D02*
X113350Y-48050D01*
X113350Y-48050D02*
X114000Y-48050D01*
X114700Y-47150D02*
X115350Y-47150D01*
X115350Y-47150D02*
X115350Y-48050D01*
X115350Y-48050D02*
X114700Y-48050D01*
X114000Y-47150D02*
X113350Y-47150D01*
X87100Y-33840D02*
X88000Y-33840D01*
X88000Y-33840D02*
X88000Y-33190D01*
X87100Y-32490D02*
X87100Y-31840D01*
X87100Y-31840D02*
X88000Y-31840D01*
X88000Y-31840D02*
X88000Y-32490D01*
X87100Y-33190D02*
X87100Y-33840D01*
X92430Y-32550D02*
X93330Y-32550D01*
X93330Y-32550D02*
X93330Y-31900D01*
X92430Y-31200D02*
X92430Y-30550D01*
X92430Y-30550D02*
X93330Y-30550D01*
X93330Y-30550D02*
X93330Y-31200D01*
X92430Y-31900D02*
X92430Y-32550D01*
G54D10*
X79560Y-41800D02*
X79580Y-53560D01*
X83672Y-53553D02*
X79577Y-53553D01*
X83672Y-41801D02*
X83672Y-53553D01*
X83672Y-41801D02*
X79577Y-41801D01*
X79560Y-30060D02*
X79580Y-41820D01*
X83672Y-41813D02*
X79577Y-41813D01*
X83672Y-30061D02*
X83672Y-41813D01*
X83672Y-30061D02*
X79577Y-30061D01*
G54D11*
X96207Y-44961D02*
X96107Y-44818D01*
X96035Y-44961D02*
X96035Y-44661D01*
X96150Y-44661D01*
X96178Y-44675D01*
X96192Y-44690D01*
X96207Y-44718D01*
X96207Y-44761D01*
X96192Y-44790D01*
X96178Y-44804D01*
X96150Y-44818D01*
X96035Y-44818D01*
X96492Y-44961D02*
X96321Y-44961D01*
X96407Y-44961D02*
X96407Y-44661D01*
X96378Y-44704D01*
X96350Y-44732D01*
X96321Y-44747D01*
X96750Y-44661D02*
X96692Y-44661D01*
X96664Y-44675D01*
X96650Y-44690D01*
X96621Y-44732D01*
X96607Y-44790D01*
X96607Y-44904D01*
X96621Y-44932D01*
X96635Y-44947D01*
X96664Y-44961D01*
X96721Y-44961D01*
X96750Y-44947D01*
X96764Y-44932D01*
X96778Y-44904D01*
X96778Y-44832D01*
X96764Y-44804D01*
X96750Y-44790D01*
X96721Y-44775D01*
X96664Y-44775D01*
X96635Y-44790D01*
X96621Y-44804D01*
X96607Y-44832D01*
X108907Y-45801D02*
X108807Y-45658D01*
X108735Y-45801D02*
X108735Y-45501D01*
X108850Y-45501D01*
X108878Y-45515D01*
X108892Y-45530D01*
X108907Y-45558D01*
X108907Y-45601D01*
X108892Y-45630D01*
X108878Y-45644D01*
X108850Y-45658D01*
X108735Y-45658D01*
X109192Y-45801D02*
X109021Y-45801D01*
X109107Y-45801D02*
X109107Y-45501D01*
X109078Y-45544D01*
X109050Y-45572D01*
X109021Y-45587D01*
X109450Y-45601D02*
X109450Y-45801D01*
X109378Y-45487D02*
X109307Y-45701D01*
X109492Y-45701D01*
X110150Y-38692D02*
X110135Y-38707D01*
X110092Y-38721D01*
X110064Y-38721D01*
X110021Y-38707D01*
X109992Y-38678D01*
X109978Y-38650D01*
X109964Y-38592D01*
X109964Y-38550D01*
X109978Y-38492D01*
X109992Y-38464D01*
X110021Y-38435D01*
X110064Y-38421D01*
X110092Y-38421D01*
X110135Y-38435D01*
X110150Y-38450D01*
X110321Y-38550D02*
X110292Y-38535D01*
X110278Y-38521D01*
X110264Y-38492D01*
X110264Y-38478D01*
X110278Y-38450D01*
X110292Y-38435D01*
X110321Y-38421D01*
X110378Y-38421D01*
X110407Y-38435D01*
X110421Y-38450D01*
X110435Y-38478D01*
X110435Y-38492D01*
X110421Y-38521D01*
X110407Y-38535D01*
X110378Y-38550D01*
X110321Y-38550D01*
X110292Y-38564D01*
X110278Y-38578D01*
X110264Y-38607D01*
X110264Y-38664D01*
X110278Y-38692D01*
X110292Y-38707D01*
X110321Y-38721D01*
X110378Y-38721D01*
X110407Y-38707D01*
X110421Y-38692D01*
X110435Y-38664D01*
X110435Y-38607D01*
X110421Y-38578D01*
X110407Y-38564D01*
X110378Y-38550D01*
X104121Y-38592D02*
X103978Y-38692D01*
X104121Y-38764D02*
X103821Y-38764D01*
X103821Y-38650D01*
X103835Y-38621D01*
X103850Y-38607D01*
X103878Y-38592D01*
X103921Y-38592D01*
X103950Y-38607D01*
X103964Y-38621D01*
X103978Y-38650D01*
X103978Y-38764D01*
X104121Y-38307D02*
X104121Y-38478D01*
X104121Y-38392D02*
X103821Y-38392D01*
X103864Y-38421D01*
X103892Y-38450D01*
X103907Y-38478D01*
X103821Y-38207D02*
X103821Y-38021D01*
X103935Y-38121D01*
X103935Y-38078D01*
X103950Y-38050D01*
X103964Y-38035D01*
X103992Y-38021D01*
X104064Y-38021D01*
X104092Y-38035D01*
X104107Y-38050D01*
X104121Y-38078D01*
X104121Y-38164D01*
X104107Y-38192D01*
X104092Y-38207D01*
X106757Y-42571D02*
X106657Y-42428D01*
X106585Y-42571D02*
X106585Y-42271D01*
X106700Y-42271D01*
X106728Y-42285D01*
X106742Y-42300D01*
X106757Y-42328D01*
X106757Y-42371D01*
X106742Y-42400D01*
X106728Y-42414D01*
X106700Y-42428D01*
X106585Y-42428D01*
X107042Y-42571D02*
X106871Y-42571D01*
X106957Y-42571D02*
X106957Y-42271D01*
X106928Y-42314D01*
X106900Y-42342D01*
X106871Y-42357D01*
X107314Y-42271D02*
X107171Y-42271D01*
X107157Y-42414D01*
X107171Y-42400D01*
X107200Y-42385D01*
X107271Y-42385D01*
X107300Y-42400D01*
X107314Y-42414D01*
X107328Y-42442D01*
X107328Y-42514D01*
X107314Y-42542D01*
X107300Y-42557D01*
X107271Y-42571D01*
X107200Y-42571D01*
X107171Y-42557D01*
X107157Y-42542D01*
X111412Y-47852D02*
X111427Y-47867D01*
X111441Y-47910D01*
X111441Y-47938D01*
X111427Y-47981D01*
X111398Y-48010D01*
X111370Y-48024D01*
X111312Y-48038D01*
X111270Y-48038D01*
X111212Y-48024D01*
X111184Y-48010D01*
X111155Y-47981D01*
X111141Y-47938D01*
X111141Y-47910D01*
X111155Y-47867D01*
X111170Y-47852D01*
X111441Y-47567D02*
X111441Y-47738D01*
X111441Y-47652D02*
X111141Y-47652D01*
X111184Y-47681D01*
X111212Y-47710D01*
X111227Y-47738D01*
X111241Y-47310D02*
X111441Y-47310D01*
X111127Y-47381D02*
X111341Y-47452D01*
X111341Y-47267D01*
X106007Y-41321D02*
X105907Y-41178D01*
X105835Y-41321D02*
X105835Y-41021D01*
X105950Y-41021D01*
X105978Y-41035D01*
X105992Y-41050D01*
X106007Y-41078D01*
X106007Y-41121D01*
X105992Y-41150D01*
X105978Y-41164D01*
X105950Y-41178D01*
X105835Y-41178D01*
X106292Y-41321D02*
X106121Y-41321D01*
X106207Y-41321D02*
X106207Y-41021D01*
X106178Y-41064D01*
X106150Y-41092D01*
X106121Y-41107D01*
X106392Y-41021D02*
X106592Y-41021D01*
X106464Y-41321D01*
G54D16*
X99994Y-41546D02*
X100481Y-41546D01*
X100578Y-41567D01*
X100643Y-41607D01*
X100675Y-41668D01*
X100675Y-41709D01*
X100675Y-41342D02*
X99994Y-41342D01*
X99994Y-41179D01*
X100027Y-41139D01*
X100059Y-41118D01*
X100124Y-41098D01*
X100221Y-41098D01*
X100286Y-41118D01*
X100318Y-41139D01*
X100351Y-41179D01*
X100351Y-41342D01*
X100059Y-40935D02*
X100027Y-40914D01*
X99994Y-40874D01*
X99994Y-40772D01*
X100027Y-40731D01*
X100059Y-40711D01*
X100124Y-40690D01*
X100189Y-40690D01*
X100286Y-40711D01*
X100675Y-40955D01*
X100675Y-40690D01*
G54D12*
G54D16*
X106054Y-50456D02*
X106541Y-50456D01*
X106638Y-50477D01*
X106703Y-50517D01*
X106735Y-50578D01*
X106735Y-50619D01*
X106735Y-50252D02*
X106054Y-50252D01*
X106054Y-50089D01*
X106087Y-50049D01*
X106119Y-50028D01*
X106184Y-50008D01*
X106281Y-50008D01*
X106346Y-50028D01*
X106378Y-50049D01*
X106411Y-50089D01*
X106411Y-50252D01*
X106054Y-49621D02*
X106054Y-49824D01*
X106378Y-49845D01*
X106346Y-49824D01*
X106314Y-49784D01*
X106314Y-49682D01*
X106346Y-49641D01*
X106378Y-49621D01*
X106443Y-49600D01*
X106605Y-49600D01*
X106670Y-49621D01*
X106703Y-49641D01*
X106735Y-49682D01*
X106735Y-49784D01*
X106703Y-49824D01*
X106670Y-49845D01*
G54D12*
G54D16*
X107214Y-50416D02*
X107701Y-50416D01*
X107798Y-50437D01*
X107863Y-50477D01*
X107895Y-50538D01*
X107895Y-50579D01*
X107895Y-50212D02*
X107214Y-50212D01*
X107214Y-50049D01*
X107247Y-50009D01*
X107279Y-49988D01*
X107344Y-49968D01*
X107441Y-49968D01*
X107506Y-49988D01*
X107538Y-50009D01*
X107571Y-50049D01*
X107571Y-50212D01*
X107441Y-49601D02*
X107895Y-49601D01*
X107182Y-49703D02*
X107668Y-49805D01*
X107668Y-49540D01*
G54D12*
G54D16*
X103094Y-41796D02*
X103581Y-41796D01*
X103678Y-41817D01*
X103743Y-41857D01*
X103775Y-41918D01*
X103775Y-41959D01*
X103775Y-41592D02*
X103094Y-41592D01*
X103094Y-41429D01*
X103127Y-41389D01*
X103159Y-41368D01*
X103224Y-41348D01*
X103321Y-41348D01*
X103386Y-41368D01*
X103418Y-41389D01*
X103451Y-41429D01*
X103451Y-41592D01*
X103775Y-40940D02*
X103775Y-41185D01*
X103775Y-41062D02*
X103094Y-41062D01*
X103191Y-41103D01*
X103256Y-41144D01*
X103289Y-41185D01*
G54D12*
G54D16*
X108414Y-50436D02*
X108901Y-50436D01*
X108998Y-50457D01*
X109063Y-50497D01*
X109095Y-50558D01*
X109095Y-50599D01*
X109095Y-50232D02*
X108414Y-50232D01*
X108414Y-50069D01*
X108447Y-50029D01*
X108479Y-50008D01*
X108544Y-49988D01*
X108641Y-49988D01*
X108706Y-50008D01*
X108738Y-50029D01*
X108771Y-50069D01*
X108771Y-50232D01*
X108414Y-49845D02*
X108414Y-49580D01*
X108674Y-49723D01*
X108674Y-49662D01*
X108706Y-49621D01*
X108738Y-49601D01*
X108803Y-49580D01*
X108965Y-49580D01*
X109030Y-49601D01*
X109063Y-49621D01*
X109095Y-49662D01*
X109095Y-49784D01*
X109063Y-49825D01*
X109030Y-49845D01*
G54D12*
G54D13*
X112769Y-44372D02*
X112816Y-44372D01*
X112864Y-44398D01*
X112888Y-44425D01*
X112911Y-44477D01*
X112935Y-44582D01*
X112935Y-44713D01*
X112911Y-44817D01*
X112888Y-44870D01*
X112864Y-44896D01*
X112816Y-44922D01*
X112769Y-44922D01*
X112721Y-44896D01*
X112697Y-44870D01*
X112673Y-44817D01*
X112650Y-44713D01*
X112650Y-44582D01*
X112673Y-44477D01*
X112697Y-44425D01*
X112721Y-44398D01*
X112769Y-44372D01*
X113150Y-44870D02*
X113173Y-44896D01*
X113150Y-44922D01*
X113126Y-44896D01*
X113150Y-44870D01*
X113150Y-44922D01*
X113364Y-44425D02*
X113388Y-44398D01*
X113435Y-44372D01*
X113554Y-44372D01*
X113602Y-44398D01*
X113626Y-44425D01*
X113650Y-44477D01*
X113650Y-44529D01*
X113626Y-44608D01*
X113340Y-44922D01*
X113650Y-44922D01*
X112907Y-46422D02*
X112621Y-46422D01*
X112764Y-46422D02*
X112764Y-45872D01*
X112716Y-45951D01*
X112669Y-46003D01*
X112621Y-46029D01*
X113121Y-46422D02*
X113121Y-45872D01*
X113288Y-46265D01*
X113454Y-45872D01*
X113454Y-46422D01*
X112869Y-42922D02*
X112916Y-42922D01*
X112964Y-42948D01*
X112988Y-42975D01*
X113011Y-43027D01*
X113035Y-43132D01*
X113035Y-43263D01*
X113011Y-43367D01*
X112988Y-43420D01*
X112964Y-43446D01*
X112916Y-43472D01*
X112869Y-43472D01*
X112821Y-43446D01*
X112797Y-43420D01*
X112773Y-43367D01*
X112750Y-43263D01*
X112750Y-43132D01*
X112773Y-43027D01*
X112797Y-42975D01*
X112821Y-42948D01*
X112869Y-42922D01*
X113250Y-43420D02*
X113273Y-43446D01*
X113250Y-43472D01*
X113226Y-43446D01*
X113250Y-43420D01*
X113250Y-43472D01*
X113464Y-42975D02*
X113488Y-42948D01*
X113535Y-42922D01*
X113654Y-42922D01*
X113702Y-42948D01*
X113726Y-42975D01*
X113750Y-43027D01*
X113750Y-43079D01*
X113726Y-43158D01*
X113440Y-43472D01*
X113750Y-43472D01*
X87281Y-42835D02*
X86881Y-42835D01*
X86881Y-42682D01*
X86900Y-42644D01*
X86920Y-42625D01*
X86958Y-42606D01*
X87015Y-42606D01*
X87053Y-42625D01*
X87072Y-42644D01*
X87091Y-42682D01*
X87091Y-42835D01*
X86920Y-42454D02*
X86900Y-42435D01*
X86881Y-42397D01*
X86881Y-42301D01*
X86900Y-42263D01*
X86920Y-42244D01*
X86958Y-42225D01*
X86996Y-42225D01*
X87053Y-42244D01*
X87281Y-42473D01*
X87281Y-42225D01*
G54D12*
X86882Y-36525D02*
X87482Y-36125D01*
X86882Y-36125D02*
X87482Y-36525D01*
X87482Y-35582D02*
X87482Y-35925D01*
X87482Y-35754D02*
X86882Y-35754D01*
X86968Y-35811D01*
X87025Y-35868D01*
X87054Y-35925D01*
G54D17*
X93457Y-49183D02*
X93457Y-49750D01*
X93478Y-49816D01*
X93500Y-49850D01*
X93542Y-49883D01*
X93628Y-49883D01*
X93671Y-49850D01*
X93692Y-49816D01*
X93714Y-49750D01*
X93714Y-49183D01*
X93885Y-49183D02*
X94164Y-49183D01*
X94014Y-49450D01*
X94078Y-49450D01*
X94121Y-49483D01*
X94142Y-49516D01*
X94164Y-49583D01*
X94164Y-49750D01*
X94142Y-49816D01*
X94121Y-49850D01*
X94078Y-49883D01*
X93950Y-49883D01*
X93907Y-49850D01*
X93885Y-49816D01*
G54D12*
G54D18*
X93065Y-46513D02*
X92989Y-46513D01*
X92950Y-46546D01*
X92931Y-46580D01*
X92893Y-46680D01*
X92874Y-46813D01*
X92874Y-47080D01*
X92893Y-47146D01*
X92912Y-47180D01*
X92950Y-47213D01*
X93027Y-47213D01*
X93065Y-47180D01*
X93084Y-47146D01*
X93103Y-47080D01*
X93103Y-46913D01*
X93084Y-46846D01*
X93065Y-46813D01*
X93027Y-46780D01*
X92950Y-46780D01*
X92912Y-46813D01*
X92893Y-46846D01*
X92874Y-46913D01*
X93274Y-47213D02*
X93274Y-46513D01*
X93503Y-47213D01*
X93503Y-46513D01*
X93903Y-47213D02*
X93674Y-47213D01*
X93789Y-47213D02*
X93789Y-46513D01*
X93750Y-46613D01*
X93712Y-46680D01*
X93674Y-46713D01*
X94036Y-46513D02*
X94284Y-46513D01*
X94150Y-46780D01*
X94208Y-46780D01*
X94246Y-46813D01*
X94265Y-46846D01*
X94284Y-46913D01*
X94284Y-47080D01*
X94265Y-47146D01*
X94246Y-47180D01*
X94208Y-47213D01*
X94093Y-47213D01*
X94055Y-47180D01*
X94036Y-47146D01*
X94417Y-46513D02*
X94684Y-46513D01*
X94512Y-47213D01*
G54D12*
G54D17*
X100857Y-49183D02*
X100857Y-49750D01*
X100878Y-49816D01*
X100900Y-49850D01*
X100942Y-49883D01*
X101028Y-49883D01*
X101071Y-49850D01*
X101092Y-49816D01*
X101114Y-49750D01*
X101114Y-49183D01*
X101307Y-49250D02*
X101328Y-49216D01*
X101371Y-49183D01*
X101478Y-49183D01*
X101521Y-49216D01*
X101542Y-49250D01*
X101564Y-49316D01*
X101564Y-49383D01*
X101542Y-49483D01*
X101285Y-49883D01*
X101564Y-49883D01*
G54D12*
G54D18*
X100819Y-46400D02*
X100743Y-46400D01*
X100704Y-46433D01*
X100685Y-46467D01*
X100647Y-46567D01*
X100628Y-46700D01*
X100628Y-46967D01*
X100647Y-47033D01*
X100666Y-47067D01*
X100704Y-47100D01*
X100781Y-47100D01*
X100819Y-47067D01*
X100838Y-47033D01*
X100857Y-46967D01*
X100857Y-46800D01*
X100838Y-46733D01*
X100819Y-46700D01*
X100781Y-46667D01*
X100704Y-46667D01*
X100666Y-46700D01*
X100647Y-46733D01*
X100628Y-46800D01*
X101028Y-47100D02*
X101028Y-46400D01*
X101257Y-47100D01*
X101257Y-46400D01*
X101657Y-47100D02*
X101428Y-47100D01*
X101543Y-47100D02*
X101543Y-46400D01*
X101504Y-46500D01*
X101466Y-46567D01*
X101428Y-46600D01*
X101790Y-46400D02*
X102038Y-46400D01*
X101904Y-46667D01*
X101962Y-46667D01*
X102000Y-46700D01*
X102019Y-46733D01*
X102038Y-46800D01*
X102038Y-46967D01*
X102019Y-47033D01*
X102000Y-47067D01*
X101962Y-47100D01*
X101847Y-47100D01*
X101809Y-47067D01*
X101790Y-47033D01*
X102171Y-46400D02*
X102438Y-46400D01*
X102266Y-47100D01*
G54D12*
G54D17*
X97317Y-34222D02*
X97317Y-34708D01*
X97338Y-34765D01*
X97360Y-34794D01*
X97402Y-34822D01*
X97488Y-34822D01*
X97531Y-34794D01*
X97552Y-34765D01*
X97574Y-34708D01*
X97574Y-34222D01*
X98024Y-34822D02*
X97767Y-34822D01*
X97895Y-34822D02*
X97895Y-34222D01*
X97852Y-34308D01*
X97810Y-34365D01*
X97767Y-34394D01*
G54D12*
G54D17*
X93820Y-34922D02*
X93820Y-34322D01*
X93970Y-34751D01*
X94120Y-34322D01*
X94120Y-34922D01*
X94312Y-34751D02*
X94527Y-34751D01*
X94270Y-34922D02*
X94420Y-34322D01*
X94570Y-34922D01*
X94677Y-34322D02*
X94977Y-34922D01*
X94977Y-34322D02*
X94677Y-34922D01*
X95127Y-34380D02*
X95148Y-34351D01*
X95191Y-34322D01*
X95298Y-34322D01*
X95341Y-34351D01*
X95362Y-34380D01*
X95384Y-34437D01*
X95384Y-34494D01*
X95362Y-34580D01*
X95105Y-34922D01*
X95384Y-34922D01*
X95534Y-34322D02*
X95812Y-34322D01*
X95662Y-34551D01*
X95727Y-34551D01*
X95770Y-34580D01*
X95791Y-34608D01*
X95812Y-34665D01*
X95812Y-34808D01*
X95791Y-34865D01*
X95770Y-34894D01*
X95727Y-34922D01*
X95598Y-34922D01*
X95555Y-34894D01*
X95534Y-34865D01*
X95984Y-34380D02*
X96005Y-34351D01*
X96048Y-34322D01*
X96155Y-34322D01*
X96198Y-34351D01*
X96220Y-34380D01*
X96241Y-34437D01*
X96241Y-34494D01*
X96220Y-34580D01*
X95962Y-34922D01*
X96241Y-34922D01*
G54D12*
G54D13*
X115211Y-37045D02*
X114811Y-37045D01*
X114811Y-36949D01*
X114830Y-36892D01*
X114869Y-36854D01*
X114907Y-36835D01*
X114983Y-36816D01*
X115040Y-36816D01*
X115116Y-36835D01*
X115154Y-36854D01*
X115192Y-36892D01*
X115211Y-36949D01*
X115211Y-37045D01*
X114850Y-36664D02*
X114830Y-36645D01*
X114811Y-36607D01*
X114811Y-36511D01*
X114830Y-36473D01*
X114850Y-36454D01*
X114888Y-36435D01*
X114926Y-36435D01*
X114983Y-36454D01*
X115211Y-36683D01*
X115211Y-36435D01*
X105486Y-37020D02*
X105086Y-37020D01*
X105086Y-36924D01*
X105105Y-36867D01*
X105144Y-36829D01*
X105182Y-36810D01*
X105258Y-36791D01*
X105315Y-36791D01*
X105391Y-36810D01*
X105429Y-36829D01*
X105467Y-36867D01*
X105486Y-36924D01*
X105486Y-37020D01*
X105486Y-36410D02*
X105486Y-36639D01*
X105486Y-36524D02*
X105086Y-36524D01*
X105144Y-36563D01*
X105182Y-36601D01*
X105201Y-36639D01*
G54D18*
X112728Y-41454D02*
X112704Y-41478D01*
X112633Y-41502D01*
X112585Y-41502D01*
X112514Y-41478D01*
X112466Y-41430D01*
X112442Y-41383D01*
X112419Y-41288D01*
X112419Y-41216D01*
X112442Y-41121D01*
X112466Y-41073D01*
X112514Y-41026D01*
X112585Y-41002D01*
X112633Y-41002D01*
X112704Y-41026D01*
X112728Y-41050D01*
X113204Y-41502D02*
X112919Y-41502D01*
X113061Y-41502D02*
X113061Y-41002D01*
X113014Y-41073D01*
X112966Y-41121D01*
X112919Y-41145D01*
X113371Y-41002D02*
X113680Y-41002D01*
X113514Y-41192D01*
X113585Y-41192D01*
X113633Y-41216D01*
X113657Y-41240D01*
X113680Y-41288D01*
X113680Y-41407D01*
X113657Y-41454D01*
X113633Y-41478D01*
X113585Y-41502D01*
X113442Y-41502D01*
X113395Y-41478D01*
X113371Y-41454D01*
X112204Y-39050D02*
X112228Y-39026D01*
X112276Y-39002D01*
X112395Y-39002D01*
X112442Y-39026D01*
X112466Y-39050D01*
X112490Y-39097D01*
X112490Y-39145D01*
X112466Y-39216D01*
X112180Y-39502D01*
X112490Y-39502D01*
X112680Y-39050D02*
X112704Y-39026D01*
X112752Y-39002D01*
X112871Y-39002D01*
X112919Y-39026D01*
X112942Y-39050D01*
X112966Y-39097D01*
X112966Y-39145D01*
X112942Y-39216D01*
X112657Y-39502D01*
X112966Y-39502D01*
X113276Y-39002D02*
X113323Y-39002D01*
X113371Y-39026D01*
X113395Y-39050D01*
X113419Y-39097D01*
X113442Y-39192D01*
X113442Y-39311D01*
X113419Y-39407D01*
X113395Y-39454D01*
X113371Y-39478D01*
X113323Y-39502D01*
X113276Y-39502D01*
X113228Y-39478D01*
X113204Y-39454D01*
X113180Y-39407D01*
X113157Y-39311D01*
X113157Y-39192D01*
X113180Y-39097D01*
X113204Y-39050D01*
X113228Y-39026D01*
X113276Y-39002D01*
X113871Y-39169D02*
X113871Y-39502D01*
X113657Y-39169D02*
X113657Y-39430D01*
X113680Y-39478D01*
X113728Y-39502D01*
X113800Y-39502D01*
X113847Y-39478D01*
X113871Y-39454D01*
X113554Y-35771D02*
X113578Y-35795D01*
X113602Y-35866D01*
X113602Y-35914D01*
X113578Y-35985D01*
X113530Y-36033D01*
X113483Y-36057D01*
X113388Y-36080D01*
X113316Y-36080D01*
X113221Y-36057D01*
X113173Y-36033D01*
X113126Y-35985D01*
X113102Y-35914D01*
X113102Y-35866D01*
X113126Y-35795D01*
X113150Y-35771D01*
X113602Y-35295D02*
X113602Y-35580D01*
X113602Y-35438D02*
X113102Y-35438D01*
X113173Y-35485D01*
X113221Y-35533D01*
X113245Y-35580D01*
X113102Y-35128D02*
X113102Y-34795D01*
X113602Y-35009D01*
X111000Y-36595D02*
X110976Y-36571D01*
X110952Y-36523D01*
X110952Y-36404D01*
X110976Y-36357D01*
X111000Y-36333D01*
X111047Y-36309D01*
X111095Y-36309D01*
X111166Y-36333D01*
X111452Y-36619D01*
X111452Y-36309D01*
X111000Y-36119D02*
X110976Y-36095D01*
X110952Y-36047D01*
X110952Y-35928D01*
X110976Y-35880D01*
X111000Y-35857D01*
X111047Y-35833D01*
X111095Y-35833D01*
X111166Y-35857D01*
X111452Y-36142D01*
X111452Y-35833D01*
X110952Y-35523D02*
X110952Y-35476D01*
X110976Y-35428D01*
X111000Y-35404D01*
X111047Y-35380D01*
X111142Y-35357D01*
X111261Y-35357D01*
X111357Y-35380D01*
X111404Y-35404D01*
X111428Y-35428D01*
X111452Y-35476D01*
X111452Y-35523D01*
X111428Y-35571D01*
X111404Y-35595D01*
X111357Y-35619D01*
X111261Y-35642D01*
X111142Y-35642D01*
X111047Y-35619D01*
X111000Y-35595D01*
X110976Y-35571D01*
X110952Y-35523D01*
X111119Y-34928D02*
X111452Y-34928D01*
X111119Y-35142D02*
X111380Y-35142D01*
X111428Y-35119D01*
X111452Y-35071D01*
X111452Y-35000D01*
X111428Y-34952D01*
X111404Y-34928D01*
X102562Y-37863D02*
X102562Y-38101D01*
X102062Y-38101D01*
X102562Y-37434D02*
X102562Y-37720D01*
X102562Y-37577D02*
X102062Y-37577D01*
X102133Y-37625D01*
X102181Y-37672D01*
X102205Y-37720D01*
X103102Y-38669D02*
X103102Y-38359D01*
X103292Y-38526D01*
X103292Y-38454D01*
X103316Y-38407D01*
X103340Y-38383D01*
X103388Y-38359D01*
X103507Y-38359D01*
X103554Y-38383D01*
X103578Y-38407D01*
X103602Y-38454D01*
X103602Y-38597D01*
X103578Y-38645D01*
X103554Y-38669D01*
X103102Y-38192D02*
X103102Y-37883D01*
X103292Y-38050D01*
X103292Y-37978D01*
X103316Y-37930D01*
X103340Y-37907D01*
X103388Y-37883D01*
X103507Y-37883D01*
X103554Y-37907D01*
X103578Y-37930D01*
X103602Y-37978D01*
X103602Y-38121D01*
X103578Y-38169D01*
X103554Y-38192D01*
X103102Y-37573D02*
X103102Y-37526D01*
X103126Y-37478D01*
X103150Y-37454D01*
X103197Y-37430D01*
X103292Y-37407D01*
X103411Y-37407D01*
X103507Y-37430D01*
X103554Y-37454D01*
X103578Y-37478D01*
X103602Y-37526D01*
X103602Y-37573D01*
X103578Y-37621D01*
X103554Y-37645D01*
X103507Y-37669D01*
X103411Y-37692D01*
X103292Y-37692D01*
X103197Y-37669D01*
X103150Y-37645D01*
X103126Y-37621D01*
X103102Y-37573D01*
X103269Y-36978D02*
X103602Y-36978D01*
X103269Y-37192D02*
X103530Y-37192D01*
X103578Y-37169D01*
X103602Y-37121D01*
X103602Y-37050D01*
X103578Y-37002D01*
X103554Y-36978D01*
G54D13*
X110323Y-37857D02*
X110342Y-37876D01*
X110361Y-37933D01*
X110361Y-37971D01*
X110342Y-38028D01*
X110304Y-38066D01*
X110266Y-38085D01*
X110190Y-38104D01*
X110133Y-38104D01*
X110057Y-38085D01*
X110019Y-38066D01*
X109980Y-38028D01*
X109961Y-37971D01*
X109961Y-37933D01*
X109980Y-37876D01*
X110000Y-37857D01*
X110361Y-37476D02*
X110361Y-37704D01*
X110361Y-37590D02*
X109961Y-37590D01*
X110019Y-37628D01*
X110057Y-37666D01*
X110076Y-37704D01*
X109961Y-37114D02*
X109961Y-37304D01*
X110152Y-37323D01*
X110133Y-37304D01*
X110114Y-37266D01*
X110114Y-37171D01*
X110133Y-37133D01*
X110152Y-37114D01*
X110190Y-37095D01*
X110285Y-37095D01*
X110323Y-37114D01*
X110342Y-37133D01*
X110361Y-37171D01*
X110361Y-37266D01*
X110342Y-37304D01*
X110323Y-37323D01*
X101879Y-34545D02*
X101900Y-34561D01*
X101922Y-34611D01*
X101922Y-34645D01*
X101900Y-34695D01*
X101857Y-34728D01*
X101815Y-34745D01*
X101729Y-34761D01*
X101665Y-34761D01*
X101579Y-34745D01*
X101536Y-34728D01*
X101493Y-34695D01*
X101472Y-34645D01*
X101472Y-34611D01*
X101493Y-34561D01*
X101515Y-34545D01*
X101922Y-34211D02*
X101922Y-34411D01*
X101922Y-34311D02*
X101472Y-34311D01*
X101536Y-34345D01*
X101579Y-34378D01*
X101600Y-34411D01*
X101472Y-33995D02*
X101472Y-33961D01*
X101493Y-33928D01*
X101515Y-33911D01*
X101557Y-33895D01*
X101643Y-33878D01*
X101750Y-33878D01*
X101836Y-33895D01*
X101879Y-33911D01*
X101900Y-33928D01*
X101922Y-33961D01*
X101922Y-33995D01*
X101900Y-34028D01*
X101879Y-34045D01*
X101836Y-34061D01*
X101750Y-34078D01*
X101643Y-34078D01*
X101557Y-34061D01*
X101515Y-34045D01*
X101493Y-34028D01*
X101472Y-33995D01*
X102371Y-33392D02*
X102588Y-33392D01*
X102471Y-33563D01*
X102521Y-33563D01*
X102555Y-33585D01*
X102571Y-33606D01*
X102588Y-33649D01*
X102588Y-33756D01*
X102571Y-33799D01*
X102555Y-33820D01*
X102521Y-33842D01*
X102421Y-33842D01*
X102388Y-33820D01*
X102371Y-33799D01*
X102705Y-33392D02*
X102921Y-33392D01*
X102805Y-33563D01*
X102855Y-33563D01*
X102888Y-33585D01*
X102905Y-33606D01*
X102921Y-33649D01*
X102921Y-33756D01*
X102905Y-33799D01*
X102888Y-33820D01*
X102855Y-33842D01*
X102755Y-33842D01*
X102721Y-33820D01*
X102705Y-33799D01*
X103138Y-33392D02*
X103171Y-33392D01*
X103205Y-33413D01*
X103221Y-33435D01*
X103238Y-33477D01*
X103255Y-33563D01*
X103255Y-33670D01*
X103238Y-33756D01*
X103221Y-33799D01*
X103205Y-33820D01*
X103171Y-33842D01*
X103138Y-33842D01*
X103105Y-33820D01*
X103088Y-33799D01*
X103071Y-33756D01*
X103055Y-33670D01*
X103055Y-33563D01*
X103071Y-33477D01*
X103088Y-33435D01*
X103105Y-33413D01*
X103138Y-33392D01*
X103555Y-33542D02*
X103555Y-33842D01*
X103405Y-33542D02*
X103405Y-33777D01*
X103421Y-33820D01*
X103455Y-33842D01*
X103505Y-33842D01*
X103538Y-33820D01*
X103555Y-33799D01*
G54D17*
X101878Y-34410D02*
X102221Y-34410D01*
X102050Y-34582D02*
X102050Y-34239D01*
G54D12*
G54D11*
X96890Y-32232D02*
X96875Y-32247D01*
X96832Y-32261D01*
X96804Y-32261D01*
X96761Y-32247D01*
X96732Y-32218D01*
X96718Y-32190D01*
X96704Y-32132D01*
X96704Y-32090D01*
X96718Y-32032D01*
X96732Y-32004D01*
X96761Y-31975D01*
X96804Y-31961D01*
X96832Y-31961D01*
X96875Y-31975D01*
X96890Y-31990D01*
X97147Y-32061D02*
X97147Y-32261D01*
X97075Y-31947D02*
X97004Y-32161D01*
X97190Y-32161D01*
X96779Y-30941D02*
X96636Y-30941D01*
X96707Y-30941D02*
X96707Y-30641D01*
X96684Y-30684D01*
X96660Y-30712D01*
X96636Y-30727D01*
X96934Y-30641D02*
X96957Y-30641D01*
X96981Y-30655D01*
X96993Y-30670D01*
X97005Y-30698D01*
X97017Y-30755D01*
X97017Y-30827D01*
X97005Y-30884D01*
X96993Y-30912D01*
X96981Y-30927D01*
X96957Y-30941D01*
X96934Y-30941D01*
X96910Y-30927D01*
X96898Y-30912D01*
X96886Y-30884D01*
X96874Y-30827D01*
X96874Y-30755D01*
X96886Y-30698D01*
X96898Y-30670D01*
X96910Y-30655D01*
X96934Y-30641D01*
X97231Y-30741D02*
X97231Y-30941D01*
X97124Y-30741D02*
X97124Y-30898D01*
X97136Y-30927D01*
X97160Y-30941D01*
X97195Y-30941D01*
X97219Y-30927D01*
X97231Y-30912D01*
G54D19*
X97765Y-31467D02*
X97994Y-31467D01*
X97880Y-31581D02*
X97880Y-31352D01*
G54D13*
G54D11*
X101090Y-32352D02*
X101075Y-32367D01*
X101032Y-32381D01*
X101004Y-32381D01*
X100961Y-32367D01*
X100932Y-32338D01*
X100918Y-32310D01*
X100904Y-32252D01*
X100904Y-32210D01*
X100918Y-32152D01*
X100932Y-32124D01*
X100961Y-32095D01*
X101004Y-32081D01*
X101032Y-32081D01*
X101075Y-32095D01*
X101090Y-32110D01*
X101190Y-32081D02*
X101375Y-32081D01*
X101275Y-32195D01*
X101318Y-32195D01*
X101347Y-32210D01*
X101361Y-32224D01*
X101375Y-32252D01*
X101375Y-32324D01*
X101361Y-32352D01*
X101347Y-32367D01*
X101318Y-32381D01*
X101232Y-32381D01*
X101204Y-32367D01*
X101190Y-32352D01*
X100959Y-31001D02*
X100816Y-31001D01*
X100887Y-31001D02*
X100887Y-30701D01*
X100864Y-30744D01*
X100840Y-30772D01*
X100816Y-30787D01*
X101114Y-30701D02*
X101137Y-30701D01*
X101161Y-30715D01*
X101173Y-30730D01*
X101185Y-30758D01*
X101197Y-30815D01*
X101197Y-30887D01*
X101185Y-30944D01*
X101173Y-30972D01*
X101161Y-30987D01*
X101137Y-31001D01*
X101114Y-31001D01*
X101090Y-30987D01*
X101078Y-30972D01*
X101066Y-30944D01*
X101054Y-30887D01*
X101054Y-30815D01*
X101066Y-30758D01*
X101078Y-30730D01*
X101090Y-30715D01*
X101114Y-30701D01*
X101411Y-30801D02*
X101411Y-31001D01*
X101304Y-30801D02*
X101304Y-30958D01*
X101316Y-30987D01*
X101340Y-31001D01*
X101375Y-31001D01*
X101399Y-30987D01*
X101411Y-30972D01*
G54D19*
X100115Y-31597D02*
X100344Y-31597D01*
X100230Y-31711D02*
X100230Y-31482D01*
G54D13*
G54D11*
X98990Y-32292D02*
X98975Y-32307D01*
X98932Y-32321D01*
X98904Y-32321D01*
X98861Y-32307D01*
X98832Y-32278D01*
X98818Y-32250D01*
X98804Y-32192D01*
X98804Y-32150D01*
X98818Y-32092D01*
X98832Y-32064D01*
X98861Y-32035D01*
X98904Y-32021D01*
X98932Y-32021D01*
X98975Y-32035D01*
X98990Y-32050D01*
X99247Y-32021D02*
X99190Y-32021D01*
X99161Y-32035D01*
X99147Y-32050D01*
X99118Y-32092D01*
X99104Y-32150D01*
X99104Y-32264D01*
X99118Y-32292D01*
X99132Y-32307D01*
X99161Y-32321D01*
X99218Y-32321D01*
X99247Y-32307D01*
X99261Y-32292D01*
X99275Y-32264D01*
X99275Y-32192D01*
X99261Y-32164D01*
X99247Y-32150D01*
X99218Y-32135D01*
X99161Y-32135D01*
X99132Y-32150D01*
X99118Y-32164D01*
X99104Y-32192D01*
X98879Y-31001D02*
X98736Y-31001D01*
X98807Y-31001D02*
X98807Y-30701D01*
X98784Y-30744D01*
X98760Y-30772D01*
X98736Y-30787D01*
X99034Y-30701D02*
X99057Y-30701D01*
X99081Y-30715D01*
X99093Y-30730D01*
X99105Y-30758D01*
X99117Y-30815D01*
X99117Y-30887D01*
X99105Y-30944D01*
X99093Y-30972D01*
X99081Y-30987D01*
X99057Y-31001D01*
X99034Y-31001D01*
X99010Y-30987D01*
X98998Y-30972D01*
X98986Y-30944D01*
X98974Y-30887D01*
X98974Y-30815D01*
X98986Y-30758D01*
X98998Y-30730D01*
X99010Y-30715D01*
X99034Y-30701D01*
X99331Y-30801D02*
X99331Y-31001D01*
X99224Y-30801D02*
X99224Y-30958D01*
X99236Y-30987D01*
X99260Y-31001D01*
X99295Y-31001D01*
X99319Y-30987D01*
X99331Y-30972D01*
G54D19*
X99825Y-31557D02*
X100054Y-31557D01*
X99940Y-31671D02*
X99940Y-31442D01*
G54D13*
G54D11*
X94850Y-32352D02*
X94835Y-32367D01*
X94792Y-32381D01*
X94764Y-32381D01*
X94721Y-32367D01*
X94692Y-32338D01*
X94678Y-32310D01*
X94664Y-32252D01*
X94664Y-32210D01*
X94678Y-32152D01*
X94692Y-32124D01*
X94721Y-32095D01*
X94764Y-32081D01*
X94792Y-32081D01*
X94835Y-32095D01*
X94850Y-32110D01*
X94950Y-32081D02*
X95150Y-32081D01*
X95021Y-32381D01*
X94779Y-31021D02*
X94636Y-31021D01*
X94707Y-31021D02*
X94707Y-30721D01*
X94684Y-30764D01*
X94660Y-30792D01*
X94636Y-30807D01*
X94934Y-30721D02*
X94957Y-30721D01*
X94981Y-30735D01*
X94993Y-30750D01*
X95005Y-30778D01*
X95017Y-30835D01*
X95017Y-30907D01*
X95005Y-30964D01*
X94993Y-30992D01*
X94981Y-31007D01*
X94957Y-31021D01*
X94934Y-31021D01*
X94910Y-31007D01*
X94898Y-30992D01*
X94886Y-30964D01*
X94874Y-30907D01*
X94874Y-30835D01*
X94886Y-30778D01*
X94898Y-30750D01*
X94910Y-30735D01*
X94934Y-30721D01*
X95231Y-30821D02*
X95231Y-31021D01*
X95124Y-30821D02*
X95124Y-30978D01*
X95136Y-31007D01*
X95160Y-31021D01*
X95195Y-31021D01*
X95219Y-31007D01*
X95231Y-30992D01*
G54D19*
X95695Y-31577D02*
X95924Y-31577D01*
X95810Y-31691D02*
X95810Y-31462D01*
G54D13*
G54D10*
X106115Y-33799D02*
X106115Y-33405D01*
X106528Y-33761D02*
X106509Y-33780D01*
X106453Y-33799D01*
X106415Y-33799D01*
X106359Y-33780D01*
X106321Y-33743D01*
X106303Y-33705D01*
X106284Y-33630D01*
X106284Y-33574D01*
X106303Y-33499D01*
X106321Y-33461D01*
X106359Y-33424D01*
X106415Y-33405D01*
X106453Y-33405D01*
X106509Y-33424D01*
X106528Y-33443D01*
X106753Y-33574D02*
X106715Y-33555D01*
X106696Y-33536D01*
X106678Y-33499D01*
X106678Y-33480D01*
X106696Y-33443D01*
X106715Y-33424D01*
X106753Y-33405D01*
X106828Y-33405D01*
X106865Y-33424D01*
X106884Y-33443D01*
X106903Y-33480D01*
X106903Y-33499D01*
X106884Y-33536D01*
X106865Y-33555D01*
X106828Y-33574D01*
X106753Y-33574D01*
X106715Y-33593D01*
X106696Y-33611D01*
X106678Y-33649D01*
X106678Y-33724D01*
X106696Y-33761D01*
X106715Y-33780D01*
X106753Y-33799D01*
X106828Y-33799D01*
X106865Y-33780D01*
X106884Y-33761D01*
X106903Y-33724D01*
X106903Y-33649D01*
X106884Y-33611D01*
X106865Y-33593D01*
X106828Y-33574D01*
X106286Y-34379D02*
X106099Y-34379D01*
X106099Y-33985D01*
X106418Y-34379D02*
X106418Y-33985D01*
X106549Y-34266D01*
X106680Y-33985D01*
X106680Y-34379D01*
X106849Y-34023D02*
X106868Y-34004D01*
X106905Y-33985D01*
X106999Y-33985D01*
X107036Y-34004D01*
X107055Y-34023D01*
X107074Y-34060D01*
X107074Y-34098D01*
X107055Y-34154D01*
X106830Y-34379D01*
X107074Y-34379D01*
X107430Y-33985D02*
X107243Y-33985D01*
X107224Y-34173D01*
X107243Y-34154D01*
X107280Y-34135D01*
X107374Y-34135D01*
X107411Y-34154D01*
X107430Y-34173D01*
X107449Y-34210D01*
X107449Y-34304D01*
X107430Y-34341D01*
X107411Y-34360D01*
X107374Y-34379D01*
X107280Y-34379D01*
X107243Y-34360D01*
X107224Y-34341D01*
X107580Y-33985D02*
X107843Y-33985D01*
X107674Y-34379D01*
X108180Y-33985D02*
X107993Y-33985D01*
X107974Y-34173D01*
X107993Y-34154D01*
X108030Y-34135D01*
X108124Y-34135D01*
X108161Y-34154D01*
X108180Y-34173D01*
X108199Y-34210D01*
X108199Y-34304D01*
X108180Y-34341D01*
X108161Y-34360D01*
X108124Y-34379D01*
X108030Y-34379D01*
X107993Y-34360D01*
X107974Y-34341D01*
X116959Y-44090D02*
X116565Y-44090D01*
X116565Y-43940D01*
X116584Y-43903D01*
X116603Y-43884D01*
X116640Y-43865D01*
X116696Y-43865D01*
X116734Y-43884D01*
X116753Y-43903D01*
X116771Y-43940D01*
X116771Y-44090D01*
X116565Y-43509D02*
X116565Y-43696D01*
X116753Y-43715D01*
X116734Y-43696D01*
X116715Y-43659D01*
X116715Y-43565D01*
X116734Y-43528D01*
X116753Y-43509D01*
X116790Y-43490D01*
X116884Y-43490D01*
X116921Y-43509D01*
X116940Y-43528D01*
X116959Y-43565D01*
X116959Y-43659D01*
X116940Y-43696D01*
X116921Y-43715D01*
X117759Y-45546D02*
X117365Y-45546D01*
X117553Y-45546D02*
X117553Y-45321D01*
X117759Y-45321D02*
X117365Y-45321D01*
X117759Y-45134D02*
X117365Y-45134D01*
X117365Y-45040D01*
X117384Y-44984D01*
X117421Y-44946D01*
X117459Y-44927D01*
X117534Y-44909D01*
X117590Y-44909D01*
X117665Y-44927D01*
X117703Y-44946D01*
X117740Y-44984D01*
X117759Y-45040D01*
X117759Y-45134D01*
X117609Y-44740D02*
X117609Y-44440D01*
X117365Y-44065D02*
X117365Y-44253D01*
X117553Y-44271D01*
X117534Y-44253D01*
X117515Y-44215D01*
X117515Y-44121D01*
X117534Y-44084D01*
X117553Y-44065D01*
X117590Y-44046D01*
X117684Y-44046D01*
X117721Y-44065D01*
X117740Y-44084D01*
X117759Y-44121D01*
X117759Y-44215D01*
X117740Y-44253D01*
X117721Y-44271D01*
X117759Y-43671D02*
X117759Y-43896D01*
X117759Y-43784D02*
X117365Y-43784D01*
X117421Y-43821D01*
X117459Y-43859D01*
X117478Y-43896D01*
X117365Y-43315D02*
X117365Y-43503D01*
X117553Y-43521D01*
X117534Y-43503D01*
X117515Y-43465D01*
X117515Y-43371D01*
X117534Y-43334D01*
X117553Y-43315D01*
X117590Y-43296D01*
X117684Y-43296D01*
X117721Y-43315D01*
X117740Y-43334D01*
X117759Y-43371D01*
X117759Y-43465D01*
X117740Y-43503D01*
X117721Y-43521D01*
X117759Y-42903D02*
X117571Y-43034D01*
X117759Y-43128D02*
X117365Y-43128D01*
X117365Y-42978D01*
X117384Y-42940D01*
X117403Y-42921D01*
X117440Y-42903D01*
X117496Y-42903D01*
X117534Y-42921D01*
X117553Y-42940D01*
X117571Y-42978D01*
X117571Y-43128D01*
X117496Y-42265D02*
X117759Y-42265D01*
X117346Y-42359D02*
X117628Y-42453D01*
X117628Y-42209D01*
X117759Y-42059D02*
X117365Y-42059D01*
X117365Y-41909D01*
X117384Y-41872D01*
X117403Y-41853D01*
X117440Y-41834D01*
X117496Y-41834D01*
X117534Y-41853D01*
X117553Y-41872D01*
X117571Y-41909D01*
X117571Y-42059D01*
X117159Y-37490D02*
X116765Y-37490D01*
X116765Y-37340D01*
X116784Y-37303D01*
X116803Y-37284D01*
X116840Y-37265D01*
X116896Y-37265D01*
X116934Y-37284D01*
X116953Y-37303D01*
X116971Y-37340D01*
X116971Y-37490D01*
X116896Y-36928D02*
X117159Y-36928D01*
X116746Y-37021D02*
X117028Y-37115D01*
X117028Y-36871D01*
X117619Y-38946D02*
X117225Y-38946D01*
X117413Y-38946D02*
X117413Y-38721D01*
X117619Y-38721D02*
X117225Y-38721D01*
X117619Y-38534D02*
X117225Y-38534D01*
X117225Y-38440D01*
X117244Y-38384D01*
X117281Y-38346D01*
X117319Y-38327D01*
X117394Y-38309D01*
X117450Y-38309D01*
X117525Y-38327D01*
X117563Y-38346D01*
X117600Y-38384D01*
X117619Y-38440D01*
X117619Y-38534D01*
X117469Y-38140D02*
X117469Y-37840D01*
X117225Y-37465D02*
X117225Y-37653D01*
X117413Y-37671D01*
X117394Y-37653D01*
X117375Y-37615D01*
X117375Y-37521D01*
X117394Y-37484D01*
X117413Y-37465D01*
X117450Y-37446D01*
X117544Y-37446D01*
X117581Y-37465D01*
X117600Y-37484D01*
X117619Y-37521D01*
X117619Y-37615D01*
X117600Y-37653D01*
X117581Y-37671D01*
X117619Y-37071D02*
X117619Y-37296D01*
X117619Y-37184D02*
X117225Y-37184D01*
X117281Y-37221D01*
X117319Y-37259D01*
X117338Y-37296D01*
X117225Y-36715D02*
X117225Y-36903D01*
X117413Y-36921D01*
X117394Y-36903D01*
X117375Y-36865D01*
X117375Y-36771D01*
X117394Y-36734D01*
X117413Y-36715D01*
X117450Y-36696D01*
X117544Y-36696D01*
X117581Y-36715D01*
X117600Y-36734D01*
X117619Y-36771D01*
X117619Y-36865D01*
X117600Y-36903D01*
X117581Y-36921D01*
X117619Y-36303D02*
X117431Y-36434D01*
X117619Y-36528D02*
X117225Y-36528D01*
X117225Y-36378D01*
X117244Y-36340D01*
X117263Y-36321D01*
X117300Y-36303D01*
X117356Y-36303D01*
X117394Y-36321D01*
X117413Y-36340D01*
X117431Y-36378D01*
X117431Y-36528D01*
X117263Y-35853D02*
X117244Y-35834D01*
X117225Y-35797D01*
X117225Y-35703D01*
X117244Y-35665D01*
X117263Y-35647D01*
X117300Y-35628D01*
X117338Y-35628D01*
X117394Y-35647D01*
X117619Y-35872D01*
X117619Y-35628D01*
X117619Y-35459D02*
X117225Y-35459D01*
X117225Y-35309D01*
X117244Y-35272D01*
X117263Y-35253D01*
X117300Y-35234D01*
X117356Y-35234D01*
X117394Y-35253D01*
X117413Y-35272D01*
X117431Y-35309D01*
X117431Y-35459D01*
G54D17*
X89740Y-30653D02*
X89740Y-29953D01*
X90212Y-30586D02*
X90190Y-30620D01*
X90126Y-30653D01*
X90083Y-30653D01*
X90019Y-30620D01*
X89976Y-30553D01*
X89955Y-30486D01*
X89933Y-30353D01*
X89933Y-30253D01*
X89955Y-30120D01*
X89976Y-30053D01*
X90019Y-29986D01*
X90083Y-29953D01*
X90126Y-29953D01*
X90190Y-29986D01*
X90212Y-30020D01*
X90383Y-30020D02*
X90405Y-29986D01*
X90447Y-29953D01*
X90555Y-29953D01*
X90597Y-29986D01*
X90619Y-30020D01*
X90640Y-30086D01*
X90640Y-30153D01*
X90619Y-30253D01*
X90362Y-30653D01*
X90640Y-30653D01*
G54D12*
G54D18*
X90430Y-33755D02*
X90463Y-33698D01*
X90463Y-33603D01*
X90430Y-33565D01*
X90396Y-33546D01*
X90330Y-33527D01*
X90263Y-33527D01*
X90196Y-33546D01*
X90163Y-33565D01*
X90130Y-33603D01*
X90096Y-33679D01*
X90063Y-33717D01*
X90030Y-33736D01*
X89963Y-33755D01*
X89896Y-33755D01*
X89830Y-33736D01*
X89796Y-33717D01*
X89763Y-33679D01*
X89763Y-33584D01*
X89796Y-33527D01*
X90463Y-33355D02*
X89763Y-33355D01*
X89763Y-33203D01*
X89796Y-33165D01*
X89830Y-33146D01*
X89896Y-33127D01*
X89996Y-33127D01*
X90063Y-33146D01*
X90096Y-33165D01*
X90130Y-33203D01*
X90130Y-33355D01*
X89996Y-32784D02*
X90463Y-32784D01*
X89730Y-32879D02*
X90230Y-32974D01*
X90230Y-32727D01*
X90063Y-32517D02*
X90030Y-32555D01*
X89996Y-32574D01*
X89930Y-32593D01*
X89896Y-32593D01*
X89830Y-32574D01*
X89796Y-32555D01*
X89763Y-32517D01*
X89763Y-32441D01*
X89796Y-32403D01*
X89830Y-32384D01*
X89896Y-32365D01*
X89930Y-32365D01*
X89996Y-32384D01*
X90030Y-32403D01*
X90063Y-32441D01*
X90063Y-32517D01*
X90096Y-32555D01*
X90130Y-32574D01*
X90196Y-32593D01*
X90330Y-32593D01*
X90396Y-32574D01*
X90430Y-32555D01*
X90463Y-32517D01*
X90463Y-32441D01*
X90430Y-32403D01*
X90396Y-32384D01*
X90330Y-32365D01*
X90196Y-32365D01*
X90130Y-32384D01*
X90096Y-32403D01*
X90063Y-32441D01*
X89763Y-32003D02*
X89763Y-32193D01*
X90096Y-32212D01*
X90063Y-32193D01*
X90030Y-32155D01*
X90030Y-32060D01*
X90063Y-32022D01*
X90096Y-32003D01*
X90163Y-31984D01*
X90330Y-31984D01*
X90396Y-32003D01*
X90430Y-32022D01*
X90463Y-32060D01*
X90463Y-32155D01*
X90430Y-32193D01*
X90396Y-32212D01*
G54D12*
G54D20*
X97599Y-46772D02*
X97599Y-46172D01*
X98018Y-46715D02*
X97999Y-46744D01*
X97942Y-46772D01*
X97904Y-46772D01*
X97847Y-46744D01*
X97809Y-46687D01*
X97790Y-46630D01*
X97770Y-46515D01*
X97770Y-46430D01*
X97790Y-46315D01*
X97809Y-46258D01*
X97847Y-46201D01*
X97904Y-46172D01*
X97942Y-46172D01*
X97999Y-46201D01*
X98018Y-46230D01*
X98361Y-46372D02*
X98361Y-46772D01*
X98266Y-46144D02*
X98170Y-46572D01*
X98418Y-46572D01*
X97308Y-44602D02*
X97141Y-44602D01*
X97141Y-44102D01*
X97375Y-44102D02*
X97575Y-44102D01*
X97475Y-44602D02*
X97475Y-44102D01*
X97641Y-44102D02*
X97758Y-44602D01*
X97874Y-44102D01*
X97991Y-44411D02*
X98258Y-44411D01*
X98475Y-44316D02*
X98441Y-44292D01*
X98425Y-44269D01*
X98408Y-44221D01*
X98408Y-44197D01*
X98425Y-44150D01*
X98441Y-44126D01*
X98475Y-44102D01*
X98541Y-44102D01*
X98575Y-44126D01*
X98591Y-44150D01*
X98608Y-44197D01*
X98608Y-44221D01*
X98591Y-44269D01*
X98575Y-44292D01*
X98541Y-44316D01*
X98475Y-44316D01*
X98441Y-44340D01*
X98425Y-44364D01*
X98408Y-44411D01*
X98408Y-44507D01*
X98425Y-44554D01*
X98441Y-44578D01*
X98475Y-44602D01*
X98541Y-44602D01*
X98575Y-44578D01*
X98591Y-44554D01*
X98608Y-44507D01*
X98608Y-44411D01*
X98591Y-44364D01*
X98575Y-44340D01*
X98541Y-44316D01*
X98941Y-44602D02*
X98741Y-44602D01*
X98841Y-44602D02*
X98841Y-44102D01*
X98808Y-44173D01*
X98775Y-44221D01*
X98741Y-44245D01*
X99241Y-44269D02*
X99241Y-44602D01*
X99158Y-44078D02*
X99075Y-44435D01*
X99291Y-44435D01*
X87949Y-46792D02*
X87949Y-46192D01*
X88368Y-46735D02*
X88349Y-46764D01*
X88292Y-46792D01*
X88254Y-46792D01*
X88197Y-46764D01*
X88159Y-46707D01*
X88140Y-46650D01*
X88120Y-46535D01*
X88120Y-46450D01*
X88140Y-46335D01*
X88159Y-46278D01*
X88197Y-46221D01*
X88254Y-46192D01*
X88292Y-46192D01*
X88349Y-46221D01*
X88368Y-46250D01*
X88730Y-46192D02*
X88540Y-46192D01*
X88520Y-46478D01*
X88540Y-46450D01*
X88578Y-46421D01*
X88673Y-46421D01*
X88711Y-46450D01*
X88730Y-46478D01*
X88749Y-46535D01*
X88749Y-46678D01*
X88730Y-46735D01*
X88711Y-46764D01*
X88673Y-46792D01*
X88578Y-46792D01*
X88540Y-46764D01*
X88520Y-46735D01*
X87508Y-49702D02*
X87341Y-49702D01*
X87341Y-49202D01*
X87575Y-49202D02*
X87775Y-49202D01*
X87675Y-49702D02*
X87675Y-49202D01*
X87841Y-49202D02*
X87958Y-49702D01*
X88074Y-49202D01*
X88191Y-49511D02*
X88458Y-49511D01*
X88675Y-49416D02*
X88641Y-49392D01*
X88625Y-49369D01*
X88608Y-49321D01*
X88608Y-49297D01*
X88625Y-49250D01*
X88641Y-49226D01*
X88675Y-49202D01*
X88741Y-49202D01*
X88775Y-49226D01*
X88791Y-49250D01*
X88808Y-49297D01*
X88808Y-49321D01*
X88791Y-49369D01*
X88775Y-49392D01*
X88741Y-49416D01*
X88675Y-49416D01*
X88641Y-49440D01*
X88625Y-49464D01*
X88608Y-49511D01*
X88608Y-49607D01*
X88625Y-49654D01*
X88641Y-49678D01*
X88675Y-49702D01*
X88741Y-49702D01*
X88775Y-49678D01*
X88791Y-49654D01*
X88808Y-49607D01*
X88808Y-49511D01*
X88791Y-49464D01*
X88775Y-49440D01*
X88741Y-49416D01*
X89141Y-49702D02*
X88941Y-49702D01*
X89041Y-49702D02*
X89041Y-49202D01*
X89008Y-49273D01*
X88975Y-49321D01*
X88941Y-49345D01*
X89441Y-49369D02*
X89441Y-49702D01*
X89358Y-49178D02*
X89275Y-49535D01*
X89491Y-49535D01*
X85385Y-46890D02*
X85385Y-46290D01*
X85805Y-46832D02*
X85785Y-46861D01*
X85728Y-46890D01*
X85690Y-46890D01*
X85633Y-46861D01*
X85595Y-46804D01*
X85576Y-46747D01*
X85557Y-46632D01*
X85557Y-46547D01*
X85576Y-46432D01*
X85595Y-46375D01*
X85633Y-46318D01*
X85690Y-46290D01*
X85728Y-46290D01*
X85785Y-46318D01*
X85805Y-46347D01*
X85938Y-46290D02*
X86185Y-46290D01*
X86052Y-46518D01*
X86109Y-46518D01*
X86147Y-46547D01*
X86166Y-46575D01*
X86185Y-46632D01*
X86185Y-46775D01*
X86166Y-46832D01*
X86147Y-46861D01*
X86109Y-46890D01*
X85995Y-46890D01*
X85957Y-46861D01*
X85938Y-46832D01*
X85308Y-44702D02*
X85141Y-44702D01*
X85141Y-44202D01*
X85375Y-44202D02*
X85575Y-44202D01*
X85475Y-44702D02*
X85475Y-44202D01*
X85641Y-44202D02*
X85758Y-44702D01*
X85874Y-44202D01*
X85991Y-44511D02*
X86258Y-44511D01*
X86475Y-44416D02*
X86441Y-44392D01*
X86425Y-44369D01*
X86408Y-44321D01*
X86408Y-44297D01*
X86425Y-44250D01*
X86441Y-44226D01*
X86475Y-44202D01*
X86541Y-44202D01*
X86575Y-44226D01*
X86591Y-44250D01*
X86608Y-44297D01*
X86608Y-44321D01*
X86591Y-44369D01*
X86575Y-44392D01*
X86541Y-44416D01*
X86475Y-44416D01*
X86441Y-44440D01*
X86425Y-44464D01*
X86408Y-44511D01*
X86408Y-44607D01*
X86425Y-44654D01*
X86441Y-44678D01*
X86475Y-44702D01*
X86541Y-44702D01*
X86575Y-44678D01*
X86591Y-44654D01*
X86608Y-44607D01*
X86608Y-44511D01*
X86591Y-44464D01*
X86575Y-44440D01*
X86541Y-44416D01*
X86941Y-44702D02*
X86741Y-44702D01*
X86841Y-44702D02*
X86841Y-44202D01*
X86808Y-44273D01*
X86775Y-44321D01*
X86741Y-44345D01*
X87241Y-44369D02*
X87241Y-44702D01*
X87158Y-44178D02*
X87075Y-44535D01*
X87291Y-44535D01*
X104339Y-47592D02*
X104339Y-46992D01*
X104758Y-47535D02*
X104739Y-47564D01*
X104682Y-47592D01*
X104644Y-47592D01*
X104587Y-47564D01*
X104549Y-47507D01*
X104530Y-47450D01*
X104510Y-47335D01*
X104510Y-47250D01*
X104530Y-47135D01*
X104549Y-47078D01*
X104587Y-47021D01*
X104644Y-46992D01*
X104682Y-46992D01*
X104739Y-47021D01*
X104758Y-47050D01*
X105101Y-46992D02*
X105025Y-46992D01*
X104987Y-47021D01*
X104968Y-47050D01*
X104930Y-47135D01*
X104910Y-47250D01*
X104910Y-47478D01*
X104930Y-47535D01*
X104949Y-47564D01*
X104987Y-47592D01*
X105063Y-47592D01*
X105101Y-47564D01*
X105120Y-47535D01*
X105139Y-47478D01*
X105139Y-47335D01*
X105120Y-47278D01*
X105101Y-47250D01*
X105063Y-47221D01*
X104987Y-47221D01*
X104949Y-47250D01*
X104930Y-47278D01*
X104910Y-47335D01*
X103828Y-44722D02*
X103661Y-44722D01*
X103661Y-44222D01*
X103895Y-44222D02*
X104095Y-44222D01*
X103995Y-44722D02*
X103995Y-44222D01*
X104161Y-44222D02*
X104278Y-44722D01*
X104394Y-44222D01*
X104511Y-44531D02*
X104778Y-44531D01*
X104995Y-44436D02*
X104961Y-44412D01*
X104945Y-44389D01*
X104928Y-44341D01*
X104928Y-44317D01*
X104945Y-44270D01*
X104961Y-44246D01*
X104995Y-44222D01*
X105061Y-44222D01*
X105095Y-44246D01*
X105111Y-44270D01*
X105128Y-44317D01*
X105128Y-44341D01*
X105111Y-44389D01*
X105095Y-44412D01*
X105061Y-44436D01*
X104995Y-44436D01*
X104961Y-44460D01*
X104945Y-44484D01*
X104928Y-44531D01*
X104928Y-44627D01*
X104945Y-44674D01*
X104961Y-44698D01*
X104995Y-44722D01*
X105061Y-44722D01*
X105095Y-44698D01*
X105111Y-44674D01*
X105128Y-44627D01*
X105128Y-44531D01*
X105111Y-44484D01*
X105095Y-44460D01*
X105061Y-44436D01*
X105461Y-44722D02*
X105261Y-44722D01*
X105361Y-44722D02*
X105361Y-44222D01*
X105328Y-44293D01*
X105295Y-44341D01*
X105261Y-44365D01*
X105761Y-44389D02*
X105761Y-44722D01*
X105678Y-44198D02*
X105595Y-44555D01*
X105811Y-44555D01*
X90169Y-47602D02*
X90169Y-47002D01*
X90588Y-47545D02*
X90569Y-47574D01*
X90512Y-47602D01*
X90474Y-47602D01*
X90417Y-47574D01*
X90379Y-47517D01*
X90360Y-47460D01*
X90340Y-47345D01*
X90340Y-47260D01*
X90360Y-47145D01*
X90379Y-47088D01*
X90417Y-47031D01*
X90474Y-47002D01*
X90512Y-47002D01*
X90569Y-47031D01*
X90588Y-47060D01*
X90721Y-47002D02*
X90988Y-47002D01*
X90817Y-47602D01*
X89708Y-44802D02*
X89541Y-44802D01*
X89541Y-44302D01*
X89775Y-44302D02*
X89975Y-44302D01*
X89875Y-44802D02*
X89875Y-44302D01*
X90041Y-44302D02*
X90158Y-44802D01*
X90274Y-44302D01*
X90391Y-44611D02*
X90658Y-44611D01*
X90875Y-44516D02*
X90841Y-44492D01*
X90825Y-44469D01*
X90808Y-44421D01*
X90808Y-44397D01*
X90825Y-44350D01*
X90841Y-44326D01*
X90875Y-44302D01*
X90941Y-44302D01*
X90975Y-44326D01*
X90991Y-44350D01*
X91008Y-44397D01*
X91008Y-44421D01*
X90991Y-44469D01*
X90975Y-44492D01*
X90941Y-44516D01*
X90875Y-44516D01*
X90841Y-44540D01*
X90825Y-44564D01*
X90808Y-44611D01*
X90808Y-44707D01*
X90825Y-44754D01*
X90841Y-44778D01*
X90875Y-44802D01*
X90941Y-44802D01*
X90975Y-44778D01*
X90991Y-44754D01*
X91008Y-44707D01*
X91008Y-44611D01*
X90991Y-44564D01*
X90975Y-44540D01*
X90941Y-44516D01*
X91341Y-44802D02*
X91141Y-44802D01*
X91241Y-44802D02*
X91241Y-44302D01*
X91208Y-44373D01*
X91175Y-44421D01*
X91141Y-44445D01*
X91641Y-44469D02*
X91641Y-44802D01*
X91558Y-44278D02*
X91475Y-44635D01*
X91691Y-44635D01*
G54D17*
X96430Y-39972D02*
X96430Y-39372D01*
X96902Y-39915D02*
X96880Y-39944D01*
X96816Y-39972D01*
X96773Y-39972D01*
X96709Y-39944D01*
X96666Y-39887D01*
X96645Y-39830D01*
X96623Y-39715D01*
X96623Y-39630D01*
X96645Y-39515D01*
X96666Y-39458D01*
X96709Y-39401D01*
X96773Y-39372D01*
X96816Y-39372D01*
X96880Y-39401D01*
X96902Y-39430D01*
X97330Y-39972D02*
X97073Y-39972D01*
X97202Y-39972D02*
X97202Y-39372D01*
X97159Y-39458D01*
X97116Y-39515D01*
X97073Y-39544D01*
G54D12*
G54D17*
X87745Y-39801D02*
X87959Y-39801D01*
X87702Y-39972D02*
X87852Y-39372D01*
X88002Y-39972D01*
X88087Y-39372D02*
X88345Y-39372D01*
X88216Y-39972D02*
X88216Y-39372D01*
X88495Y-39972D02*
X88495Y-39372D01*
X88645Y-39801D01*
X88795Y-39372D01*
X88795Y-39972D01*
X89009Y-39658D02*
X89159Y-39658D01*
X89223Y-39972D02*
X89009Y-39972D01*
X89009Y-39372D01*
X89223Y-39372D01*
X89652Y-39401D02*
X89609Y-39372D01*
X89545Y-39372D01*
X89480Y-39401D01*
X89437Y-39458D01*
X89416Y-39515D01*
X89395Y-39630D01*
X89395Y-39715D01*
X89416Y-39830D01*
X89437Y-39887D01*
X89480Y-39944D01*
X89545Y-39972D01*
X89587Y-39972D01*
X89652Y-39944D01*
X89673Y-39915D01*
X89673Y-39715D01*
X89587Y-39715D01*
X89845Y-39801D02*
X90059Y-39801D01*
X89802Y-39972D02*
X89952Y-39372D01*
X90102Y-39972D01*
X90316Y-39630D02*
X90273Y-39601D01*
X90252Y-39572D01*
X90230Y-39515D01*
X90230Y-39487D01*
X90252Y-39430D01*
X90273Y-39401D01*
X90316Y-39372D01*
X90402Y-39372D01*
X90445Y-39401D01*
X90466Y-39430D01*
X90487Y-39487D01*
X90487Y-39515D01*
X90466Y-39572D01*
X90445Y-39601D01*
X90402Y-39630D01*
X90316Y-39630D01*
X90273Y-39658D01*
X90252Y-39687D01*
X90230Y-39744D01*
X90230Y-39858D01*
X90252Y-39915D01*
X90273Y-39944D01*
X90316Y-39972D01*
X90402Y-39972D01*
X90445Y-39944D01*
X90466Y-39915D01*
X90487Y-39858D01*
X90487Y-39744D01*
X90466Y-39687D01*
X90445Y-39658D01*
X90402Y-39630D01*
X90680Y-39744D02*
X91023Y-39744D01*
X91237Y-39972D02*
X91237Y-39372D01*
X91409Y-39372D01*
X91452Y-39401D01*
X91473Y-39430D01*
X91495Y-39487D01*
X91495Y-39572D01*
X91473Y-39630D01*
X91452Y-39658D01*
X91409Y-39687D01*
X91237Y-39687D01*
G54D12*
G54D10*
X111559Y-40434D02*
X111371Y-40565D01*
X111559Y-40659D02*
X111165Y-40659D01*
X111165Y-40509D01*
X111184Y-40471D01*
X111203Y-40453D01*
X111240Y-40434D01*
X111296Y-40434D01*
X111334Y-40453D01*
X111353Y-40471D01*
X111371Y-40509D01*
X111371Y-40659D01*
X111165Y-40321D02*
X111559Y-40190D01*
X111165Y-40059D01*
X111559Y-39721D02*
X111559Y-39946D01*
X111559Y-39834D02*
X111165Y-39834D01*
X111221Y-39871D01*
X111259Y-39909D01*
X111278Y-39946D01*
X108621Y-40665D02*
X108865Y-40665D01*
X108734Y-40815D01*
X108790Y-40815D01*
X108828Y-40834D01*
X108846Y-40853D01*
X108865Y-40890D01*
X108865Y-40984D01*
X108846Y-41021D01*
X108828Y-41040D01*
X108790Y-41059D01*
X108678Y-41059D01*
X108640Y-41040D01*
X108621Y-41021D01*
X109109Y-40665D02*
X109146Y-40665D01*
X109184Y-40684D01*
X109203Y-40703D01*
X109221Y-40740D01*
X109240Y-40815D01*
X109240Y-40909D01*
X109221Y-40984D01*
X109203Y-41021D01*
X109184Y-41040D01*
X109146Y-41059D01*
X109109Y-41059D01*
X109071Y-41040D01*
X109053Y-41021D01*
X109034Y-40984D01*
X109015Y-40909D01*
X109015Y-40815D01*
X109034Y-40740D01*
X109053Y-40703D01*
X109071Y-40684D01*
X109109Y-40665D01*
X109409Y-41059D02*
X109409Y-40665D01*
X109446Y-40909D02*
X109559Y-41059D01*
X109559Y-40796D02*
X109409Y-40946D01*
X106565Y-44299D02*
X106884Y-44299D01*
X106921Y-44281D01*
X106940Y-44262D01*
X106959Y-44224D01*
X106959Y-44149D01*
X106940Y-44112D01*
X106921Y-44093D01*
X106884Y-44074D01*
X106565Y-44074D01*
X106696Y-43718D02*
X106959Y-43718D01*
X106546Y-43812D02*
X106828Y-43906D01*
X106828Y-43662D01*
X107467Y-45689D02*
X107152Y-45689D01*
X107152Y-45614D01*
X107167Y-45569D01*
X107197Y-45539D01*
X107227Y-45524D01*
X107287Y-45509D01*
X107332Y-45509D01*
X107392Y-45524D01*
X107422Y-45539D01*
X107452Y-45569D01*
X107467Y-45614D01*
X107467Y-45689D01*
X107467Y-45194D02*
X107317Y-45299D01*
X107467Y-45374D02*
X107152Y-45374D01*
X107152Y-45254D01*
X107167Y-45224D01*
X107182Y-45209D01*
X107212Y-45194D01*
X107257Y-45194D01*
X107287Y-45209D01*
X107302Y-45224D01*
X107317Y-45254D01*
X107317Y-45374D01*
X107152Y-45104D02*
X107467Y-44999D01*
X107152Y-44894D01*
X107287Y-44744D02*
X107272Y-44774D01*
X107257Y-44789D01*
X107227Y-44804D01*
X107212Y-44804D01*
X107182Y-44789D01*
X107167Y-44774D01*
X107152Y-44744D01*
X107152Y-44684D01*
X107167Y-44654D01*
X107182Y-44639D01*
X107212Y-44624D01*
X107227Y-44624D01*
X107257Y-44639D01*
X107272Y-44654D01*
X107287Y-44684D01*
X107287Y-44744D01*
X107302Y-44774D01*
X107317Y-44789D01*
X107347Y-44804D01*
X107407Y-44804D01*
X107437Y-44789D01*
X107452Y-44774D01*
X107467Y-44744D01*
X107467Y-44684D01*
X107452Y-44654D01*
X107437Y-44639D01*
X107407Y-44624D01*
X107347Y-44624D01*
X107317Y-44639D01*
X107302Y-44654D01*
X107287Y-44684D01*
X107287Y-44444D02*
X107272Y-44474D01*
X107257Y-44489D01*
X107227Y-44504D01*
X107212Y-44504D01*
X107182Y-44489D01*
X107167Y-44474D01*
X107152Y-44444D01*
X107152Y-44384D01*
X107167Y-44354D01*
X107182Y-44339D01*
X107212Y-44324D01*
X107227Y-44324D01*
X107257Y-44339D01*
X107272Y-44354D01*
X107287Y-44384D01*
X107287Y-44444D01*
X107302Y-44474D01*
X107317Y-44489D01*
X107347Y-44504D01*
X107407Y-44504D01*
X107437Y-44489D01*
X107452Y-44474D01*
X107467Y-44444D01*
X107467Y-44384D01*
X107452Y-44354D01*
X107437Y-44339D01*
X107407Y-44324D01*
X107347Y-44324D01*
X107317Y-44339D01*
X107302Y-44354D01*
X107287Y-44384D01*
X107182Y-44205D02*
X107167Y-44190D01*
X107152Y-44160D01*
X107152Y-44085D01*
X107167Y-44055D01*
X107182Y-44040D01*
X107212Y-44025D01*
X107242Y-44025D01*
X107287Y-44040D01*
X107467Y-44220D01*
X107467Y-44025D01*
X107152Y-43740D02*
X107152Y-43890D01*
X107302Y-43905D01*
X107287Y-43890D01*
X107272Y-43860D01*
X107272Y-43785D01*
X107287Y-43755D01*
X107302Y-43740D01*
X107332Y-43725D01*
X107407Y-43725D01*
X107437Y-43740D01*
X107452Y-43755D01*
X107467Y-43785D01*
X107467Y-43860D01*
X107452Y-43890D01*
X107437Y-43905D01*
X107467Y-43590D02*
X107152Y-43590D01*
X107152Y-43470D01*
X107167Y-43440D01*
X107182Y-43425D01*
X107212Y-43410D01*
X107257Y-43410D01*
X107287Y-43425D01*
X107302Y-43440D01*
X107317Y-43470D01*
X107317Y-43590D01*
X107152Y-43305D02*
X107467Y-43230D01*
X107242Y-43170D01*
X107467Y-43110D01*
X107152Y-43035D01*
X107467Y-42915D02*
X107152Y-42915D01*
X107152Y-42795D01*
X107167Y-42765D01*
X107182Y-42750D01*
X107212Y-42735D01*
X107257Y-42735D01*
X107287Y-42750D01*
X107302Y-42765D01*
X107317Y-42795D01*
X107317Y-42915D01*
G54D11*
X114307Y-48592D02*
X114292Y-48607D01*
X114250Y-48621D01*
X114221Y-48621D01*
X114178Y-48607D01*
X114150Y-48578D01*
X114135Y-48550D01*
X114121Y-48492D01*
X114121Y-48450D01*
X114135Y-48392D01*
X114150Y-48364D01*
X114178Y-48335D01*
X114221Y-48321D01*
X114250Y-48321D01*
X114292Y-48335D01*
X114307Y-48350D01*
X114592Y-48621D02*
X114421Y-48621D01*
X114507Y-48621D02*
X114507Y-48321D01*
X114478Y-48364D01*
X114450Y-48392D01*
X114421Y-48407D01*
X114707Y-48350D02*
X114721Y-48335D01*
X114750Y-48321D01*
X114821Y-48321D01*
X114850Y-48335D01*
X114864Y-48350D01*
X114878Y-48378D01*
X114878Y-48407D01*
X114864Y-48450D01*
X114692Y-48621D01*
X114878Y-48621D01*
X87250Y-31681D02*
X87150Y-31538D01*
X87078Y-31681D02*
X87078Y-31381D01*
X87192Y-31381D01*
X87221Y-31395D01*
X87235Y-31410D01*
X87250Y-31438D01*
X87250Y-31481D01*
X87235Y-31510D01*
X87221Y-31524D01*
X87192Y-31538D01*
X87078Y-31538D01*
X87350Y-31381D02*
X87535Y-31381D01*
X87435Y-31495D01*
X87478Y-31495D01*
X87507Y-31510D01*
X87521Y-31524D01*
X87535Y-31552D01*
X87535Y-31624D01*
X87521Y-31652D01*
X87507Y-31667D01*
X87478Y-31681D01*
X87392Y-31681D01*
X87364Y-31667D01*
X87350Y-31652D01*
X92770Y-30361D02*
X92670Y-30218D01*
X92598Y-30361D02*
X92598Y-30061D01*
X92712Y-30061D01*
X92741Y-30075D01*
X92755Y-30090D01*
X92770Y-30118D01*
X92770Y-30161D01*
X92755Y-30190D01*
X92741Y-30204D01*
X92712Y-30218D01*
X92598Y-30218D01*
X93027Y-30161D02*
X93027Y-30361D01*
X92955Y-30047D02*
X92884Y-30261D01*
X93070Y-30261D01*
G54D10*
X115109Y-28359D02*
X115109Y-27965D01*
X115259Y-27965D01*
X115296Y-27984D01*
X115315Y-28003D01*
X115334Y-28040D01*
X115334Y-28096D01*
X115315Y-28134D01*
X115296Y-28153D01*
X115259Y-28171D01*
X115109Y-28171D01*
X115671Y-27965D02*
X115596Y-27965D01*
X115559Y-27984D01*
X115540Y-28003D01*
X115503Y-28059D01*
X115484Y-28134D01*
X115484Y-28284D01*
X115503Y-28321D01*
X115521Y-28340D01*
X115559Y-28359D01*
X115634Y-28359D01*
X115671Y-28340D01*
X115690Y-28321D01*
X115709Y-28284D01*
X115709Y-28190D01*
X115690Y-28153D01*
X115671Y-28134D01*
X115634Y-28115D01*
X115559Y-28115D01*
X115521Y-28134D01*
X115503Y-28153D01*
X115484Y-28190D01*
X114443Y-28465D02*
X114687Y-28465D01*
X114556Y-28615D01*
X114612Y-28615D01*
X114650Y-28634D01*
X114668Y-28653D01*
X114687Y-28690D01*
X114687Y-28784D01*
X114668Y-28821D01*
X114650Y-28840D01*
X114612Y-28859D01*
X114500Y-28859D01*
X114462Y-28840D01*
X114443Y-28821D01*
X114856Y-28859D02*
X114856Y-28596D01*
X114856Y-28634D02*
X114875Y-28615D01*
X114912Y-28596D01*
X114968Y-28596D01*
X115006Y-28615D01*
X115025Y-28653D01*
X115025Y-28859D01*
X115025Y-28653D02*
X115043Y-28615D01*
X115081Y-28596D01*
X115137Y-28596D01*
X115174Y-28615D01*
X115193Y-28653D01*
X115193Y-28859D01*
X115381Y-28859D02*
X115381Y-28596D01*
X115381Y-28634D02*
X115399Y-28615D01*
X115437Y-28596D01*
X115493Y-28596D01*
X115531Y-28615D01*
X115549Y-28653D01*
X115549Y-28859D01*
X115549Y-28653D02*
X115568Y-28615D01*
X115606Y-28596D01*
X115662Y-28596D01*
X115699Y-28615D01*
X115718Y-28653D01*
X115718Y-28859D01*
X86309Y-53759D02*
X86309Y-53365D01*
X86459Y-53365D01*
X86496Y-53384D01*
X86515Y-53403D01*
X86534Y-53440D01*
X86534Y-53496D01*
X86515Y-53534D01*
X86496Y-53553D01*
X86459Y-53571D01*
X86309Y-53571D01*
X86665Y-53365D02*
X86928Y-53365D01*
X86759Y-53759D01*
X86243Y-54065D02*
X86487Y-54065D01*
X86356Y-54215D01*
X86412Y-54215D01*
X86450Y-54234D01*
X86468Y-54253D01*
X86487Y-54290D01*
X86487Y-54384D01*
X86468Y-54421D01*
X86450Y-54440D01*
X86412Y-54459D01*
X86300Y-54459D01*
X86262Y-54440D01*
X86243Y-54421D01*
X86656Y-54459D02*
X86656Y-54196D01*
X86656Y-54234D02*
X86675Y-54215D01*
X86712Y-54196D01*
X86768Y-54196D01*
X86806Y-54215D01*
X86825Y-54253D01*
X86825Y-54459D01*
X86825Y-54253D02*
X86843Y-54215D01*
X86881Y-54196D01*
X86937Y-54196D01*
X86974Y-54215D01*
X86993Y-54253D01*
X86993Y-54459D01*
X87181Y-54459D02*
X87181Y-54196D01*
X87181Y-54234D02*
X87199Y-54215D01*
X87237Y-54196D01*
X87293Y-54196D01*
X87331Y-54215D01*
X87349Y-54253D01*
X87349Y-54459D01*
X87349Y-54253D02*
X87368Y-54215D01*
X87406Y-54196D01*
X87462Y-54196D01*
X87499Y-54215D01*
X87518Y-54253D01*
X87518Y-54459D01*
X86309Y-28259D02*
X86309Y-27865D01*
X86459Y-27865D01*
X86496Y-27884D01*
X86515Y-27903D01*
X86534Y-27940D01*
X86534Y-27996D01*
X86515Y-28034D01*
X86496Y-28053D01*
X86459Y-28071D01*
X86309Y-28071D01*
X86759Y-28034D02*
X86721Y-28015D01*
X86703Y-27996D01*
X86684Y-27959D01*
X86684Y-27940D01*
X86703Y-27903D01*
X86721Y-27884D01*
X86759Y-27865D01*
X86834Y-27865D01*
X86871Y-27884D01*
X86890Y-27903D01*
X86909Y-27940D01*
X86909Y-27959D01*
X86890Y-27996D01*
X86871Y-28015D01*
X86834Y-28034D01*
X86759Y-28034D01*
X86721Y-28053D01*
X86703Y-28071D01*
X86684Y-28109D01*
X86684Y-28184D01*
X86703Y-28221D01*
X86721Y-28240D01*
X86759Y-28259D01*
X86834Y-28259D01*
X86871Y-28240D01*
X86890Y-28221D01*
X86909Y-28184D01*
X86909Y-28109D01*
X86890Y-28071D01*
X86871Y-28053D01*
X86834Y-28034D01*
X86243Y-28465D02*
X86487Y-28465D01*
X86356Y-28615D01*
X86412Y-28615D01*
X86450Y-28634D01*
X86468Y-28653D01*
X86487Y-28690D01*
X86487Y-28784D01*
X86468Y-28821D01*
X86450Y-28840D01*
X86412Y-28859D01*
X86300Y-28859D01*
X86262Y-28840D01*
X86243Y-28821D01*
X86656Y-28859D02*
X86656Y-28596D01*
X86656Y-28634D02*
X86675Y-28615D01*
X86712Y-28596D01*
X86768Y-28596D01*
X86806Y-28615D01*
X86825Y-28653D01*
X86825Y-28859D01*
X86825Y-28653D02*
X86843Y-28615D01*
X86881Y-28596D01*
X86937Y-28596D01*
X86974Y-28615D01*
X86993Y-28653D01*
X86993Y-28859D01*
X87181Y-28859D02*
X87181Y-28596D01*
X87181Y-28634D02*
X87199Y-28615D01*
X87237Y-28596D01*
X87293Y-28596D01*
X87331Y-28615D01*
X87349Y-28653D01*
X87349Y-28859D01*
X87349Y-28653D02*
X87368Y-28615D01*
X87406Y-28596D01*
X87462Y-28596D01*
X87499Y-28615D01*
X87518Y-28653D01*
X87518Y-28859D01*
X115009Y-53759D02*
X115009Y-53365D01*
X115159Y-53365D01*
X115196Y-53384D01*
X115215Y-53403D01*
X115234Y-53440D01*
X115234Y-53496D01*
X115215Y-53534D01*
X115196Y-53553D01*
X115159Y-53571D01*
X115009Y-53571D01*
X115421Y-53759D02*
X115496Y-53759D01*
X115534Y-53740D01*
X115553Y-53721D01*
X115590Y-53665D01*
X115609Y-53590D01*
X115609Y-53440D01*
X115590Y-53403D01*
X115571Y-53384D01*
X115534Y-53365D01*
X115459Y-53365D01*
X115421Y-53384D01*
X115403Y-53403D01*
X115384Y-53440D01*
X115384Y-53534D01*
X115403Y-53571D01*
X115421Y-53590D01*
X115459Y-53609D01*
X115534Y-53609D01*
X115571Y-53590D01*
X115590Y-53571D01*
X115609Y-53534D01*
X114443Y-53865D02*
X114687Y-53865D01*
X114556Y-54015D01*
X114612Y-54015D01*
X114650Y-54034D01*
X114668Y-54053D01*
X114687Y-54090D01*
X114687Y-54184D01*
X114668Y-54221D01*
X114650Y-54240D01*
X114612Y-54259D01*
X114500Y-54259D01*
X114462Y-54240D01*
X114443Y-54221D01*
X114856Y-54259D02*
X114856Y-53996D01*
X114856Y-54034D02*
X114875Y-54015D01*
X114912Y-53996D01*
X114968Y-53996D01*
X115006Y-54015D01*
X115025Y-54053D01*
X115025Y-54259D01*
X115025Y-54053D02*
X115043Y-54015D01*
X115081Y-53996D01*
X115137Y-53996D01*
X115174Y-54015D01*
X115193Y-54053D01*
X115193Y-54259D01*
X115381Y-54259D02*
X115381Y-53996D01*
X115381Y-54034D02*
X115399Y-54015D01*
X115437Y-53996D01*
X115493Y-53996D01*
X115531Y-54015D01*
X115549Y-54053D01*
X115549Y-54259D01*
X115549Y-54053D02*
X115568Y-54015D01*
X115606Y-53996D01*
X115662Y-53996D01*
X115699Y-54015D01*
X115718Y-54053D01*
X115718Y-54259D01*
X81919Y-46590D02*
X81525Y-46590D01*
X81525Y-46440D01*
X81544Y-46403D01*
X81563Y-46384D01*
X81600Y-46365D01*
X81656Y-46365D01*
X81694Y-46384D01*
X81713Y-46403D01*
X81731Y-46440D01*
X81731Y-46590D01*
X81525Y-46234D02*
X81525Y-45990D01*
X81675Y-46121D01*
X81675Y-46065D01*
X81694Y-46028D01*
X81713Y-46009D01*
X81750Y-45990D01*
X81844Y-45990D01*
X81881Y-46009D01*
X81900Y-46028D01*
X81919Y-46065D01*
X81919Y-46178D01*
X81900Y-46215D01*
X81881Y-46234D01*
X82499Y-48326D02*
X82105Y-48326D01*
X82293Y-48326D02*
X82293Y-48101D01*
X82499Y-48101D02*
X82105Y-48101D01*
X82499Y-47914D02*
X82105Y-47914D01*
X82105Y-47820D01*
X82124Y-47764D01*
X82161Y-47726D01*
X82199Y-47707D01*
X82274Y-47689D01*
X82330Y-47689D01*
X82405Y-47707D01*
X82443Y-47726D01*
X82480Y-47764D01*
X82499Y-47820D01*
X82499Y-47914D01*
X82349Y-47520D02*
X82349Y-47220D01*
X82105Y-46845D02*
X82105Y-47033D01*
X82293Y-47051D01*
X82274Y-47033D01*
X82255Y-46995D01*
X82255Y-46901D01*
X82274Y-46864D01*
X82293Y-46845D01*
X82330Y-46826D01*
X82424Y-46826D01*
X82461Y-46845D01*
X82480Y-46864D01*
X82499Y-46901D01*
X82499Y-46995D01*
X82480Y-47033D01*
X82461Y-47051D01*
X82499Y-46451D02*
X82499Y-46676D01*
X82499Y-46564D02*
X82105Y-46564D01*
X82161Y-46601D01*
X82199Y-46639D01*
X82218Y-46676D01*
X82105Y-46095D02*
X82105Y-46283D01*
X82293Y-46301D01*
X82274Y-46283D01*
X82255Y-46245D01*
X82255Y-46151D01*
X82274Y-46114D01*
X82293Y-46095D01*
X82330Y-46076D01*
X82424Y-46076D01*
X82461Y-46095D01*
X82480Y-46114D01*
X82499Y-46151D01*
X82499Y-46245D01*
X82480Y-46283D01*
X82461Y-46301D01*
X82499Y-45683D02*
X82311Y-45814D01*
X82499Y-45908D02*
X82105Y-45908D01*
X82105Y-45758D01*
X82124Y-45720D01*
X82143Y-45701D01*
X82180Y-45683D01*
X82236Y-45683D01*
X82274Y-45701D01*
X82293Y-45720D01*
X82311Y-45758D01*
X82311Y-45908D01*
X82274Y-45158D02*
X82255Y-45195D01*
X82236Y-45214D01*
X82199Y-45233D01*
X82180Y-45233D01*
X82143Y-45214D01*
X82124Y-45195D01*
X82105Y-45158D01*
X82105Y-45083D01*
X82124Y-45045D01*
X82143Y-45027D01*
X82180Y-45008D01*
X82199Y-45008D01*
X82236Y-45027D01*
X82255Y-45045D01*
X82274Y-45083D01*
X82274Y-45158D01*
X82293Y-45195D01*
X82311Y-45214D01*
X82349Y-45233D01*
X82424Y-45233D01*
X82461Y-45214D01*
X82480Y-45195D01*
X82499Y-45158D01*
X82499Y-45083D01*
X82480Y-45045D01*
X82461Y-45027D01*
X82424Y-45008D01*
X82349Y-45008D01*
X82311Y-45027D01*
X82293Y-45045D01*
X82274Y-45083D01*
X82499Y-44839D02*
X82105Y-44839D01*
X82105Y-44689D01*
X82124Y-44652D01*
X82143Y-44633D01*
X82180Y-44614D01*
X82236Y-44614D01*
X82274Y-44633D01*
X82293Y-44652D01*
X82311Y-44689D01*
X82311Y-44839D01*
X82019Y-34950D02*
X81625Y-34950D01*
X81625Y-34800D01*
X81644Y-34763D01*
X81663Y-34744D01*
X81700Y-34725D01*
X81756Y-34725D01*
X81794Y-34744D01*
X81813Y-34763D01*
X81831Y-34800D01*
X81831Y-34950D01*
X82019Y-34350D02*
X82019Y-34575D01*
X82019Y-34463D02*
X81625Y-34463D01*
X81681Y-34500D01*
X81719Y-34538D01*
X81738Y-34575D01*
X82541Y-35434D02*
X82560Y-35453D01*
X82579Y-35509D01*
X82579Y-35546D01*
X82560Y-35602D01*
X82523Y-35640D01*
X82485Y-35659D01*
X82410Y-35677D01*
X82354Y-35677D01*
X82279Y-35659D01*
X82241Y-35640D01*
X82204Y-35602D01*
X82185Y-35546D01*
X82185Y-35509D01*
X82204Y-35453D01*
X82223Y-35434D01*
X82185Y-35190D02*
X82185Y-35115D01*
X82204Y-35078D01*
X82241Y-35040D01*
X82316Y-35021D01*
X82448Y-35021D01*
X82523Y-35040D01*
X82560Y-35078D01*
X82579Y-35115D01*
X82579Y-35190D01*
X82560Y-35228D01*
X82523Y-35265D01*
X82448Y-35284D01*
X82316Y-35284D01*
X82241Y-35265D01*
X82204Y-35228D01*
X82185Y-35190D01*
X82579Y-34853D02*
X82185Y-34853D01*
X82579Y-34628D01*
X82185Y-34628D01*
X82579Y-34440D02*
X82185Y-34440D01*
X82579Y-34215D01*
X82185Y-34215D01*
X82616Y-34121D02*
X82616Y-33821D01*
X82185Y-33559D02*
X82185Y-33634D01*
X82204Y-33671D01*
X82223Y-33690D01*
X82279Y-33728D01*
X82354Y-33746D01*
X82504Y-33746D01*
X82541Y-33728D01*
X82560Y-33709D01*
X82579Y-33671D01*
X82579Y-33597D01*
X82560Y-33559D01*
X82541Y-33540D01*
X82504Y-33522D01*
X82410Y-33522D01*
X82373Y-33540D01*
X82354Y-33559D01*
X82335Y-33597D01*
X82335Y-33671D01*
X82354Y-33709D01*
X82373Y-33728D01*
X82410Y-33746D01*
M02*
